/* XPM */
static char *result[] = {
/* columns rows colors chars-per-pixel */
"64 64 202 2 ",
"   c black",
".  c #00130F",
"X  c #002E03",
"o  c #002E1B",
"O  c #003619",
"+  c #013D1C",
"@  c #003C15",
"#  c #0D3700",
"$  c #000425",
"%  c #003223",
"&  c #013C23",
"*  c #00392F",
"=  c #00333E",
"-  c #002A22",
";  c #004200",
":  c #01441E",
">  c #04481A",
",  c #134500",
"<  c #007700",
"1  c #2F7913",
"2  c #004522",
"3  c #004B21",
"4  c #004B29",
"5  c #00472B",
"6  c #005426",
"7  c #005B2A",
"8  c #095825",
"9  c #0C5237",
"0  c #23573C",
"q  c #00642D",
"w  c #026B2E",
"e  c #11712E",
"r  c #006C32",
"t  c #006A38",
"y  c #017534",
"u  c #017A36",
"i  c #287A26",
"p  c #23712F",
"a  c #005C51",
"s  c #315D41",
"d  c #005F7C",
"f  c #FF7100",
"g  c #009800",
"h  c #35821E",
"j  c #00AA00",
"k  c #00A614",
"l  c #00853B",
"z  c #03923F",
"x  c #188235",
"c  c #378A22",
"v  c #34B13F",
"b  c #479E00",
"n  c #51A90F",
"m  c #58B200",
"M  c #57BA18",
"N  c #4EA416",
"B  c #49B52E",
"V  c #51B421",
"C  c #42CD00",
"Z  c #5DC110",
"A  c #67CD03",
"S  c #6AD503",
"D  c #73DC00",
"F  c #62CA11",
"G  c #74E300",
"H  c #5BCC27",
"J  c #5DD129",
"K  c #44C13A",
"L  c #69D12D",
"P  c #008E41",
"I  c #009B45",
"U  c #009E48",
"Y  c #019444",
"T  c #00A349",
"R  c #09A24B",
"E  c #00AD50",
"W  c #00A855",
"Q  c #04B452",
"!  c #00BA54",
"~  c #09BB52",
"^  c #11B04E",
"/  c #3DBF42",
"(  c #2CBA48",
")  c #34A661",
"_  c #50B959",
"`  c #FF8000",
"'  c #FF9C00",
"]  c #FFA200",
"[  c #FFBA00",
"{  c #FFB71E",
"}  c #FCB83A",
"|  c #FCCF06",
" . c #FDCE2F",
".. c #F69C5F",
"X. c #F9BB55",
"o. c #FBDF41",
"O. c #FBDA67",
"+. c #F4C172",
"@. c #006080",
"#. c #007EA3",
"$. c #00AB90",
"%. c #0089AF",
"&. c #0096B2",
"*. c #57CC8A",
"=. c #74DE89",
"-. c #008CCC",
";. c #008FC4",
":. c #0094D0",
">. c #009CD3",
",. c #009EDA",
"<. c #0094DE",
"1. c #0097C2",
"2. c #00A1D5",
"3. c #00A4DC",
"4. c #14AADD",
"5. c #38A9D8",
"6. c #30ABD9",
"7. c #009FE6",
"8. c #00AAE3",
"9. c #00A7E4",
"0. c #00B2ED",
"q. c #35B9ED",
"w. c #54AED9",
"e. c #47B7DC",
"r. c #59B2DC",
"t. c #44AED0",
"y. c #64B4DC",
"u. c #47B6E5",
"i. c #56BDE9",
"p. c #64BCE3",
"a. c #7ABFE6",
"s. c #72C9C4",
"d. c #55C6F9",
"f. c #54C3F1",
"g. c #6EC7E9",
"h. c #74CAEC",
"j. c #79C5E9",
"k. c #67CEFB",
"l. c #7AD2F6",
"z. c #92AE97",
"x. c #A0ADB4",
"c. c #EDAC82",
"v. c #E4B0A0",
"b. c #FBE792",
"n. c #84BBD8",
"m. c #84BEE0",
"M. c #8AC4D1",
"N. c #BAE3D1",
"B. c #88C7E8",
"V. c #93CBEB",
"C. c #9BC9E6",
"Z. c #97D2ED",
"A. c #88DBF7",
"S. c #87D1EE",
"D. c #ACCFE6",
"F. c #A2CDE9",
"G. c #BDD9EC",
"H. c #B2D8EB",
"J. c #AADAF4",
"K. c #BCDEF1",
"L. c #ABD5EC",
"P. c #8DE6FF",
"I. c #93E2FD",
"U. c #93EBFF",
"Y. c #9DEBFF",
"T. c #9FE2FA",
"R. c #B6E2EC",
"E. c #BAE0EC",
"W. c #A3EDFE",
"Q. c #ACECFF",
"!. c #BAE9FA",
"~. c #ABF1FF",
"^. c #BAF4FF",
"/. c #C9CED2",
"(. c #C9D9D5",
"). c #DEDCCE",
"_. c #CBEBC6",
"`. c #F5ECCC",
"'. c #C1DCEF",
"]. c #C4DEF0",
"[. c #C4EDFB",
"{. c #C9E5F6",
"}. c #D1E5F3",
"|. c #D2EBF5",
" X c #DAE9F5",
".X c #D2EDFC",
"XX c #C4F2FE",
"oX c #CCF3FF",
"OX c #D2F5FF",
"+X c #DCF5FD",
"@X c #DCFAFF",
"#X c #D1E4E1",
"$X c #EFF7EF",
"%X c #E1ECF7",
"&X c #E4F5FD",
"*X c #E4FAFF",
"=X c #ECFAFE",
"-X c #EAF1F8",
";X c #F4FCFE",
":X c #FFFFFE",
">X c #F6F9F6",
",X c None",
/* pixels */
",X,X,X,X,X,X,X,X,X,X,X,X,X,X,X,X,X,X,X,X,X,X,X,X,X,X,X,X,X,X,X,X,X,X,X,X,X,X,X,X,X,X,X,X,X,X,X,X,X,X,X,X,X,X,X,X,X,X,X,X,X,X,X,X",
",X,X,X,X,X,X,X,X,X,X,X,X,X,X,X,X,X,X,X,X,X,X,X,X,X,X,X,X,X,X,X,X,X,X,X,X,X,X,X,X,X,X,X,X,X,X,X,X,X,X,X,X,X,X,X,X,X,X,X,X,X,X,X,X",
",X,X,X,X,X,X,X,X,X,X,X,X,X,X,X,X,X,X,X,X,X,X,X,X,X,X,X,X,X,X,X,X,X,X,X,X,X,X,X,X,X,X,X,X,X,X,X,X,X,X,X,X,X,X,X,X,X,X,X,X,X,X,X,X",
",X,X,X,X,X,X,X,X,X,X,X,X,X,X,X,X,X,X,X,X,X,X,X,X,X,X,X,X,X,X,X,X,X,X,X,X,X,X,X,X,X,X,X,X,X,X,X,X,X,X,X,X,X,X,X,X,X,X,X,X,X,X,X,X",
",X,X,X,X,X,X,X,X,X,X,X,X,X,X,X,X,X,X,X,X,X,X,X,X,X,X,X,X,X,X,X,X,X,X,X,X,X,X,X,X,X,X,X,X,X,X,X,X,X,X,X,X,X,X,X,X,X,X,X,X,X,X,X,X",
",X,X,X,X,X,X,X,X,X,X,X,X,X,X,X,X,X,X,X,X,X,X,X,X,X,X,X,X,X,X,X,X,X,X,X,X,X,X,X,X,X,X,X,X,X,X,X,X,X,X,X,X,X,X,X,X,X,X,X,X,X,X,X,X",
",X,X,X,X,X,X,X,X,X,X,X,X,X,X,X,X,X,X,X,X,X,X,X,X,X,X,X,X,X,X,X,X,X,X,X,X,X,X,X,X,X,X,X,X,X,X,X,X,X,X,X,X,X,X,X,X,X,X,X,X,X,X,X,X",
",X,X,X,X,X,X,X,X,X,X,X,X,X,X,X,X,X,X,X,X,X,X,X,X,X,X,X,X,X,X,X,X,X,X,X,X,X,X,X,X,X,X,X,X,X,X,X,X,X,X,X,X,X,X,X,X,X,X,X,X,X,X,X,X",
",X,X,X,X,X,X,X,X,X,X,X,X,X,X,X,X,X,X,X,X,X,X,X,X,X,X,X,X,X,X,X,X,X,X,X,X,X,X,X,X,X,X,X,X,X,X,X,X,X,X,X,X,X,X,X,X,X,X,X,X,X,X,X,X",
",X,X,X,X,X,X,X,X,X,X,X,X,X,X,X,X,X,X,X,X,X,X,X,X,X,X,X,X,X,X,X,X,X,X,X,X,X,X,X,X,X,X,X,X,X,X,X,X,X,X,X,X,X,X,X,X,X,X,X,X,X,X,X,X",
",X,X,X,X,X,X,X,X,X,X,X,X,X,X,X,X,X,X,X,X,X,X,X,X,X,X,X,X,X,X,X,X,X,X,X,X,X,X,X,X,X,X,X,X,X,X,X,X,X,X,X,X,X,X,X,X,X,X,X,X,X,X,X,X",
",X,X,X,X,X,X,X,X,X,X,X,X,X,X,X,X,X,X,X,X,X,X,X,X,X,X,X,X,X,X,X,X,X,X,X,X,X,X,X,X,X,X,X,X,X,X,X,X,X,X,X,X,X,X,X,X,X,X,X,X,X,X,X,X",
",X,X,X,X,X,X,X,X,X,X,X,X,X,X,X,X,X,X,X,X,X,X,X,X,X,X,X,X,X,X,X,X,X,X,X,X,X,X,X,X,X,X,X,X,X,X,X,X,X,X,X,X,X,X,X,X,X,X,X,X,X,X,X,X",
",X,X,X,X,X,X,X,X,X,X,X,X,X,X,X,X,X,X,X,X,X,X,X,X,X,X,X,X,X,X,X,X,X,X,X,X,X,X,X,X,X,X,X,X,X,X,X,X,X,X,X,X,X,X,X,X,X,X,X,X,X,X,X,X",
",X,X,X,X,X,X,X,X,X,X,X,X,X,X,X,X,X,X,X,X,X,X,X,X,X,X,X,X,X,X,X,X,X,X,X,X,X,X,X,X,X,X,X,X,X,X,X,X,X,X,X,X,X,X,X,X,X,X,X,X,X,X,X,X",
",X,X,X,X,X,X,X,X,X,X,X,X,X,X,X,X,X,X,X,X,X,X,X,X,X,X,X,X2.,X,X>.2.>.,X,X,X,X,X,X,X,X,X,X,X,X,X,X,X,X,X,X,X,X,X,X,X,X,X,X,X,X,X,X",
",X,X,X,X,X,X,X,X,X,X,X,X,X,X,X,X,X,X,X,X,X,X,X,X,X,X,Xw.d.,X,Xd.i.w.,X,X,X,X,X,X,X,X,X,X,X,X,X,X,X,X,X,X,X,X,X,X,X,X,X,X,X,X,X,X",
",X,X,X,X,X,X,X,X,X,X,X,X,X,X,X,X,X,X,X,X,X,X,X,X,X,X-.H.:X6.w.OX;X>X9.,X,X,X,X,X,X,X,X,X,X,X,X,X,X,X,X,X,X,X,X,X,X,X,X,X,X,X,X,X",
",X,X,X,X,X,X,X,X,X,X,X,X,X,X,X,X,X,X,X,X,X,X,X,X,Xy.F.|.;XG.K.OX&X=XK.C.,X,X,X,X,X,X,X,X,X,X,X,X,X,X,X,X,X,X,X,X,X,X,X,X,X,X,X,X",
",X,X,X,X,X,X,X,X,X,X,X,X,X,X,X,X,X,X,X,X,X,X,X,X>.k.:X;X^.:X;XoXoXoX:X|.0.,X,X,X,X,X,X,X,X,X,X,X,X,X,X,X,X,X,X,X,X,X,X,X,X,X,X,X",
",X,X,X,X,X,X,X,X,X,X,X,X,X,X,X,X,X,X,X,X,X,X,X,X,X,Xt.'.:Xb.O.+.#XY.a.r.,X,X,X,X,X,X,X,X,X,X,X,X,X,X,X,X,X,X,X,X,X,X,X,X,X,X,X,X",
",X,X,X,X,X,X,X,X,X,X,X,X,X,X,X,X,X,X,X,X,X,X,X,X,X,Xe.K.:XO.| ] (.P.i.5.,X,X,X,X,X,X,X,X,X,X,X,X,X,X,X,X,X,X,X,X,X,X,X,X,X,X,X,X",
",X,X,X,X,X,X,X,X,X,X,X,X,X,X,X,X,X,X,X,X,X,X,X,X2.f.OXOXoXX.] f /.U.Y.l.3.0.>.,X>.>.,X,X,X,X,X,X,X,X,X,X,X,X,X,X,X,X,X,X,X,X,X,X",
",X,X,X,X,X,X,X,X,X,X,X,X,X,X,X,X,X,X,X,X,X,X,X,X>.f.;X*XOX(././.[.^.=XL.:.J.Z.-.'.}.2.,X,X,X,X,X,X,X,X,X,X,X,X,X,X,X,X,X,X,X,X,X",
",X,X,X,X,X,X,X,X,X,X,X,X,X,X,X,X,X,X,X,X,X,X,X,X>.r.:X=XoXW.U.U.^.+X:XG.2.OX[.8.&X:Xd.5.,X,X,X,X,X,X,X,X,X,X,X,X,X,X,X,X,X,X,X,X",
",X,X,X,X,X,X,X,X,X,X,X,X,X,X,X,X,X,X,X,X,X,X,X,X,X,X9.{.:X^.A.-.%X:X2.Z.+XXX@X:X+XoX:X].3.,X,X,X,X,X,X,X,X,X,X,X,X,X,X,X,X,X,X,X",
",X,X,X,X,X,X,X,X,X,X,X,X,X,X,X,X,X,X,X,X,X,X,X,X,X,X:.C.|.S.h.f.N._.>.B.[.).`.`.>X*X|.F.>.,X,X,X,X,X,X,X,X,X,X,X,X,X,X,X,X,X,X,X",
",X,X,X,X,X,X,X,X,X,X,X,X,X,X,X,X,X,X,X,X,X,X,X,X,X,X,X,X8.2.r.^.=.C >.g.W.X.| | `.;X9.,X,X,X,X,X,X,X,X,X,X,X,X,X,X,X,X,X,X,X,X,X",
",X,X,X,X,X,X,X,X,X,X,X,X,X,X,X,X,X,X,X,X,X,X,X,X>.>.,X,X8.3.3.,Xt.e.A.I.T...' [ `.oX[.V.>.,X,X,X,X,X,X,X,X,X,X,X,X,X,X,X,X,X,X,X",
",X,X,X,X,X,X,X,X,X,X,X,X,X,X,X,X,X,X,X,X,X,X,X,Xn.B.,Xy.h.B.n.,X2.u.^.^.Q.v.c.+.#XoX=XJ.3.,X,X,X,X,X,X,X,X,X,X,X,X,X,X,X,X,X,X,X",
",X,X,X,X,X,X,X,X,X,X,X,X,X,X,X,X,X,X,X,X,X,X,X7. X:X<.V.@X:X&X,.2.y.:X;XXX~.Y.U.^.OX:X].3.,X,X,X,X,X,X,X,X,X,X,X,X,X,X,X,X,X,X,X",
",X,X,X,X,X,X,X,X,X,X,X,X,X,X,X,X,X,X,X,X,X>.m. X+X&X}..XoX*X+X Xa.4.C.{.:Xj.h.Y.&X;XJ.B.,X,X,X,X,X,X,X,X,X,X,X,X,X,X,X,X,X,X,X,X",
",X,X,X,X,X,X,X,X,X,X,X,X,X,X,X,X,X,X,X,X,X>.V.:X+XOX:X;X|.oXOX:XC.>.:.D.:Xw.w.I.&X;X>.,X,X,X,X,X,X,X,X,X,X,X,X,X,X,X,X,X,X,X,X,X",
",X,X,X,X,X,X,X,X,X,X,X,X,X,X,X,X,X,X,X,X,X,X,X,. X:Xo. .} R.A.3.,X,X,X,X0 Q.I.3.q.6.,X,X,X,X,X,X,X,X,X,X,X,X,X,X,X,X,X,X,X,X,X,X",
",X,X,X,X,X,X,X,X,X,X,X,X,X,X,X,X,X,X,X,X,X,Xp.V.|.>X| [ ] R.P.g.e.,X,X,X; s.s.#.1.,X,X,X,X,X,X,X,X,X,X,X,X,X,X,X,X,X,X,X,X,X,X,X",
",X,X,X,X,X,X,X,X,X,X,X,X,X,X,X,X,X,X,X,X,X>.l.@XoX|.{ ] ` J.Y.~.k.>.,X,X9 k g # ,X,X,X,X,X,X,X,X,X,X,X,X,X,X,X,X,X,X,X,X,X,X,X,X",
",X,X,X,X,X,X,X,X,X,X,X,X,X,X,X,X,X,X,X,X,X3.V.:X+XoXR.H.K.^..X:XV.,.,XX > ^ R % 5 * % ,X,X,X,X,X,X,X,X,X,X,X,X,X,X,X,X,X,X,X,X,X",
",X,X,X,X,X,X,X,X,X,X,X,X,X,X,X,X,X,X,X,X,X%.n.-X+XOXY.U.A..X&X-Xn.%.p w w I Y w i h h 1 ,X,X,X,X,X,X,X,X,X,X,X,X,X,X,X,X,X,X,X,X",
",X,X,X,X,X,X,X,X,X,X,X,X,X,X,X,X,X,X,X,X,X  d <. X:XQ.h.-.:X-X7.@., Q Q ! 4 e Q H G G n $ ,X,X,X,X,X,X,X,X,X,X,X,X,X,X,X,X,X,X,X",
",X,X,X,X,X,X,X,X,X,X,X,X,X,X,X,X,X,X,X,X5 m _ $.M.C.g.h.A.x.z.*.) Y ~ I y t y P v K _ B m p ,X,X,X,X,X,X,X,X,X,X,X,X,X,X,X,X,X,X",
",X,X,X,X,X,X,X,X,X,X,X,X,X,X,X,X,X,X,X3 6 A H j &.1.&.y.W.a < G K Q ^ l . y u w I E W B D i % ,X,X,X,X,X,X,X,X,X,X,X,X,X,X,X,X,X",
",X,X,X,X,X,X,X,X,X,X,X,X,X,X,X,X,X,X,X3 6 8 8 7 0 0 s a = F L W J A 6 ,X,X3 6 6 8 8 3 Y ~ q + ,X,X,X,X,X,X,X,X,X,X,X,X,X,X,X,X,X",
",X,X,X,X,X,X,X,X,X,X,X,X,X,X,X,X,X,X,X,X3 2 & 2 > > @ 1 b M B Y H A q 7 ,X3 : 3 2 3 o u Y 8 : ,X,X,X,X,X,X,X,X,X,X,X,X,X,X,X,X,X",
",X,X,X,X,X,X,X,X,X,X,X,X,X,X,X,X,X,X,X,X,X,X,X,X2 6 $ N D p t t M A l w 3 ,X,X,X,X,X,X,X: 3 3 ,X,X,X,X,X,X,X,X,X,X,X,X,X,X,X,X,X",
",X,X,X,X,X,X,X,X,X,X,X,X,X,X,X,X,X,X,X,X,X,X,X% m F T ^ ( e 8 5 Z S u q : ,X,X,X,X,X,X,X,X,X,X,X,X,X,X,X,X,X,X,X,X,X,X,X,X,X,X,X",
",X,X,X,X,X,X,X,X,X,X,X,X,X,X,X,X,X,X,X,X,X,X,X& V J T U U 7 > - n Z l r : ,X,X,X,X,X,X,X,X,X,X,X,X,X,X,X,X,X,X,X,X,X,X,X,X,X,X,X",
",X,X,X,X,X,X,X,X,X,X,X,X,X,X,X,X,X,X,X,X,X,X,X+ U Q : : 3 ,X,X,X% 7 ! Y O ,X,X,X,X,X,X,X,X,X,X,X,X,X,X,X,X,X,X,X,X,X,X,X,X,X,X,X",
",X,X,X,X,X,X,X,X,X,X,X,X,X,X,X,X,X,X,X,X,X,X,X3 e u ,X,X,X,X,X,X,X,Xu r : ,X,X,X,X,X,X,X,X,X,X,X,X,X,X,X,X,X,X,X,X,X,X,X,X,X,X,X",
",X,X,X,X,X,X,X,X,X,X,X,X,X,X,X,X,X,X,X,X,X,X,X3 + O ,X,X,X,X,X,X,X,XO : 3 ,X,X,X,X,X,X,X,X,X,X,X,X,X,X,X,X,X,X,X,X,X,X,X,X,X,X,X",
",X,X,X,X,X,X,X,X,X,X,X,X,X,X,X,X,X,X,X,X,X,X,X,X,X,X,X,X,X,X,X,X,X,X,X,X,X,X,X,X,X,X,X,X,X,X,X,X,X,X,X,X,X,X,X,X,X,X,X,X,X,X,X,X",
",X,X,X,X,X,X,X,X,X,X,X,X,X,X,X,X,X,X,X,X,X,X,X,X,X,X,X,X,X,X,X,X,X,X,X,X,X,X,X,X,X,X,X,X,X,X,X,X,X,X,X,X,X,X,X,X,X,X,X,X,X,X,X,X",
",X,X,X,X,X,X,X,X,X,X,X,X,X,X,X,X,X,X,X,X,X,X,X,X,X,X,X,X,X,X,X,X,X,X,X,X,X,X,X,X,X,X,X,X,X,X,X,X,X,X,X,X,X,X,X,X,X,X,X,X,X,X,X,X",
",X,X,X,X,X,X,X,X,X,X,X,X,X,X,X,X,X,X,X,X,X,X,X,X,X,X,X,X,X,X,X,X,X,X,X,X,X,X,X,X,X,X,X,X,X,X,X,X,X,X,X,X,X,X,X,X,X,X,X,X,X,X,X,X",
",X,X,X,X,X,X,X,X,X,X,X,X,X,X,X,X,X,X,X,X,X,X,X,X,X,X,X,X,X,X,X,X,X,X,X,X,X,X,X,X,X,X,X,X,X,X,X,X,X,X,X,X,X,X,X,X,X,X,X,X,X,X,X,X",
",X,X,X,X,X,X,X,X,X,X,X,X,X,X,X,X,X,X,X,X,X,X,X,X,X,X,X,X,X,X,X,X,X,X,X,X,X,X,X,X,X,X,X,X,X,X,X,X,X,X,X,X,X,X,X,X,X,X,X,X,X,X,X,X",
",X,X,X,X,X,X,X,X,X,X,X,X,X,X,X,X,X,X,X,X,X,X,X,X,X,X,X,X,X,X,X,X,X,X,X,X,X,X,X,X,X,X,X,X,X,X,X,X,X,X,X,X,X,X,X,X,X,X,X,X,X,X,X,X",
",X,X,X,X,X,X,X,X,X,X,X,X,X,X,X,X,X,X,X,X,X,X,X,X,X,X,X,X,X,X,X,X,X,X,X,X,X,X,X,X,X,X,X,X,X,X,X,X,X,X,X,X,X,X,X,X,X,X,X,X,X,X,X,X",
",X,X,X,X,X,X,X,X,X,X,X,X,X,X,X,X,X,X,X,X,X,X,X,X,X,X,X,X,X,X,X,X,X,X,X,X,X,X,X,X,X,X,X,X,X,X,X,X,X,X,X,X,X,X,X,X,X,X,X,X,X,X,X,X",
",X,X,X,X,X,X,X,X,X,X,X,X,X,X,X,X,X,X,X,X,X,X,X,X,X,X,X,X,X,X,X,X,X,X,X,X,X,X,X,X,X,X,X,X,X,X,X,X,X,X,X,X,X,X,X,X,X,X,X,X,X,X,X,X",
",X,X,X,X,X,X,X,X,X,X,X,X,X,X,X,X,X,X,X,X,X,X,X,X,X,X,X,X,X,X,X,X,X,X,X,X,X,X,X,X,X,X,X,X,X,X,X,X,X,X,X,X,X,X,X,X,X,X,X,X,X,X,X,X",
",X,X,X,X,X,X,X,X,X,X,X,X,X,X,X,X,X,X,X,X,X,X,X,X,X,X,X,X,X,X,X,X,X,X,X,X,X,X,X,X,X,X,X,X,X,X,X,X,X,X,X,X,X,X,X,X,X,X,X,X,X,X,X,X",
",X,X,X,X,X,X,X,X,X,X,X,X,X,X,X,X,X,X,X,X,X,X,X,X,X,X,X,X,X,X,X,X,X,X,X,X,X,X,X,X,X,X,X,X,X,X,X,X,X,X,X,X,X,X,X,X,X,X,X,X,X,X,X,X",
",X,X,X,X,X,X,X,X,X,X,X,X,X,X,X,X,X,X,X,X,X,X,X,X,X,X,X,X,X,X,X,X,X,X,X,X,X,X,X,X,X,X,X,X,X,X,X,X,X,X,X,X,X,X,X,X,X,X,X,X,X,X,X,X",
",X,X,X,X,X,X,X,X,X,X,X,X,X,X,X,X,X,X,X,X,X,X,X,X,X,X,X,X,X,X,X,X,X,X,X,X,X,X,X,X,X,X,X,X,X,X,X,X,X,X,X,X,X,X,X,X,X,X,X,X,X,X,X,X"
};
