/* XPM */
static char *result[] = {
/* columns rows colors chars-per-pixel */
"64 64 145 2 ",
"   c #000000",
".  c #0C0402",
"X  c #0F0802",
"o  c #0B0B09",
"O  c #130B05",
"+  c #190E06",
"@  c #120E08",
"#  c #180D0B",
"$  c #0C1900",
"%  c #1C1004",
"&  c #1D1309",
"*  c #161716",
"=  c #251404",
"-  c #251C02",
";  c #2C1C04",
":  c #22150C",
">  c #2D170A",
",  c #2A1A0E",
"<  c #331300",
"1  c #351D0F",
"2  c #241D13",
"3  c #2C1D11",
"4  c #331E12",
"5  c #33220E",
"6  c #3E290A",
"7  c #2C2115",
"8  c #352215",
"9  c #392516",
"0  c #3D2817",
"q  c #352619",
"w  c #3A2618",
"e  c #34291A",
"r  c #3D2A1B",
"t  c #292B2A",
"y  c #3D2C21",
"u  c #3F3221",
"i  c #2E3230",
"p  c #373634",
"a  c #373B3C",
"s  c #3B3E3D",
"d  c #4F2E00",
"f  c #462E0C",
"g  c #4C340F",
"h  c #5E3C00",
"j  c #50360F",
"k  c #54380F",
"l  c #5B3C0D",
"z  c #432D17",
"x  c #412D1C",
"c  c #473216",
"v  c #4B3215",
"b  c #45311E",
"n  c #4B331C",
"m  c #513714",
"M  c #553A15",
"N  c #5A3D14",
"B  c #513718",
"V  c #51391D",
"C  c #5A3E19",
"Z  c #603D00",
"A  c #463322",
"S  c #4A3522",
"D  c #4D3926",
"F  c #42352A",
"G  c #4E3C29",
"H  c #563E25",
"J  c #583F21",
"K  c #513D29",
"L  c #5E4115",
"P  c #5F421A",
"I  c #644102",
"U  c #62430F",
"Y  c #644514",
"T  c #684816",
"R  c #644519",
"E  c #67481A",
"W  c #6A4B1C",
"Q  c #4E422E",
"!  c #5D4322",
"~  c #56422D",
"^  c #5A442D",
"/  c #5B4730",
"(  c #554935",
")  c #5D4932",
"_  c #5A4F39",
"`  c #5D5432",
"'  c #624726",
"]  c #674B24",
"[  c #6C4E24",
"{  c #61462C",
"}  c #654A2D",
"|  c #684E2C",
" . c #6E5026",
".. c #6E532F",
"X. c #705127",
"o. c #614D35",
"O. c #694B30",
"+. c #665036",
"@. c #6C5333",
"#. c #665239",
"$. c #6A553B",
"%. c #6E593E",
"&. c #715333",
"*. c #725837",
"=. c #735B3D",
"-. c #795E3F",
";. c #3D4040",
":. c #515656",
">. c #5A5956",
",. c #5E5D5A",
"<. c #735C41",
"1. c #665F57",
"2. c #685D50",
"3. c #766045",
"4. c #7B6345",
"5. c #7D6648",
"6. c #7F684A",
"7. c #6C6358",
"8. c #716558",
"9. c #757E7E",
"0. c #815E3D",
"q. c #846443",
"w. c #8B6543",
"e. c #81694B",
"r. c #896A49",
"t. c #916B47",
"y. c #926E4A",
"u. c #95724E",
"i. c #A37A52",
"p. c #AC7D53",
"a. c #CD7E7B",
"s. c #AC8157",
"d. c #B18256",
"f. c #B2855A",
"g. c #BB8B5D",
"h. c #C29061",
"j. c #CA9462",
"k. c #D29A67",
"l. c #D59D69",
"z. c #CF807C",
"x. c #DCA26C",
"c. c #E2A770",
"v. c #828B8B",
"b. c #EB8C8F",
"n. c None",
/* pixels */
"n.n.n.n.n.n.n.n.n.n.n.n.n.n.n.n.n.n.n.n.n.n.n.n.n.n.n.n.n.n.n.n.n.n.n.n.n.n.n.n.n.n.n.n.n.n.n.n.n.n.n.n.n.n.n.n.n.n.n.n.n.n.n.n.",
"n.n.n.n.n.n.n.n.n.n.n.n.n.n.n.n.n.n.n.n.n.n.n.n.n.n.n.n.n.n.n.n.n.n.n.n.n.n.n.n.n.n.n.n.n.n.n.n.n.n.n.n.n.n.n.n.n.n.n.n.n.n.n.n.",
"n.n.n.n.n.n.n.n.n.n.n.n.n.n.n.n.n.n.n.n.n.n.n.n.n.n.n.n.n.n.n.n.n.n.n.n.n.n.n.n.n.n.n.n.n.n.n.n.n.n.n.n.n.n.n.n.n.n.n.n.n.n.n.n.",
"n.n.n.n.n.n.n.n.n.n.n.n.n.n.n.n.n.n.n.n.n.n.n.n.n.n.n.n.n.n.n.n.n.n.n.n.n.n.n.n.n.n.n.n.n.n.n.n.n.n.n.n.n.n.n.n.n.n.n.n.n.n.n.n.",
"n.n.n.n.n.n.n.n.n.n.n.n.n.n.n.n.n.n.n.n.n.n.n.n.n.n.n.n.n.n.n.n.n.n.n.n.n.n.n.n.n.n.n.n.n.n.n.n.n.n.n.n.n.n.n.n.n.n.n.n.n.n.n.n.",
"n.n.n.n.n.n.n.n.n.n.n.n.n.n.n.n.n.n.n.n.n.n.n.n.n.n.n.n.n.n.n.n.n.n.n.n.n.n.n.n.n.n.n.n.n.n.n.n.n.n.n.n.n.n.n.n.n.n.n.n.n.n.n.n.",
"n.n.n.n.n.n.n.n.n.n.n.n.n.n.n.n.n.n.n.n.n.n.n.n.n.n.n.n.n.n.n.n.n.n.n.n.n.n.n.n.n.n.n.n.n.n.n.n.n.n.n.n.n.n.n.n.n.n.n.n.n.n.n.n.",
"n.n.n.n.n.n.n.n.n.n.n.n.n.n.n.n.n.n.n.n.n.n.n.n.n.n.n.n.n.n.n.n.n.n.n.n.n.n.n.n.n.n.n.n.n.n.n.n.n.n.n.n.n.n.n.n.n.n.n.n.n.n.n.n.",
"n.n.n.n.n.n.n.n.n.n.n.n.n.n.n.n.n.n.n.n.n.n.n.n.n.n.n.n.n.n.n.n.n.n.n.n.n.n.n.n.n.n.n.n.n.n.n.n.n.n.n.n.n.n.n.n.n.n.n.n.n.n.n.n.",
"n.n.n.n.n.n.n.n.n.n.n.n.n.n.n.n.n.n.n.n.n.n.n.n.n.n.n.n.n.n.n.n.n.n.n.n.n.n.n.n.n.n.n.n.n.n.n.n.n.n.n.n.n.n.n.n.n.n.n.n.n.n.n.n.",
"n.n.n.n.n.n.n.n.n.n.n.n.n.n.n.n.n.n.n.n.n.n.n.n.n.n.n.n.n.n.n.n.n.n.n.n.n.n.n.n.n.n.n.n.n.n.n.n.n.n.n.n.n.n.n.n.n.n.n.n.n.n.n.n.",
"n.n.n.n.n.n.n.n.n.n.n.n.n.n.n.n.n.n.n.n.n.n.n.n.n.n.n.n.n.n.n.n.n.n.n.n.n.n.n.n.n.n.n.n.n.n.n.n.n.n.n.n.n.n.n.n.n.n.n.n.n.n.n.n.",
"n.n.n.n.n.n.n.n.n.n.n.n.n.n.n.n.n.n.n.n.n.n.n.n.n.n.n.n.n.n.n.n.n.n.n.n.n.n.n.n.n.n.n.n.n.n.n.n.n.n.n.n.n.n.n.n.n.n.n.n.n.n.n.n.",
"n.n.n.n.n.n.n.n.n.n.n.n.n.n.n.n.n.n.n.n.n.n.n.n.n.n.n.n.n.n.n.n.n.n.n.n.n.n.n.n.n.n.n.n.n.n.n.n.n.n.n.n.n.n.n.n.n.n.n.n.n.n.n.n.",
"n.n.n.n.n.n.n.n.n.n.n.n.n.n.n.n.n.n.n.n.n.n.n.n.n.n.n.n.n.n.n.n.n.n.n.n.n.n.n.n.n.n.n.n.n.n.n.n.n.n.n.n.n.n.n.n.n.n.n.n.n.n.n.n.",
"n.n.n.n.n.n.n.n.n.n.n.n.n.n.n.n.n.n.n.n.n.n.n.n.n.n.n.n.n.n.n.n.n.n.n.n.n.n.n.n.n.n.n.n.n.n.n.n.n.n.n.n.n.n.n.n.n.n.n.n.n.n.n.n.",
"n.n.n.n.n.n.n.n.n.n.n.n.n.n.n.n.n.n.n.n.n.n.n.n.n.n.n.n.n.n.n.n.n.n.n.n.n.n.n.n.n.n.n.n.n.n.n.n.n.n.n.n.n.n.n.n.n.n.n.n.n.n.n.n.",
"n.n.n.n.n.n.n.n.n.n.n.n.n.n.n.n.n.n.n.n.n.n.n.n.n.n.n.n.n.n.n.n.n.n.n.n.n.n.n.n.n.n.n.n.n.n.n.n.n.n.n.n.n.n.n.n.n.n.n.n.n.n.n.n.",
"n.n.n.n.n.n.n.n.n.n.n.n.n.n.n.n.n.n.n.n.n.n.n.n.n.n.n.n.n.n.n.n.n.n.n.n.n.n.n.n.n.n.n.n.n.n.n.n.n.n.n.n.n.n.n.n.n.n.n.n.n.n.n.n.",
"n.n.n.n.n.n.n.n.n.n.n.n.n.n.n.n.n.n.n.n.n.n.n.n.n.n.n.n.n.n.        n.n.n.n.n.n.n.n.n.n.n.n.n.n.n.n.n.n.n.n.n.n.n.n.n.n.n.n.n.n.",
"n.n.n.n.n.n.n.n.n.n.n.n.n.n.n.n.n.n.n.n.n.n.n.n.n.n.n.n.n.n.  . .     n.n.n.n.n.n.n.n.n.n.n.n.n.n.n.n.n.n.n.n.n.n.n.n.n.n.n.n.n.",
"n.n.n.n.n.n.n.n.n.n.n.n.n.n.n.n.n.n.n.n.n.n.n.n.n.n.n.n.n.n.          n.n.n.n.n.n.n.n.n.n.n.n.n.n.n.n.n.n.n.n.n.n.n.n.n.n.n.n.n.",
"n.n.n.n.n.n.n.n.n.n.n.n.n.n.n.n.n.n.n.n.n.n.n.n.n.n.n.n.n.O , ~ ) q :   n.n.n.n.n.n.n.n.n.n.n.n.n.n.n.n.n.n.n.n.n.n.n.n.n.n.n.n.",
"n.n.n.n.n.n.n.n.n.n.n.n.n.n.n.n.n.n.n.n.n.n.n.n.n.n.n.n.@ 3 z $.4.n 8 @ n.n.n.n.n.n.n.n.n.n.n.n.n.n.n.n.n.n.n.n.n.n.n.n.n.n.n.n.",
"n.n.n.n.n.n.n.n.n.n.n.n.n.n.n.n.n.n.n.n.n.n.n.n.n.n.n.  <.=.Y v r U ..5.q   n.n.n.n.n.n.n.n.n.n.n.n.n.n.n.n.n.n.n.n.n.n.n.n.n.n.",
"n.n.n.n.n.n.n.n.n.n.n.n.n.n.n.n.n.n.n.n.n.n.n.n.n.n.n.  / o.N ~ / N ^ _ 8 n.n.n.n.n.n.n.n.n.n.n.n.n.n.n.n.n.n.n.n.n.n.n.n.n.n.n.",
"n.n.n.n.n.n.n.n.n.n.n.n.n.n.n.n.n.n.n.n.n.n.n.n.n.n.n.n.    4 $.4.x :   n.n.n.n.n.n.n.n.n.n.n.n.n.n.n.n.n.n.n.n.n.n.n.n.n.n.n.n.",
"n.n.n.n.n.n.n.n.n.n.n.n.n.n.n.n.n.n.n.n.n.n.n.n.n.      q w . A D % 3 r       n.n.n.n.n.n.n.n.n.n.n.n.n.n.n.n.n.n.n.n.n.n.n.n.n.",
"n.n.n.n.n.n.n.n.n.n.n.n.n.n.n.n.n.n.n.n.n.n.n.n.n.} O.O.b 3   , 8   : w { O.&.H n.n.n.n.n.n.n.n.n.n.n.n.n.n.n.n.n.n.n.n.n.n.n.n.",
"n.n.n.n.n.n.n.n.n.n.n.n.n.n.n.n.n.n.n.n.n.n.n.  n l.x.x.{   X           j.x.x.w.  n.n.n.n.n.n.n.n.n.n.n.n.n.n.n.n.n.n.n.n.n.n.n.",
"n.n.n.n.n.n.n.n.n.n.n.n.n.n.n.n.n.n.n.n.n.n.n.  x l.h.i.D   8 8 8 8 :   y.f.x.q.  n.n.n.n.n.n.n.n.n.n.n.n.n.n.n.n.n.n.n.n.n.n.n.",
"n.n.n.n.n.n.n.n.n.n.n.n.n.n.n.n.n.n.n.n.n.n.n.  r k.s._ e O x x r x 8 . ( r.l.0.  n.n.n.n.n.n.n.n.n.n.n.n.n.n.n.n.n.n.n.n.n.n.n.",
"n.n.n.n.n.n.n.n.n.n.n.n.n.n.n.n.n.n.n.n.n.n.    X 8 x S r r x r r r x r S b 8 :     n.n.n.n.n.n.n.n.n.n.n.n.n.n.n.n.n.n.n.n.n.n.",
"n.n.n.n.n.n.n.n.n.n.n.n.n.n.n.n.n.n.n.n.n.O 3 O   X 3 x x x r x r x x x x 8 O .   , : n.n.n.n.n.n.n.n.n.n.n.n.n.n.n.n.n.n.n.n.n.",
"n.n.n.n.n.n.n.n.n.n.n.n.n.n.n.n.n.n.n.n.  : S &   x x 9 , 3 r r r x 9 : 8 r A :   b 8   n.n.n.n.n.n.n.n.n.n.n.n.n.n.n.n.n.n.n.n.",
"n.n.n.n.n.n.n.n.n.n.n.n.n.n.n.n.n.n.n.n.      v R 4 / =.g.d.: x b . w.j.q.o.8 M N %     n.n.n.n.n.n.n.n.n.n.n.n.n.n.n.n.n.n.n.n.",
"n.n.n.n.n.n.n.n.n.n.n.n.n.n.n.n.n.n.n.n.; ;   m R D ) $.g.d.S D S u y.j.q._ G ! P & = 5 n.n.n.n.n.n.n.n.n.n.n.n.n.n.n.n.n.n.n.n.",
"n.n.n.n.n.n.n.n.n.n.n.n.n.n.n.n.n.n.n.  R R q w x 4.)     2 3.u   <.Q     y 5.~ 9 8 B W -   n.n.n.n.n.n.n.n.n.n.n.n.n.n.n.n.n.n.",
"n.n.n.n.n.n.n.n.n.n.n.n.n.n.n.n.n.  : 8 v J $.D x 4.)     ^ g.d.p.g.w.    r 4.^ 0 #.{ v w 3   n.n.n.n.n.n.n.n.n.n.n.n.n.n.n.n.n.",
"n.n.n.n.n.n.n.n.n.n.n.n.n.n.n.n.n.  , A w K 5.~ r 3.) #   *.x.k.k.x.i.  & u 4.~ r 4.#.w x w   n.n.n.n.n.n.n.n.n.n.n.n.n.n.n.n.n.",
"n.n.n.n.n.n.n.n.n.n.n.n.n.n.n.n.n.n.n.  %.=.T B r x / <.<.u.c.q.8 x.g.$.4.$.x x x Y &.4.7   n.n.n.n.n.n.n.n.n.n.n.n.n.n.n.n.n.n.",
"n.n.n.n.n.n.n.n.n.n.n.n.n.n.n.n.n.n.u Q $.@.N n x 8 / 6.o.-.d.{   p.t._ <.%.9 x x M ' =.~ A n.n.n.n.n.n.n.n.n.n.n.n.n.n.n.n.n.n.",
"n.n.n.n.n.n.n.n.n.n.n.n.n.n.n.n.n.  ~ e.W l r r x 9 / 4.A .           4 <.%.w x x r B I 4.%.  n.n.n.n.n.n.n.n.n.n.n.n.n.n.n.n.n.",
"n.n.n.n.n.n.n.n.n.n.n.n.n.n.n.n.n.  c  .H r   8 x w S G $.<.+.a.b.<.%.<.^ S r r r   5 S ] '   n.n.n.n.n.n.n.n.n.n.n.n.n.n.n.n.n.",
"n.n.n.n.n.n.n.n.n.n.n.n.n.n.n.n.n.  6 Y 0 e e w x x x 9 $.<.` a.b.<.%.<.S 4 x x r q q w N m   n.n.n.n.n.n.n.n.n.n.n.n.n.n.n.n.n.",
"n.n.n.n.n.n.n.n.n.n.n.n.n.n.n.n.n.  3 A   e e.~ > x r x r w w - $ w 9 9 x x r 8 r 6.)   r w   n.n.n.n.n.n.n.n.n.n.n.n.n.n.n.n.n.",
"n.n.n.n.n.n.n.n.n.n.n.n.n.n.n.n.n.n.& : / o.~ o.o.C n r x x r x x x x x r x N } #.^ / _ q % n.n.n.n.n.n.n.n.n.n.n.n.n.n.n.n.n.n.",
"n.n.n.n.n.n.n.n.n.n.n.n.n.n.n.n.n.n.n.  <.=.> #.4.E N w r x x x x x x x r n T *.3.9 / q.e   n.n.n.n.n.n.n.n.n.n.n.n.n.n.n.n.n.n.",
"n.n.n.n.n.n.n.n.n.n.n.n.n.n.n.n.n.  ~ 5.b D 4...Y 0 r r x w 9 r r 9 9 x r x 8 N W 4.o.> <.%.  n.n.n.n.n.n.n.n.n.n.n.n.n.n.n.n.n.",
"n.n.n.n.n.n.n.n.n.n.n.n.n.n.n.n.n.  A $.^ / *.' M ^ K r r A / S x ^ K z r A / J C *.@.~ #.)   n.n.n.n.n.n.n.n.n.n.n.n.n.n.n.n.n.",
"n.n.n.n.n.n.n.n.n.n.n.n.n.n.n.n.n.  : 8 3.-.I v x 5.#.4 r K 6.~ x 4.+.w 9 K e.^ 9 h ..5.S ,   n.n.n.n.n.n.n.n.n.n.n.n.n.n.n.n.n.",
"n.n.n.n.n.n.n.n.n.n.n.n.n.n.n.n.n.  O : u ~ 4.~ w S ) =.7 5 X.V x [ V   #.#.D x x 4.#.b 7 O   n.n.n.n.n.n.n.n.n.n.n.n.n.n.n.n.n.",
"n.n.n.n.n.n.n.n.n.n.n.n.n.n.n.n.n.      x ~ <.~ c 4 ^ 5.q ; L c r N f   <.%.4 x n %.o.S &     n.n.n.n.n.n.n.n.n.n.n.n.n.n.n.n.n.",
"n.n.n.n.n.n.n.n.n.n.n.n.n.n.n.n.n.n.n.  <.<.4 C E 9 ) 5.D 8   8 x   , x <.=.q C E 8 ) e.q   n.n.n.n.n.n.n.n.n.n.n.n.n.n.n.n.n.n.",
"n.n.n.n.n.n.n.n.n.n.n.n.n.n.n.n.n.n.n.n.G D # N E w H &.n 8   & ,   , r | } q C Y : r ~ 7 n.n.n.n.n.n.n.n.n.n.n.n.n.n.n.n.n.n.n.",
"n.n.n.n.n.n.n.n.n.n.n.n.n.n.n.n.n.n.n.n.      g R y V R c q         3 x P P y C Y       n.n.n.n.n.n.n.n.n.n.n.n.n.n.n.n.n.n.n.n.",
"n.n.n.n.n.n.n.n.n.n.n.n.n.n.n.n.n.n.n.n.n.n.  X + < d I n q   n.n.  3 x Z h < = O   . n.n.n.n.n.n.n.n.n.n.n.n.n.n.n.n.n.n.n.n.n.",
"n.n.n.n.n.n.n.n.n.n.n.n.n.n.n.n.n.n.n.n.n.n..   * >.7.8.F =   n.n.  : 4 2.7.,.p   o n.n.n.n.n.n.n.n.n.n.n.n.n.n.n.n.n.n.n.n.n.n.",
"n.n.n.n.n.n.n.n.n.n.n.n.n.n.n.n.n.n.n.n.n.n.n.  t v.v.v.a   n.n.n.n.n.  9.v.v.:.  n.n.n.n.n.n.n.n.n.n.n.n.n.n.n.n.n.n.n.n.n.n.n.",
"n.n.n.n.n.n.n.n.n.n.n.n.n.n.n.n.n.n.n.n.n.n.n.n.n.p s s n.n.n.n.n.n.n.n.a s s p n.n.n.n.n.n.n.n.n.n.n.n.n.n.n.n.n.n.n.n.n.n.n.n.",
"n.n.n.n.n.n.n.n.n.n.n.n.n.n.n.n.n.n.n.n.n.n.n.n.n.      n.n.n.n.n.n.n.n.      n.n.n.n.n.n.n.n.n.n.n.n.n.n.n.n.n.n.n.n.n.n.n.n.n.",
"n.n.n.n.n.n.n.n.n.n.n.n.n.n.n.n.n.n.n.n.n.n.n.n.n.n.n.n.n.n.n.n.n.n.n.n.n.n.n.n.n.n.n.n.n.n.n.n.n.n.n.n.n.n.n.n.n.n.n.n.n.n.n.n.",
"n.n.n.n.n.n.n.n.n.n.n.n.n.n.n.n.n.n.n.n.n.n.n.n.n.n.n.n.n.n.n.n.n.n.n.n.n.n.n.n.n.n.n.n.n.n.n.n.n.n.n.n.n.n.n.n.n.n.n.n.n.n.n.n.",
"n.n.n.n.n.n.n.n.n.n.n.n.n.n.n.n.n.n.n.n.n.n.n.n.n.n.n.n.n.n.n.n.n.n.n.n.n.n.n.n.n.n.n.n.n.n.n.n.n.n.n.n.n.n.n.n.n.n.n.n.n.n.n.n."
};
