/* XPM */
static char *result[] = {
/* columns rows colors chars-per-pixel */
"64 64 194 2 ",
"   c #0C0506",
".  c #131615",
"X  c #151817",
"o  c #181B16",
"O  c #1D191A",
"+  c #1A1718",
"@  c #221D1E",
"#  c #3B0E18",
"$  c #152B16",
"%  c #1B291C",
"&  c #0A361B",
"*  c #16351C",
"=  c #19311D",
"-  c #18381C",
";  c #0C2E14",
":  c #241F22",
">  c #262123",
",  c #292225",
"<  c #2D2A2C",
"1  c #28292A",
"2  c #302C2E",
"3  c #312E30",
"4  c #490B1A",
"5  c #492023",
"6  c #532226",
"7  c #19421F",
"8  c #1A4B23",
"9  c #184721",
"0  c #1A5828",
"q  c #09502A",
"w  c #0C6F3C",
"e  c #0A773E",
"r  c #1D7B36",
"t  c #1D7C38",
"y  c #16763A",
"u  c #1E662E",
"i  c #236E32",
"p  c #267636",
"a  c #267937",
"s  c #297638",
"d  c #247D39",
"f  c #287B39",
"g  c #297637",
"h  c #22662E",
"j  c #5F4D33",
"k  c #565331",
"l  c #7A4C37",
"z  c #6E5237",
"x  c #705438",
"c  c #4B4B4B",
"v  c #454646",
"b  c #545354",
"n  c #5C5C5C",
"m  c #646363",
"M  c #6E6E6E",
"N  c #7A666A",
"B  c #746568",
"V  c #716F71",
"C  c #7C6F71",
"Z  c #747374",
"A  c #7B7576",
"S  c #7C7B7C",
"D  c #797779",
"F  c #A20F2B",
"G  c #AC102F",
"H  c #B5253C",
"J  c #AB3439",
"K  c #FF0036",
"L  c #FF013C",
"P  c #FD0C3C",
"I  c #FC113A",
"U  c #824A3A",
"Y  c #B22C46",
"T  c #FF0642",
"R  c #FF0C43",
"E  c #FF0D49",
"W  c #FF1344",
"Q  c #FF144B",
"!  c #FF1A4C",
"~  c #FB1846",
"^  c #FF1F54",
"/  c #D33158",
"(  c #E2234E",
")  c #FF234E",
"_  c #EA2D54",
"`  c #FF2353",
"'  c #FF2C52",
"]  c #FF2F58",
"[  c #FF2758",
"{  c #FF3256",
"}  c #FF345B",
"|  c #FF3C5C",
" . c #FB3B55",
".. c #E4365F",
"X. c #E93B64",
"o. c #E73962",
"O. c #FF3462",
"+. c #FF3B63",
"@. c #B14C5D",
"#. c #836E72",
"$. c #847B7C",
"%. c #AF6C67",
"&. c #C54754",
"*. c #D7495A",
"=. c #FF425F",
"-. c #DE476B",
";. c #DE4E70",
":. c #E24B6E",
">. c #FE4363",
",. c #FF4B64",
"<. c #FF446C",
"1. c #FF4A6D",
"2. c #FF546B",
"3. c #FF5769",
"4. c #FC4A73",
"5. c #FB4770",
"6. c #FF5475",
"7. c #FF5C76",
"8. c #FF577B",
"9. c #FF5B7A",
"0. c #EA5273",
"q. c #FF6175",
"w. c #FF6D76",
"e. c #FF627B",
"r. c #FF6B79",
"t. c #FF757D",
"y. c #29813B",
"u. c #807F80",
"i. c #937F82",
"p. c #FF6F88",
"a. c #FD6C85",
"s. c #FF7D84",
"d. c #FF748B",
"f. c #FF7A8E",
"g. c #FF7D92",
"h. c #FF7691",
"j. c #7C8584",
"k. c #858384",
"l. c #888586",
"z. c #8C8C8D",
"x. c #848A8A",
"c. c #8D8F90",
"v. c #918F90",
"b. c #8C9492",
"n. c #939294",
"m. c #909A97",
"M. c #959D9B",
"N. c #999B9B",
"B. c #989597",
"V. c #9B898C",
"C. c #B09C9B",
"Z. c #9BA3A0",
"A. c #A2A2A2",
"S. c #A7A7A9",
"D. c #ABAEAD",
"F. c #A8AAAA",
"G. c #B6A2A1",
"H. c #BCA9A7",
"J. c #ACB0AF",
"K. c #AFAFB0",
"L. c #ACB1B1",
"P. c #A7B5B2",
"I. c #B1B2B2",
"U. c #FF8386",
"Y. c #FF8389",
"T. c #FF8B8C",
"R. c #FF8293",
"E. c #FF8C9C",
"W. c #FF8E90",
"Q. c #FF9594",
"!. c #FF9A97",
"~. c #FF939F",
"^. c #FF9C99",
"/. c #FFA29D",
"(. c #FF94A2",
"). c #FF9BA6",
"_. c #FF9EA8",
"`. c #C4B0AF",
"'. c #CCB9B7",
"]. c #C9B8B6",
"[. c #FFA3AC",
"{. c #FFABB1",
"}. c #FFB0B4",
"|. c #C1BFC0",
" X c #BFC0C1",
".X c #CCCBCC",
"XX c #C7C7C7",
"oX c #D9C9C8",
"OX c #CBD0CF",
"+X c #DED0CE",
"@X c #D0CFD0",
"#X c #CAD1D0",
"$X c #E1CDCC",
"%X c None",
/* pixels */
"%X%X%X%X%X%X%X%X%X%X%X%X%X%X%X%X%X%X%X%X%X%X%X%X%X%X%X%X%X%X%X%X%X%X%X%X%X%X%X%X%X%X%X%X%X%X%X%X%X%X%X%X%X%X%X%X%X%X%X%X%X%X%X%X",
"%X%X%X%X%X%X%X%X%X%X%X%X%X%X%X%X%X%X%X%X%X%X%X%X%X%X%X%X%X%X%X%X%X%X%X%X%X%X%X%X%X%X%X%X%X%X%X%X%X%X%X%X%X%X%X%X%X%X%X%X%X%X%X%X",
"%X%X%X%X%X%X%X%X%X%X%X%X%X%X%X%X%X%X%X%X%X%X%X%X%X%X%X%X%X%X%X%X%X%X%X%X%X%X%X%X%X%X%X%X%X%X%X%X%X%X%X%X%X%X%X%X%X%X%X%X%X%X%X%X",
"%X%X%X%X%X%X%X%X%X%X%X%X%X%X%X%X%X%X%X%X%X%X%X%X%X%X%X%X%X%X%X%X%X%X%X%X%X%X%X%X%X%X%X%X%X%X%X%X%X%X%X%X%X%X%X%X%X%X%X%X%X%X%X%X",
"%X%X%X%X%X%X%X%X%X%X%X%X%X%X%X%X%X%X%X%X%X%X%X%X%X%X%X%X%X%X%X%X%X%X%X%X%X%X%X%X%X%X%X%X%X%X%X%X%X%X%X%X%X%X%X%X%X%X%X%X%X%X%X%X",
"%X%X%X%X%X%X%X%X%X%X%X%X%X%X%X%X%X%X%X%X%X%X%X%X%X%X%X%X%X%X%X%X%X%X%X%X%X%X%X%X%X%X%X%X%X%X%X%X%X%X%X%X%X%X%X%X%X%X%X%X%X%X%X%X",
"%X%X%X%X%X%X%X%X%X%X%X%X%X%X%X%X%X%X%X%X%X%X%X%X%X%X%X%X%X%X%X%X%X%X%X%X%X%X%X%X%X%X%X%X%X%X%X%X%X%X%X%X%X%X%X%X%X%X%X%X%X%X%X%X",
"%X%X%X%X%X%X%X%X%X%X%X%X%X%X%X%X%X%X%X%X%X%X%X%X%X%X%X%X%X%X%X%X%X%X%X%X%X%X%X%X%X%X%X%X%X%X%X%X%X%X%X%X%X%X%X%X%X%X%X%X%X%X%X%X",
"%X%X%X%X%X%X%X%X%X%X%X%X%X%X%X%X%X%X%X%X%X%X%X%X%X%X%X%X%X%X%X%X%X%X%X%X%X%X%X%X%X%X%X%X%X%X%X%X%X%X%X%X%X%X%X%X%X%X%X%X%X%X%X%X",
"%X%X%X%X%X%X%X%X%X%X%X%X%X%X%X%X%X%X%X%X%X%X%X%X%X%X%X%X%X%X%X%X%X%X%X%X%X%X%X%X%X%X%X%X%X%X%X%X%X%X%X%X%X%X%X%X%X%X%X%X%X%X%X%X",
"%X%X%X%X%X%X%X%X%X%X%X%X%X%X%X%X%X%X%X%X%X%X%X%X%X%X%X%X%X%X%X%X%X%X%X%X%X%X%X%X%X%X%X%X%X%X%X%X%X%X%X%X%X%X%X%X%X%X%X%X%X%X%X%X",
"%X%X%X%X%X%X%X%X%X%X%X%X%X%X%X%X%X%X%X%X%X%X%X%X%X%X%X%X%X%X%X%X%X%X%X%X%X%X%X%X%X%X%X%X%X%X%X%X%X%X%X%XW E Q Q Q %X%X%X%X%X%X%X",
"%X%X%X%X%X%X%X%X%X%X%X%X%X%X%X%X%X%X%X%X%X%X%X%X%X%X%X%X%X%X%X%X%X%X%X%X%X%X%X%X%X%X%X%X%X%X%X%X%X%X%X%XW R._.(.{.1.%X%X%X%X%X%X",
"%X%X%X%X%X%X%X%X%X%X%X%X%X%X%X%X%X%X%X%X%X%X%X%X%X%X%X%X%X%X%X%X%X%X%X%X%X%X%X%X%X%X%X%X%X%X%X%X%X%X%X%XR E.+.Q ~.{.} %X%X%X%X%X",
"%X%X%X%X%X%X%X%X%X%X%X%X%X%X%X%X%X%X%X%X%X%X%X%X%X%X%X%X%X%X%X%X%X%X%X%X%X%X%X%X%X%X%X%X%X%X%X%X%X%X%X%X{ (.} %X~ E.O.%X%X%X%X%X",
"%X%X%X%X%X%X%X%X%X%X%X%X%X%X%X%X%X%X%X%X%X%X%X%X%X%X%X%X%X%X%X%X%X%X%X%X%X%X%X%X%X%X%X%X%X%X%X%X%X%X%X] g.{.{ %XP E.O.%X%X%X%X%X",
"%X%X%X%X%X%X%X%X%X%X%X%X%X%X%X%X%X%X%X%X%X%X%X%X%X%X%X%X%X%X%X%X%X%X%X%X%X%X%X%X%X%X%X%X%X%X%X%X%X%X{ (.+.E.] %X` (.O.%X%X%X%X%X",
"%X%X%X%X%X%X%X%X%XQ ^ ^ ` %X%X%X%X%X%X%X%X%X%X%X%X%X%X%X%X%X%X%X%X%X%X%X%X%X%X%X%X%X%X%X%X%X%X%X%X` g.} T E.<.` _.[.{ %X%X%X%X%X",
"%X%X%X%X%X%X%X%X%X4.{.[.g.I  .} ] ] ] ] ] ] { ] ] ] ] ] ] ] ] { { ] ] ] ] ] O.%X%X%X%X%X%X%X%X%X .g.>.%XW d.).(._.>.%X%X%X%X%X%X",
"%X%X%X%X%X%X%X%X%X8.p.} e.W 9.~.E.E.E.E.E.E.E.E.E.E.E.E.E.E.E.E.E.E.E.E.E.E.E.6.%X%X%X%X%X%X%X{ h.+.%X%XW T T T T %X%X%X%X%X%X%X",
"%X%X%X%X%X%X%X%X%X8.R.P Q 7.a._ ( ( ( ( ( ( ( ( ( ( ( ( ( ( ( ( ( ( ( ( ( ( _ d.9.%X%X%X%X%X| d.,.%X%X%X%X%X%X%X%X%X%X%X%X%X%X%X",
"%X%X%X%X%X%X%X%X%X8.%X%X<.d.:.m.V Z Z Z Z Z Z Z Z Z Z Z Z Z Z Z Z Z Z Z Z V M.X.g.O.%X%X%X` E.<.%X%X%X%X%X%X%X%X%X%X%X%X%X%X%X%X",
"%X%X%X%X%X%X%X%X%X8.%X%X<.d.:.M.S j.u.u.u.u.k.S u.u.u.u.u.u.u.u.S k.u.u.u.u.Z.X.g.+.%X%X{ g.>.%X%X%X%X%X%X%X%X%X%X%X%X%X%X%X%X%X",
"%X%X%X%X%X%X%X%X%X8.%X%X<.p.-.P.A.A.A.A.A.A.A.A.A.A.A.A.A.A.A.A.A.A.A.A.A.A.D.X.g.O.%X{ g.+.%X%X%X%X%X%X%X%X%X%X%X%X%X%X%X%X%X%X",
"%X%X%X%X%X%X%X%X%X8.%X%X5.p.:.m.Z Z Z Z Z S S Z A Z Z Z Z Z Z S S Z Z Z Z Z Z.X.h.] ` g.1.%X%X%X%X%X%X%X%X%X%X%X%X%X%X%X%X%X%X%X",
"%X%X%X%X%X%X%X%X%X8.%X%X1.a.:.m.V Z Z Z Z z.N.V Z Z Z Z Z Z Z B.n.Z Z Z Z Z N.X.h.a.a.+.%X%X%X%X%X%X%X%X%X%X%X%X%X%X%X%X%X%X%X%X",
"%X%X%X%X%X%X%X%X%X9.%X%X1.d.-.b.V Z Z Z V z.v.Z Z Z Z Z V A V z.z.V Z Z Z V m.o.g.}.2.%X%X%X%X%X%X%X%X%X%X%X%X%X%X%X%X%X%X%X%X%X",
"%X%X%X%X%X%X%X%X%X<.R.%X1.d./ j.k.l.u.l.S D k.D S u.l.u.S u.l.u.D u.l.S S u.l./ g.+.%X%X%X%X%X%X%X%X%X%X%X%X%X%X%X%X%X%X%X%X%X%X",
"%X%X%X%X%X%X%X%X%X^ +.| 8.6.:.L.|..XD..XA.l.I.n.v.I.XXS.v.K..XS.z.K..XB.N.K.OX4.g.O.%X%X%X%X%X%X%X%X%X%X%X%X%X%X%X%X%X%X%X%X%X%X",
"%X%X%X%X%X%X%X%X%X6.{._.R.K ;.P. X.XF.XXA.l.I.c.c.L.XXS.z.K.@XS.z.K.@Xn.B.L.#X4.g.O.%X%X%X%X%X%X%X%X%X%X%X%X%X%X%X%X%X%X%X%X%X%X",
"%X%X%X%X%X%X%X%X%X2.4.[ 6.K 0.|.oXoX].oX`.C.'.G.G.'.oX].G.'.$X].G.'.+XH.H.].+X5.R.O.%X%X%X%X%X%X%X%X%X%X%X%X%X%X%X%X%X%X%X%X%X%X",
"%X%X%X%X%X%X%X%X%X%XL L R W O.f.d.p.d.d.d.d.d.f.d.d.d.d.d.d.d.d.f.d.d.d.d.d.h.[ 6.` %X%X%X%X%X%X%X%X%X%X%X%X%X%X%X%X%X%X%X%X%X%X",
"%X%X%X%X%X%X%X%X%X%X%X%X) | L L L W R R W T L L W L K L L W L K T W R R W L L L R T %X%X%X%X%X%X%X%X%X%X%X%X%X%X%X%X%X%X%X%X%X%X",
"%X%X%X%X%X%X%X%X%X%X%X%X) } W ` ) ,.w.w.3.' W | w.| W W >.w.| W ' 3.w.w.,.' ! T | ! %X%X%X%X%X%X%X%X%X%X%X%X%X%X%X%X%X%X%X%X%X%X",
"%X%X%X%X%X%X%X%X%X%X%Xx ) { >.T.,.| Y.T.| | w.U.^.s.w.w.U.^.s.w.| >.T.s.' >.t.) | ~ H %X%X%X%X%X%X%X%X%X%X%X%X%X%X%X%X%X%X%X%X%X",
"%X%X%X%X%X%X%X%X%X%Xy.x ! ' >.^.T.,.| >.>.Y.^.Q.Q.Q.!.Q.Q.Q.Q.!.T.| ,.} 3.T.^.{ | Q U %X%X%X%X%X%X%X%X%X%X%X%X%X%X%X%X%X%X%X%X%X",
"%X%X%X%X%X%X%X%X%Xy r z ] 1.+.^.^.t.) ) r./.Q.Q.Q.Q.Q.Q.Q.Q.Q.Q.^.q.! ' U.^.!.{ | Q l y %X%X%X%X%X%X%X%X%X%X%X%X%X%X%X%X%X%X%X%X",
"%X%X%X%X%X%X%X%X%Xp p z 4.h.>./.Q.>.| =.| s.^.!.Q.Q.Q.Q.Q.Q.!.^.U.} ,.{ 1.T./.} | Q U y %X%X%X%X%X%X%X%X%X%X%X%X%X%X%X%X%X%X%X%X",
"%X%X%X%X%X%X%X%X%Xw r k Y @.Y %.*.=.T.T.=.| r.Y.^.!.^.^.!.^.s.r.=.,.Q.U.{ *.%.H H G j d %X%X%X%Xa p %X%X%X%X%X%X%X%X%X%X%X%X%X%X",
"%X%X%X%X%X%X%X%X%Xy u * + . . . 5 &.e.q.1.! L ] 7.7.7.7.7.7.^ K Q 2.7.7.@.6 . X o o * i %X%Xp y.f a %X%X%X%X%X%X%X%X%X%X%X%X%X%X",
"%X%X%X%X%X%X%X%X%Xh = : v m m b 1 4 F J J J J J J J J J J J J J J J J F # 1 b m m v > - p f p %Xp f %X%X%X%X%X%X%X%X%X%X%X%X%X%X",
"%X%X%X%X%X%X%X%X%X9 @ c A $.C u.b 1 & e y.r y y.r r r r r r r r r r r ; < b k.N k.Z c + 7 %X%X%X%X%X%X%X%X%X%X%X%X%X%X%X%X%X%X%X",
"%X%X%X%X%X%X%X%X%X8 @ n l.N N $.D , & y p p a a p p p p p p p p p p a $ 1 V #.N N l.m + %X%X%X%X%X%X%X%X%X%X%X%X%X%X%X%X%X%X%X%X",
"%X%X%X%X%X%X%X%X%X8 O n A #.i.B D > * f p p p a p p p p p p p p p a f $ 1 M B V.N $.m + %X%X%X%X%X%X%X%X%X%X%X%X%X%X%X%X%X%X%X%X",
"%X%X%X%X%X%X%X%X%X8 @ c u.A N x.n : * f p p p p p p p p p p p p p p a $ < n z.B $.S b + %X%X%X%X%X%X%X%X%X%X%X%X%X%X%X%X%X%X%X%X",
"%X%X%X%X%X%X%X%X%Xq = , c M M b 3 % 0 g p p p p p p p p p p p p p p a 8 % < n M M v < + %X%X%X%X%X%X%X%X%X%X%X%X%X%X%X%X%X%X%X%X",
"%X%X%X%X%X%X%X%X%X%Xq - > @ @ @ > 0 d e a f f f f f f a f f f f f f f y.8 % > @ @ > $ %X%X%X%X%X%X%X%X%X%X%X%X%X%X%X%X%X%X%X%X%X",
"%X%X%X%X%X%X%X%X%X%X%X0         * y w y g p p p p p p p p p p p p p p p y.-         %X%X%X%X%X%X%X%X%X%X%X%X%X%X%X%X%X%X%X%X%X%X",
"%X%X%X%X%X%X%X%X%X%X%X%X%X%X%X%X%X%X%X%X%X%X%X%X%X%X%X%X%X%X%X%X%X%X%X%X%X%X%X%X%X%X%X%X%X%X%X%X%X%X%X%X%X%X%X%X%X%X%X%X%X%X%X%X",
"%X%X%X%X%X%X%X%X%X%X%X%X%X%X%X%X%X%X%X%X%X%X%X%X%X%X%X%X%X%X%X%X%X%X%X%X%X%X%X%X%X%X%X%X%X%X%X%X%X%X%X%X%X%X%X%X%X%X%X%X%X%X%X%X",
"%X%X%X%X%X%X%X%X%X%X%X%X%X%X%X%X%X%X%X%X%X%X%X%X%X%X%X%X%X%X%X%X%X%X%X%X%X%X%X%X%X%X%X%X%X%X%X%X%X%X%X%X%X%X%X%X%X%X%X%X%X%X%X%X",
"%X%X%X%X%X%X%X%X%X%X%X%X%X%X%X%X%X%X%X%X%X%X%X%X%X%X%X%X%X%X%X%X%X%X%X%X%X%X%X%X%X%X%X%X%X%X%X%X%X%X%X%X%X%X%X%X%X%X%X%X%X%X%X%X",
"%X%X%X%X%X%X%X%X%X%X%X%X%X%X%X%X%X%X%X%X%X%X%X%X%X%X%X%X%X%X%X%X%X%X%X%X%X%X%X%X%X%X%X%X%X%X%X%X%X%X%X%X%X%X%X%X%X%X%X%X%X%X%X%X",
"%X%X%X%X%X%X%X%X%X%X%X%X%X%X%X%X%X%X%X%X%X%X%X%X%X%X%X%X%X%X%X%X%X%X%X%X%X%X%X%X%X%X%X%X%X%X%X%X%X%X%X%X%X%X%X%X%X%X%X%X%X%X%X%X",
"%X%X%X%X%X%X%X%X%X%X%X%X%X%X%X%X%X%X%X%X%X%X%X%X%X%X%X%X%X%X%X%X%X%X%X%X%X%X%X%X%X%X%X%X%X%X%X%X%X%X%X%X%X%X%X%X%X%X%X%X%X%X%X%X",
"%X%X%X%X%X%X%X%X%X%X%X%X%X%X%X%X%X%X%X%X%X%X%X%X%X%X%X%X%X%X%X%X%X%X%X%X%X%X%X%X%X%X%X%X%X%X%X%X%X%X%X%X%X%X%X%X%X%X%X%X%X%X%X%X",
"%X%X%X%X%X%X%X%X%X%X%X%X%X%X%X%X%X%X%X%X%X%X%X%X%X%X%X%X%X%X%X%X%X%X%X%X%X%X%X%X%X%X%X%X%X%X%X%X%X%X%X%X%X%X%X%X%X%X%X%X%X%X%X%X",
"%X%X%X%X%X%X%X%X%X%X%X%X%X%X%X%X%X%X%X%X%X%X%X%X%X%X%X%X%X%X%X%X%X%X%X%X%X%X%X%X%X%X%X%X%X%X%X%X%X%X%X%X%X%X%X%X%X%X%X%X%X%X%X%X",
"%X%X%X%X%X%X%X%X%X%X%X%X%X%X%X%X%X%X%X%X%X%X%X%X%X%X%X%X%X%X%X%X%X%X%X%X%X%X%X%X%X%X%X%X%X%X%X%X%X%X%X%X%X%X%X%X%X%X%X%X%X%X%X%X",
"%X%X%X%X%X%X%X%X%X%X%X%X%X%X%X%X%X%X%X%X%X%X%X%X%X%X%X%X%X%X%X%X%X%X%X%X%X%X%X%X%X%X%X%X%X%X%X%X%X%X%X%X%X%X%X%X%X%X%X%X%X%X%X%X",
"%X%X%X%X%X%X%X%X%X%X%X%X%X%X%X%X%X%X%X%X%X%X%X%X%X%X%X%X%X%X%X%X%X%X%X%X%X%X%X%X%X%X%X%X%X%X%X%X%X%X%X%X%X%X%X%X%X%X%X%X%X%X%X%X",
"%X%X%X%X%X%X%X%X%X%X%X%X%X%X%X%X%X%X%X%X%X%X%X%X%X%X%X%X%X%X%X%X%X%X%X%X%X%X%X%X%X%X%X%X%X%X%X%X%X%X%X%X%X%X%X%X%X%X%X%X%X%X%X%X",
"%X%X%X%X%X%X%X%X%X%X%X%X%X%X%X%X%X%X%X%X%X%X%X%X%X%X%X%X%X%X%X%X%X%X%X%X%X%X%X%X%X%X%X%X%X%X%X%X%X%X%X%X%X%X%X%X%X%X%X%X%X%X%X%X",
"%X%X%X%X%X%X%X%X%X%X%X%X%X%X%X%X%X%X%X%X%X%X%X%X%X%X%X%X%X%X%X%X%X%X%X%X%X%X%X%X%X%X%X%X%X%X%X%X%X%X%X%X%X%X%X%X%X%X%X%X%X%X%X%X"
};
