/* XPM */
static char *result[] = {
/* columns rows colors chars-per-pixel */
"64 64 223 2 ",
"   c #0C0506",
".  c #181817",
"X  c #221D1E",
"o  c #3B0E18",
"O  c #192A1A",
"+  c #17341D",
"@  c #0A3319",
"#  c #241F22",
"$  c #262123",
"%  c #2A2729",
"&  c #312D2F",
"*  c #4B2723",
"=  c #490B1A",
"-  c #0E4B1C",
";  c #0B7017",
":  c #194A23",
">  c #065A27",
",  c #195826",
"<  c #0A5631",
"1  c #046725",
"2  c #096E3A",
"3  c #1D7B36",
"4  c #18783A",
"5  c #0D6F32",
"6  c #256A33",
"7  c #267636",
"8  c #267937",
"9  c #287B39",
"0  c #277A38",
"q  c #22662E",
"w  c #484B33",
"e  c #5B5032",
"r  c #7A4C37",
"t  c #6F5237",
"y  c #566030",
"u  c #307148",
"i  c #4B4B4B",
"p  c #454646",
"a  c #545354",
"s  c #5C5C5C",
"d  c #4B7557",
"f  c #56785C",
"g  c #4A6F4F",
"h  c #646363",
"j  c #6E6E6E",
"k  c #7A666A",
"l  c #746568",
"z  c #797676",
"x  c #6B7573",
"c  c #626D67",
"v  c #A8102E",
"b  c #B5253C",
"n  c #AB3439",
"m  c #94363D",
"M  c #FF013C",
"N  c #FD0C3C",
"B  c #FC113A",
"V  c #824A3A",
"C  c #B22C46",
"Z  c #FF0C43",
"A  c #FF0844",
"S  c #FF1344",
"D  c #FF144B",
"F  c #FF1A4C",
"G  c #FB1846",
"H  c #FF1F54",
"J  c #DC3358",
"K  c #FF234E",
"L  c #FF2353",
"P  c #FF2C52",
"I  c #FF2D5A",
"U  c #FF345B",
"Y  c #FF3C5B",
"T  c #FD3455",
"R  c #E4365F",
"E  c #FF3462",
"W  c #FF3B63",
"Q  c #E93B64",
"!  c #DC3F6B",
"~  c #847B7C",
"^  c #836E72",
"/  c #AF6C67",
"(  c #A44C60",
")  c #CE4857",
"_  c #FF425F",
"`  c #D04872",
"'  c #E4486B",
"]  c #FE4363",
"[  c #FF4B64",
"{  c #FF4A6D",
"}  c #FF436B",
"|  c #FF556A",
" . c #FF4A72",
".. c #FF5375",
"X. c #FF5C76",
"o. c #FF577B",
"O. c #FF5B7A",
"+. c #FF6D76",
"@. c #FF627B",
"#. c #FF6777",
"$. c #FF757D",
"%. c #14AF0D",
"&. c #008B2D",
"*. c #009933",
"=. c #29813B",
"-. c #03A72E",
";. c #01A033",
":. c #01AE35",
">. c #05BE2F",
",. c #148F0B",
"<. c #5AB93C",
"1. c #15C90F",
"2. c #27C80E",
"3. c #39DF31",
"4. c #01B156",
"5. c #03BB7C",
"6. c #3EBE50",
"7. c #728F73",
"8. c #58B06C",
"9. c #79BB67",
"0. c #51D64E",
"q. c #7BC572",
"w. c #FE9702",
"e. c #F79A15",
"r. c #FFBA04",
"t. c #EFAE2E",
"y. c #FFD81D",
"u. c #F8C327",
"i. c #FFE335",
"p. c #F4CB40",
"a. c #FFE74F",
"s. c #E7D164",
"d. c #FFEB63",
"f. c #5A7E8D",
"g. c #776D9D",
"h. c #6E74A4",
"j. c #937F82",
"k. c #FD6D86",
"l. c #FF758B",
"z. c #FF7C88",
"x. c #FF7D92",
"c. c #FF7691",
"v. c #E57491",
"b. c #138FAF",
"n. c #10AFB6",
"m. c #229DA9",
"M. c #4D8C94",
"N. c #6F878E",
"B. c #5787B6",
"V. c #558DA9",
"C. c #7094B5",
"Z. c #59D3B8",
"A. c #089ED4",
"S. c #119EC2",
"D. c #2D99C7",
"F. c #00A5DC",
"G. c #06A8DC",
"H. c #19A9D8",
"J. c #11A7CC",
"K. c #2BACD0",
"L. c #18B5E5",
"P. c #12B0E5",
"I. c #27B7E5",
"U. c #3ABCE4",
"Y. c #579BC5",
"T. c #46B7DB",
"R. c #4CADD1",
"E. c #26C3F1",
"W. c #32C4EE",
"Q. c #56C9EB",
"!. c #4ECBE3",
"~. c #7ED4EE",
"^. c #73D7F2",
"/. c #68D7F1",
"(. c #75E1FA",
"). c #65E2FC",
"_. c #5EE3E3",
"`. c #878585",
"'. c #939191",
"]. c #8693A9",
"[. c #B0AAA2",
"{. c #FF8386",
"}. c #FF8389",
"|. c #FF8B8C",
" X c #FF8293",
".X c #FF8C9C",
"XX c #FF8E90",
"oX c #FF9594",
"OX c #FF9A97",
"+X c #FF9C99",
"@X c #FF949F",
"#X c #FFA29D",
"$X c #FF94A2",
"%X c #FF9CA7",
"&X c #FFABB1",
"*X c #FFA7AE",
"=X c #AED8B8",
"-X c #98D8D3",
";X c #A6D4C7",
":X c #ACE6D3",
">X c #87DAF3",
",X c #89D8EB",
"<X c #87E4FA",
"1X c #97E6F7",
"2X c #93E9F1",
"3X c #A6E8E3",
"4X c #A7E9FB",
"5X c #B7ECF9",
"6X c #BCF1FC",
"7X c #B1EEEF",
"8X c #99E6CC",
"9X c #D9F4EB",
"0X c #C3F3FD",
"qX c #CBF4FB",
"wX c #CCF7F9",
"eX c #D3FAFF",
"rX c #DBFBFF",
"tX c #D4F6F5",
"yX c #C4EEF5",
"uX c #E3FCFF",
"iX c #E2F7E6",
"pX c #E1F5D7",
"aX c None",
/* pixels */
"aXaXaXaXaXaXaXaXaXaXaXaXaXaXaXaXaXaXaXaXaXaXaXaXaXaXaXaXaXaXaXaXaXaXaXaXaXaXaXaXaXaXaXaXaXaXaXaXaXaXaXaXaXaXaXaXaXaXaXaXaXaXaXaX",
"aXaXaXaXaXaXaXaXaXaXaXaXaXaXaXaXaXaXaXaXaXaXaXaXaXaXaXaXaXaXaXaXaXaXaXaXaXaXaXaXaXaXaXaXaXaXaXaXaXaXaXaXaXaXaXaXaXaXaXaXaXaXaXaX",
"aXaXaXaXaXaXaXaXaXaXaXaXaXaXaXaXaXaXaXaXaXaXaXaXaXaXaXaXaXaXaXaXaXaXaXaXaXaXaXaXaXaXaXaXaXaXaXaXaXaXaXaXaXaXaXaXaXaXaXaXaXaXaXaX",
"aXaXaXaXaXaXaXaXaXaXaXaXaXaXaXaXaXaXaXaXaXaXaXaXaXaXaXaXaXaXaXaXaXaXaXaXaXaXaXaXaXaXaXaXaXaXaXaXaXaXaXaXaXaXaXaXaXaXaXaXaXaXaXaX",
"aXaXaXaXaXaXaXaXaXaXaXaXaXaXaXaXaXaXaXaXaXaXaXaXaXaXaXaXaXaXaXaXaXaXaXaXaXaXaXaXaXaXaXaXaXaXaXaXaXaXaXaXaXaXaXaXaXaXaXaXaXaXaXaX",
"aXaXaXaXaXaXaXaXaXaXaXaXaXaXaXaXaXaXaXaXaXaXaXaXaXaXaXaXaXaXaXaXaXaXaXaXaXaXaXaXaXaXaXaXaXaXaXaXaXaXaXaXaXaXaXaXaXaXaXaXaXaXaXaX",
"aXaXaXaXaXaXaXaXaXaXaXaXaXaXaXaXaXaXaXaXaXaXaXaXaXaXaXaXaXaXaXaXaXaXaXaXaXaXaXaXaXaXaXaXaXaXaXaXaXaXaXaXaXaXaXaXaXaXaXaXaXaXaXaX",
"aXaXaXaXaXaXaXaXaXaXaXaXaXaXaXaXaXaXaXaXaXaXaXaXaXaXaXaXaXaXaXaXaXaXaXaXaXaXaXaXaXaXaXaXaXaXaXaXaXaXaXaXaXaXaXaXaXaXaXaXaXaXaXaX",
"aXaXaXaXaXaXaXaXaXaXaXaXaXaXaXaXaXaXaXaXaXaXaXaXaXaXaXaXaXaXaXaXaXaXaXaXaXaXaXaXaXaXaXaXaXaXaXaXaXaXaXaXaXaXaXaXaXaXaXaXaXaXaXaX",
"aXaXaXaXaXaXaXaXaXaXaXaXaXaXaXaXaXaXaXaXaXaXaXaXaXaXaXaXaXaXaXaXaXaXaXaXaXaXaXaXaXaXaXaXaXaXaXaXaXaXaXaXaXaXaXaXaXaXaXaXaXaXaXaX",
"aXaXaXaXaXaXaXaXaXaXaXaXaXaXaXaXaXaXaXaXaXaXaXaXaXaXaXaXaXaXaXaXaXaXaXaXaXaXaXaXaXaXaXaXaXaXaXaXaXaXaXaXaXaXaXaXaXaXaXaXaXaXaXaX",
"aXaXaXaXaXaXaXaXaXaXaXaXaXaXaXaXaXaXaXaXaXaXaXaXaXaXaXaXaXaXaXaXaXaXaXaXaXaXaXaXaXaXaXaXaXaXaXaXaXaXaXaXS Z D D D aXaXaXaXaXaXaX",
"aXaXaXaXaXaXaXaXaXaXaXaXaXaXaXaXaXaXaXaXaXaXaXaXaXaXaXaXaXaXaXaXaXaXaXaXaXaXaXaXaXaXaXaXaXaXaXaXaXaXaXaXS  X%X$X*X{ aXaXaXaXaXaX",
"aXaXaXaXaXaXaXaXaXaXaXaXaXaXaXaXaXaXaXaXaXaXaXaXaXaXaXaXaXaXaXaXaXaXaXaXaXaXaXaXaXaXaXaXaXaXaXaXaXaXaXaXZ .XW F @X&XU aXaXaXaXaX",
"aXaXaXaXaXaXaXaXaXaXaXaXaXaXaXaXaXF.aXG.F.aXaXaXaXaXaXaXaXaXaXF.A.aXaXaXaXaXaXaXaXaXaXaXaXaXaXaXaXaXaXaXT $XU aXG .XE aXaXaXaXaX",
"aXaXaXaXaXaXaXaXaXaXaXaXaXaXaXaXF.1XU.^.6XI.aXaXaXaXaXaXF.,XP.^.>XF.aXaXaXaXaXaXaXaXaXaXaXaXaXaXaXaXaXI x.&XU aXN .XE aXaXaXaXaX",
"aXaXaXaXaXaXaXaXaXaXaXaXaXaXaXF.>XrXqXwXrX0XI.aXaXaXaXG.>XuX4XeXuX>XG.aXaXaXaXaXaXaXaXaXaXaXaXaXaXaXT $XW  XU aXL $XU aXaXaXaXaX",
"aXaXaXaXaXaXaXaXaXD H H L aXaXaXU.0Xd.u.8XU.aXaXaXaXaXaXQ.uXd.s.1XQ.aXaXaXaXaXaXaXaXaXaXaXaXaXaXaXL x.I A .X} L %X*XU aXaXaXaXaX",
"aXaXaXaXaXaXaXaXaX .*X*Xx.B Y h.~.eXp.w.;X(.D.D.` B.' g.~.9Xr.w.2XQ.h.h.` g.E aXaXaXaXaXaXaXaXaXY x.] aXB c.%X$X%X] aXaXaXaXaXaX",
"aXaXaXaXaXaXaXaXaXo.k.E @.S O.Y.1XrX3X-X6XrXW.^.T.4XR.H.wXwX=X=X6X6XL./.R.>XC.o.aXaXaXaXaXaXaXU l.W aXaXZ A A A Z aXaXaXaXaXaXaX",
"aXaXaXaXaXaXaXaXaXo.}.N G O.$.J h.5X1XI.7XW.1XtX9XrX5XD.T.9X<XW.0XQ.1X0X0XrX,XC.O.aXaXaXaXaXY l.[ aXaXaXaXaXaXaXaXaXaXaXaXaXaXaX",
"aXaXaXaXaXaXaXaXaXo.aXaX} l.' ].f.K.P./.0.n.(.t.y.pXU.f.f.U.E._.0.P.3Xp.d.0XT.` x.E aXaXaXL .X} aXaXaXaXaXaXaXaXaXaXaXaXaXaXaXaX",
"aXaXaXaXaXaXaXaXaXo.aXaX .k.` R.M.D.I.V.n.).2Xt.t.9X4XJ.N.A.J.C.n.).-Xw.u.qX^.g.x.E aXaXU x.] aXaXaXaXaXaXaXaXaXaXaXaXaXaXaXaXaX",
"aXaXaXaXaXaXaXaXaXo.aXaX .v.B.4XQ.<XuXT.G.4XeX<X1XeXyXI.K.1X5XJ.P.eX0X-X:XrX5XD. XE aXU x.W aXaXaXaXaXaXaXaXaXaXaXaXaXaXaXaXaXaX",
"aXaXaXaXaXaXaXaXaXo.aXaX .].,XeXiXpXyX5XK.S.:XQ.).5XU.5X6XwXtX4XJ.T.yXE.2X6XT.` x.I L l.[ aXaXaXaXaXaXaXaXaXaXaXaXaXaXaXaXaXaXaX",
"aXaXaXaXaXaXaXaXaXo.aXaX{ v.Y.4Xa.r.=XE.M.< 2.Z.H.H.H.tXi.u.2XU.M.5 0.!.L.K.].Q  XO.k.} aXaXaXaXaXaXaXaXaXaXaXaXaXaXaXaXaXaXaXaX",
"aXaXaXaXaXaXaXaXaXO.aXaX| B.<XeXs.t.;X4XL.> ;.1 s b.1XtXu.e.2X(.S.> -.u x x '.) x.&X..aXaXaXaXaXaXaXaXaXaXaXaXaXaXaXaXaXaXaXaXaX",
"aXaXaXaXaXaXaXaXaX}  XaX' M.,XrX4X(.6X0XK.2 &.1 ; 1 ;XeX3X-XwX0Xn.1 *.- > 6 `.J x.W aXaXaXaXaXaXaXaXaXaXaXaXaXaXaXaXaXaXaXaXaXaX",
"aXaXaXaXaXaXaXaXaXF Y J y %.4.~.<XE.8Xn.4.*.1 -.2.1.; ;X(.E.7XK.4.&.1 -.2.%.g ' x.E aXaXaXaXaXaXaXaXaXaXaXaXaXaXaXaXaXaXaXaXaXaX",
"aXaXaXaXaXaXaXaXaXo.&Xh ,.%.-.b.b.Z.3.1.*.6 1 1 &.-.1.> n._.3.>.;.1 1 &.:.>.%.w x.E aXaXaXaXaXaXaXaXaXaXaXaXaXaXaXaXaXaXaXaXaXaX",
"aXaXaXaXaXaXaXaXaX.. .m w * w g u <.6.0.g '.f g f f 8.d f q.q.9.7.[.7.7.7.7.8.V  XE aXaXaXaXaXaXaXaXaXaXaXaXaXaXaXaXaXaXaXaXaXaX",
"aXaXaXaXaXaXaXaXaXaXM M S G Y x.x.l.l.l.z.z.l.l.k.z.z.l.l.k.l.l.l.l.l.l.l.l.l.P ..L aXaXaXaXaXaXaXaXaXaXaXaXaXaXaXaXaXaXaXaXaXaX",
"aXaXaXaXaXaXaXaXaXaXaXaXK Y M M M S S Z S Z M A Z M M M N S M M N S Z S S N M M Z A aXaXaXaXaXaXaXaXaXaXaXaXaXaXaXaXaXaXaXaXaXaX",
"aXaXaXaXaXaXaXaXaXaXaXaXK T D L F | +.+.| P S Y +.Y S S _ +.Y G P | +.+.[ K S A Y F aXaXaXaXaXaXaXaXaXaXaXaXaXaXaXaXaXaXaXaXaXaX",
"aXaXaXaXaXaXaXaXaXaXaXt F T ] |.[ U }.}.Y U #.{.+X{.+.+.{.OX$.+.Y ] |.z.P ] $.K Y G b aXaXaXaXaXaXaXaXaXaXaXaXaXaXaXaXaXaXaXaXaX",
"aXaXaXaXaXaXaXaXaXaX3 t F T ] +X|.| Y _ [ {.OXoXoXoXoXoXoXoXoXOX}._ [ U | |.+XU Y D V aXaXaXaXaXaXaXaXaXaXaXaXaXaXaXaXaXaXaXaXaX",
"aXaXaXaXaXaXaXaXaX4 3 t I { W +X+X$.P K +.+XOXoXoXoXoXoXoXoXoXoXOX#.K P {.+XOXU Y D r 4 aXaXaXaXaXaXaXaXaXaXaXaXaXaXaXaXaXaXaXaX",
"aXaXaXaXaXaXaXaXaX0 3 t  .l.] #X|.] Y _ Y {.+XOXoXoXoXoXoXoXOX+X{.Y _ T [ XX#XU Y D V 3 aXaXaXaXaXaXaXaXaXaXaXaXaXaXaXaXaXaXaXaX",
"aXaXaXaXaXaXaXaXaX2 3 e C ( b / ) _ |.|._ Y #.{.+XOXOX+XOX+X$.#._ [ XX{.U J / b b v e =.aXaXaXaX7 7 aXaXaXaXaXaXaXaXaXaXaXaXaXaX",
"aXaXaXaXaXaXaXaXaX4 q + . . . . * ) @.X.{ F M P @.X.X.O.X.@.L M G | X.@.) * . . . . + 6 aXaX7 =.9 7 aXaXaXaXaXaXaXaXaXaXaXaXaXaX",
"aXaXaXaXaXaXaXaXaXq O # i h h a % = v n n n n n n n n n n n n n n n n v o % a h h p $ + 6 9 7 aX7 9 aXaXaXaXaXaXaXaXaXaXaXaXaXaX",
"aXaXaXaXaXaXaXaXaX: X i z ~ z ~ a $ - 2 4 3 3 3 3 3 3 3 3 3 3 3 4 4 3 @ & a `.j `.j i X : aXaXaXaXaXaXaXaXaXaXaXaXaXaXaXaXaXaXaX",
"aXaXaXaXaXaXaXaXaX: X s `.k k ~ z % @ 4 7 7 0 0 7 7 7 7 7 7 7 7 7 7 7 @ % k ^ ^ ^ `.s . aXaXaXaXaXaXaXaXaXaXaXaXaXaXaXaXaXaXaXaX",
"aXaXaXaXaXaXaXaXaX: . s z ^ j.k z $ + 9 7 7 7 7 7 7 7 7 7 7 7 7 7 7 7 O % j l '.k ~ s X aXaXaXaXaXaXaXaXaXaXaXaXaXaXaXaXaXaXaXaX",
"aXaXaXaXaXaXaXaXaX: X i j.z k `.s $ + 9 7 7 7 7 7 7 7 7 7 7 7 7 7 7 8 O % s `.l ~ z a . aXaXaXaXaXaXaXaXaXaXaXaXaXaXaXaXaXaXaXaX",
"aXaXaXaXaXaXaXaXaX< O % i j j a & O , 9 0 7 7 7 7 8 7 7 7 7 7 7 7 7 8 : O & s j j p & . aXaXaXaXaXaXaXaXaXaXaXaXaXaXaXaXaXaXaXaX",
"aXaXaXaXaXaXaXaXaXaX> + # X O # $ , u 2 9 9 9 9 0 0 0 0 9 9 9 9 8 8 9 =.: + # X X $ O aXaXaXaXaXaXaXaXaXaXaXaXaXaXaXaXaXaXaXaXaX",
"aXaXaXaXaXaXaXaXaXaXaX<         + 4 2 4 7 7 7 7 7 7 8 7 7 7 7 7 7 7 7 7 =.+         aXaXaXaXaXaXaXaXaXaXaXaXaXaXaXaXaXaXaXaXaXaX",
"aXaXaXaXaXaXaXaXaXaXaXaXaXaXaXaXaXaXaXaXaXaXaXaXaXaXaXaXaXaXaXaXaXaXaXaXaXaXaXaXaXaXaXaXaXaXaXaXaXaXaXaXaXaXaXaXaXaXaXaXaXaXaXaX",
"aXaXaXaXaXaXaXaXaXaXaXaXaXaXaXaXaXaXaXaXaXaXaXaXaXaXaXaXaXaXaXaXaXaXaXaXaXaXaXaXaXaXaXaXaXaXaXaXaXaXaXaXaXaXaXaXaXaXaXaXaXaXaXaX",
"aXaXaXaXaXaXaXaXaXaXaXaXaXaXaXaXaXaXaXaXaXaXaXaXaXaXaXaXaXaXaXaXaXaXaXaXaXaXaXaXaXaXaXaXaXaXaXaXaXaXaXaXaXaXaXaXaXaXaXaXaXaXaXaX",
"aXaXaXaXaXaXaXaXaXaXaXaXaXaXaXaXaXaXaXaXaXaXaXaXaXaXaXaXaXaXaXaXaXaXaXaXaXaXaXaXaXaXaXaXaXaXaXaXaXaXaXaXaXaXaXaXaXaXaXaXaXaXaXaX",
"aXaXaXaXaXaXaXaXaXaXaXaXaXaXaXaXaXaXaXaXaXaXaXaXaXaXaXaXaXaXaXaXaXaXaXaXaXaXaXaXaXaXaXaXaXaXaXaXaXaXaXaXaXaXaXaXaXaXaXaXaXaXaXaX",
"aXaXaXaXaXaXaXaXaXaXaXaXaXaXaXaXaXaXaXaXaXaXaXaXaXaXaXaXaXaXaXaXaXaXaXaXaXaXaXaXaXaXaXaXaXaXaXaXaXaXaXaXaXaXaXaXaXaXaXaXaXaXaXaX",
"aXaXaXaXaXaXaXaXaXaXaXaXaXaXaXaXaXaXaXaXaXaXaXaXaXaXaXaXaXaXaXaXaXaXaXaXaXaXaXaXaXaXaXaXaXaXaXaXaXaXaXaXaXaXaXaXaXaXaXaXaXaXaXaX",
"aXaXaXaXaXaXaXaXaXaXaXaXaXaXaXaXaXaXaXaXaXaXaXaXaXaXaXaXaXaXaXaXaXaXaXaXaXaXaXaXaXaXaXaXaXaXaXaXaXaXaXaXaXaXaXaXaXaXaXaXaXaXaXaX",
"aXaXaXaXaXaXaXaXaXaXaXaXaXaXaXaXaXaXaXaXaXaXaXaXaXaXaXaXaXaXaXaXaXaXaXaXaXaXaXaXaXaXaXaXaXaXaXaXaXaXaXaXaXaXaXaXaXaXaXaXaXaXaXaX",
"aXaXaXaXaXaXaXaXaXaXaXaXaXaXaXaXaXaXaXaXaXaXaXaXaXaXaXaXaXaXaXaXaXaXaXaXaXaXaXaXaXaXaXaXaXaXaXaXaXaXaXaXaXaXaXaXaXaXaXaXaXaXaXaX",
"aXaXaXaXaXaXaXaXaXaXaXaXaXaXaXaXaXaXaXaXaXaXaXaXaXaXaXaXaXaXaXaXaXaXaXaXaXaXaXaXaXaXaXaXaXaXaXaXaXaXaXaXaXaXaXaXaXaXaXaXaXaXaXaX",
"aXaXaXaXaXaXaXaXaXaXaXaXaXaXaXaXaXaXaXaXaXaXaXaXaXaXaXaXaXaXaXaXaXaXaXaXaXaXaXaXaXaXaXaXaXaXaXaXaXaXaXaXaXaXaXaXaXaXaXaXaXaXaXaX",
"aXaXaXaXaXaXaXaXaXaXaXaXaXaXaXaXaXaXaXaXaXaXaXaXaXaXaXaXaXaXaXaXaXaXaXaXaXaXaXaXaXaXaXaXaXaXaXaXaXaXaXaXaXaXaXaXaXaXaXaXaXaXaXaX",
"aXaXaXaXaXaXaXaXaXaXaXaXaXaXaXaXaXaXaXaXaXaXaXaXaXaXaXaXaXaXaXaXaXaXaXaXaXaXaXaXaXaXaXaXaXaXaXaXaXaXaXaXaXaXaXaXaXaXaXaXaXaXaXaX",
"aXaXaXaXaXaXaXaXaXaXaXaXaXaXaXaXaXaXaXaXaXaXaXaXaXaXaXaXaXaXaXaXaXaXaXaXaXaXaXaXaXaXaXaXaXaXaXaXaXaXaXaXaXaXaXaXaXaXaXaXaXaXaXaX",
"aXaXaXaXaXaXaXaXaXaXaXaXaXaXaXaXaXaXaXaXaXaXaXaXaXaXaXaXaXaXaXaXaXaXaXaXaXaXaXaXaXaXaXaXaXaXaXaXaXaXaXaXaXaXaXaXaXaXaXaXaXaXaXaX"
};
