/* XPM */
static char *result[] = {
/* columns rows colors chars-per-pixel */
"64 64 216 2 ",
"   c #000000",
".  c #0A0201",
"X  c #0E0903",
"o  c #0D0C0C",
"O  c #050809",
"+  c #110100",
"@  c #120D03",
"#  c #150A0A",
"$  c #041707",
"%  c #1A1409",
"&  c #040918",
"*  c #1C1D1D",
"=  c #191716",
"-  c #140E18",
";  c #241C0D",
":  c #2F1F00",
">  c #221817",
",  c #002113",
"<  c #0F290C",
"1  c #25220E",
"2  c #2B220F",
"3  c #3B2B02",
"4  c #2C2412",
"5  c #2E291B",
"6  c #282217",
"7  c #342915",
"8  c #332B1B",
"9  c #392E1A",
"0  c #332814",
"q  c #3C331B",
"w  c #36361A",
"e  c #2D3A1C",
"r  c #000627",
"t  c #001C30",
"y  c #0F2733",
"u  c #242424",
"i  c #2B2722",
"p  c #2A2A29",
"a  c #342D23",
"s  c #322E2B",
"d  c #393222",
"f  c #3B332A",
"g  c #343434",
"h  c #3C3C3B",
"j  c #3B3835",
"k  c #453A1E",
"l  c #42341E",
"z  c #452A00",
"x  c #4A3E23",
"c  c #433A26",
"v  c #423E3A",
"b  c #574400",
"n  c #4B4127",
"m  c #524426",
"M  c #53462B",
"N  c #55492A",
"B  c #5A4D2C",
"V  c #5F512E",
"C  c #4C4438",
"Z  c #53493A",
"A  c #5D5233",
"S  c #5B513B",
"D  c #62532E",
"F  c #655532",
"G  c #6A5933",
"H  c #6C5D39",
"J  c #675737",
"K  c #795E3A",
"L  c #785B35",
"P  c #7B633D",
"I  c #3C3E40",
"U  c #364F47",
"Y  c #454443",
"T  c #4C4C4C",
"R  c #4A4744",
"E  c #5A5346",
"W  c #585858",
"Q  c #564D48",
"!  c #665C46",
"~  c #6A5F44",
"^  c #6B5C4B",
"/  c #6B5F50",
"(  c #6E634C",
")  c #6E6245",
"_  c #746548",
"`  c #6F6150",
"'  c #7B6D5B",
"]  c #786B56",
"[  c #7C725F",
"{  c #5F6576",
"}  c #686767",
"|  c #7A7B7C",
" . c #767676",
".. c #6B747B",
"X. c #8C6A3C",
"o. c #EF4D2D",
"O. c #EF5032",
"+. c #816340",
"@. c #876943",
"#. c #95744A",
"$. c #8A755B",
"%. c #A37A4A",
"&. c #A27846",
"*. c #A47F53",
"=. c #A87F50",
"-. c #857561",
";. c #8C7B66",
":. c #8B7D6A",
">. c #847867",
",. c #807E7B",
"<. c #F1785C",
"1. c #A98458",
"2. c #B38D5B",
"3. c #B98C57",
"4. c #BD935E",
"5. c #98846B",
"6. c #9C8A73",
"7. c #968671",
"8. c #AA8C6B",
"9. c #B08F71",
"0. c #A6937A",
"q. c #A89378",
"w. c #B19373",
"e. c #D6A05F",
"r. c #CA9964",
"t. c #CC9E69",
"y. c #C59762",
"u. c #D39E63",
"i. c #C09F7B",
"p. c #DBA463",
"a. c #D3A26B",
"s. c #DBA66D",
"d. c #D9A669",
"f. c #DCAA72",
"g. c #DBAD7B",
"h. c #C4A37F",
"j. c #E2AD73",
"k. c #F1B675",
"l. c #F5BC7D",
"z. c #FBBD7B",
"x. c #FBBB75",
"c. c #F2B774",
"v. c #FFC27E",
"b. c #8B8B8B",
"n. c #828588",
"m. c #9A9289",
"M. c #949495",
"N. c #99989D",
"B. c #928B8E",
"V. c #AA9B86",
"C. c #B29D84",
"Z. c #A79D92",
"A. c #BAA58A",
"S. c #A4A19E",
"D. c #A6A4A2",
"F. c #ABA8A7",
"G. c #B5ADB7",
"H. c #B5B6B6",
"J. c #C39398",
"K. c #C98E9D",
"L. c #F59F82",
"P. c #D7B58F",
"I. c #C5AE91",
"U. c #C8B395",
"Y. c #D4BB9D",
"T. c #D0B797",
"R. c #CBA983",
"E. c #F8A789",
"W. c #D495A2",
"Q. c #D5BDA0",
"!. c #FDAAB9",
"~. c #FFC583",
"^. c #FFC985",
"/. c #FEC58A",
"(. c #FFCB8B",
"). c #F5C38F",
"_. c #FFCF9B",
"`. c #F7C793",
"'. c #FFD199",
"]. c #DDC5A6",
"[. c #DDC7A8",
"{. c #E0C6A6",
"}. c #E8CCAC",
"|. c #FDD2A3",
" X c #FFD8AC",
".X c #FBD6AA",
"XX c #E8C9B7",
"oX c #FFC6BC",
"OX c #FEDBB4",
"+X c #FCDEBB",
"@X c #F5D7B6",
"#X c #FBC9A8",
"$X c #FEE1BD",
"%X c #FBE2BB",
"&X c #FEB4C5",
"*X c #C7C8C9",
"=X c #D0CFCE",
"-X c #D3D2D2",
";X c #DBDBDB",
":X c #FFCBC8",
">X c #FEDFC0",
",X c #F5D5D9",
"<X c #FEE4C1",
"1X c #FFEAC5",
"2X c #FFECC8",
"3X c #FFF0CA",
"4X c #E4E2DE",
"5X c #E5DCE7",
"6X c #E2E2E2",
"7X c #EBEBEB",
"8X c #F3EEE9",
"9X c #FCF2E6",
"0X c #F4F4F5",
"qX c #FEFEFE",
"wX c #FDF6F0",
"eX c None",
/* pixels */
"eXeXeXeXeXeXeXeXeXeXeXeXeXeXeXeXeXeXeXeXeXeXeXeXeXeXeXeXeXeXeXeXeXeXeXeXeXeXeXeXeXeXeXeXeXeXeXeXeXeXeXeXeXeXeXeXeXeXeXeXeXeXeXeX",
"eXeXeXeXeXeXeXeXeXeXeXeXeXeXeXeXeXeXeXeXeXeXeXeXeXeXeXeXeXeXeXeXeXeXeXeXeXeXeXeXeXeXeXeXeXeXeXeXeXeXeXeXeXeXeXeXeXeXeXeXeXeXeXeX",
"eXeXeXeXeXeXeXeXeXeXeXeXeXeXeXeXeXeXeXeXeXeXeXeXeXeXeXeXeXeXeXeXeXeXeXeXeXeXeXeXeXeXeXeXeXeXeXeXeXeXeXeXeXeXeXeXeXeXeXeXeXeXeXeX",
"eXeXeXeXeXeXeXeXeXeXeXeXeXeXeXeXeXeXeXeXeXeXeXeXeXeXeXo     O         o   eXeXeXeXeXeXeXeXeXeXeXeXeXeXeXeXeXeXeXeXeXeXeXeXeXeXeX",
"eXeXeXeXeXeXeXeXeXeXeXeXeXeXeXeXeXeXeXeXeXeXeXeXeXeXo    .|     p b.W   q 5 eXeXeXeXeXeXeXeXeXeXeXeXeXeXeXeXeXeXeXeXeXeXeXeXeXeX",
"eXeXeXeXeXeXeXeXeXeXeXeXeXeXeXeXeXeXeXeXeXeXeXeX. O *   7X7X    W qXH.  ) M       eXeXeXeXeXeXeXeXeXeXeXeXeXeXeXeXeXeXeXeXeXeXeX",
"eXeXeXeXeXeXeXeXeXeXeXeXeXeXeXeXeXeXeXeXeXeX            } }     *  .T     3 ! N x   eXeXeXeXeXeXeXeXeXeXeXeXeXeXeXeXeXeXeXeXeXeX",
"eXeXeXeXeXeXeXeXeXeXeXeXeXeXeXeXeXeXeXeXeXeX5 5 5 9 7 5     4 5 6     * } } J H B 1 eXeXeXeXeXeXeXeXeXeXeXeXeXeXeXeXeXeXeXeXeXeX",
"eXeXeXeXeXeXeXeXeXeXeXeXeXeXeXeXeXeXeXeX    ) ( ( N w   A H V ) ! &   g qX-X  ( ) D 4   eXeXeXeXeXeXeXeXeXeXeXeXeXeXeXeXeXeXeXeX",
"eXeXeXeXeXeXeXeXeXeXeXeXeXeXeXeXeXeXeX  c S J J A r.a.a.L w D J F m 0 & N.|   ~ ) ~ 5   eXeXeXeXeXeXeXeXeXeXeXeXeXeXeXeXeXeXeXeX",
"eXeXeXeXeXeXeXeXeXeXeXeXeXeXeXeXeXeXeX  S ] D G P l.^.(.1.M G V V G n       O ! ( ( d X eXeXeXeXeXeXeXeXeXeXeXeXeXeXeXeXeXeXeXeX",
"eXeXeXeXeXeXeXeXeXeXeXeXeXeXeXeXeXeXeX  C _ < 2.^.x.`.$X(.p.  m G D D V u & o     G D N   eXeXeXeXeXeXeXeXeXeXeXeXeXeXeXeXeXeXeX",
"eXeXeXeXeXeXeXeXeXeXeXeXeXeXeXeXeXeXeX  n ) 2.j.~._. X$X X).4.@.k D D D n w   F.D.b G N   eXeXeXeXeXeXeXeXeXeXeXeXeXeXeXeXeXeXeX",
"eXeXeXeXeXeXeXeXeXeXeXeXeXeXeXeXeXeXeX  k G z.~.~.OX<X+X<XOX(.1., G D V G m . 7X4Xz J N   eXeXeXeXeXeXeXeXeXeXeXeXeXeXeXeXeXeXeX",
"eXeXeXeXeXeXeXeXeXeXeXeXeXeXeXeXeXeXeX  k H k._.+X+X+X$X$X+X%X`.p.  n G D n   U Q G q ;   eXeXeXeXeXeXeXeXeXeXeXeXeXeXeXeXeXeXeX",
"eXeXeXeXeXeXeXeXeXeXeXeXeXeXeXeXeXeXeX  k H k.|.<X$X$X+X$X+X<X.X).1.P m G m 7   + N k 9   eXeXeXeXeXeXeXeXeXeXeXeXeXeXeXeXeXeXeX",
"eXeXeXeXeXeXeXeXeXeXeXeXeXeXeXeXeXeXeX  k H k.|.+X$X$X$X$X+X+X$X+X(.2.  G F G 8 ; @ B D   eXeXeXeXeXeXeXeXeXeXeXeXeXeXeXeXeXeXeX",
"eXeXeXeXeXeXeXeXeXeXeXeXeXeXeXeXeXeXeXeX% d z A.2X%X+X$X$X$X2XC.C : 3.l.w 1 x     D l 2   eXeXeXeXeXeXeXeXeXeXeXeXeXeXeXeXeXeXeX",
"eXeXeXeXeXeXeXeXeXeXeXeXeXeXeXeXeXeXeXeX  o   7.[.+X$X+X$X@X[.'   { 9.f.#.P e P K N 9 %   eXeXeXeXeXeXeXeXeXeXeXeXeXeXeXeXeXeXeX",
"eXeXeXeXeXeXeXeXeXeXeXeXeXeXeXeXeXeXeXeXO         }.$X+X<X].    T 5XN.  ~.s.e v.f.  7 1   eXeXeXeXeXeXeXeXeXeXeXeXeXeXeXeXeXeXeX",
"eXeXeXeXeXeXeXeXeXeXeXeXeXeXeXeXeXeXeXeX    G.B.  }.1X$X1X{.    R 5XM.  E.p.$ c.s.  7 ;   eXeXeXeXeXeXeXeXeXeXeXeXeXeXeXeXeXeXeX",
"eXeXeXeXeXeXeXeXeXeXeXeXeXeXeXeXeXeXeXeX# > 5XG.O }.$X%X$X{.  + T 5XF.J /.g.] v.s.  7 ;   eXeXeXeXeXeXeXeXeXeXeXeXeXeXeXeXeXeXeX",
"eXeXeXeXeXeXeXeXeXeXeXeXeXeXeXeXeXeXeXeX  . qXH.  }.$X+X1X].    U qX9X+X$X<X$X'.s.  7 ;   eXeXeXeXeXeXeXeXeXeXeXeXeXeXeXeXeXeXeX",
"eXeXeXeXeXeXeXeXeXeXeXeXeXeXeXeXeXeXeXeXK.W.:X=XA.+X$X$X$X@XA.J.K.,X:X!.+XOX'.t.#.X 0 ;   eXeXeXeXeXeXeXeXeXeXeXeXeXeXeXeXeXeXeX",
"eXeXeXeXeXeXeXeXeXeXeXeXeXeXeXeXeXeXeXeX&X&X!.:X1XOXOX+X+X$X1X:X&X!.!.!.+X|.k.P 1 4 2 ;   eXeXeXeXeXeXeXeXeXeXeXeXeXeXeXeXeXeXeX",
"eXeXeXeXeXeXeXeXeXeXeXeXeXeXeXeXeXeXeXeX- s @X>X+X<.O.o.#X<X+X+X+X<X<X+X(.a.A x 0 1 @   eXeXeXeXeXeXeXeXeXeXeXeXeXeXeXeXeXeXeXeX",
"eXeXeXeXeXeXeXeXeXeXeXeXeXeXeXeXeXeXeXeXeX< V.[.1XE.L.L. X<X%X$X$X|.|.|.^.r.$ q ; 4 X   eXeXeXeXeXeXeXeXeXeXeXeXeXeXeXeXeXeXeXeX",
"eXeXeXeXeXeXeXeXeXeXeXeXeXeXeXeXeXeXeXeXeXeX  6.1X>X<X>X%X$X%X%XOXx.z.z.~.r.  9 ; 4 @   eXeXeXeXeXeXeXeXeXeXeXeXeXeXeXeXeXeXeXeX",
"eXeXeXeXeXeXeXeXeXeXeXeXeXeXeXeXeXeXeXeXeXeXeXZ E y 1.(././.^.(.^.~.^.^.^.y.  % @ 4 1 ;   eXeXeXeXeXeXeXeXeXeXeXeXeXeXeXeXeXeXeX",
"eXeXeXeXeXeXeXeXeXeXeXeXeXeXeXeXeXeXeXeXeXeXeXeX    L a.k.z.E.s.r.a.t.t.~.s.@.l   4 2 ; @ eXeXeXeXeXeXeXeXeXeXeXeXeXeXeXeXeXeXeX",
"eXeXeXeXeXeXeXeXeXeXeXeXeXeXeXeXeXeXeXeXeXeXeXeXeX%     j.~.^.#.        v.E.~.F   7 1 4 4 eXeXeXeXeXeXeXeXeXeXeXeXeXeXeXeXeXeXeX",
"eXeXeXeXeXeXeXeXeXeXeXeXeXeXeXeXeXeXeXeXeXeXeXeX  g s . H +.+.m 6 C 5 d .X X.X^   7 4 ; @ eXeXeXeXeXeXeXeXeXeXeXeXeXeXeXeXeXeXeX",
"eXeXeXeXeXeXeXeXeXeXeXeXeXeXeXeXeXeXeXeXeXeXeXeX  h j =       & a h - f @X<X+X`   0 ; %   eXeXeXeXeXeXeXeXeXeXeXeXeXeXeXeXeXeXeX",
"eXeXeXeXeXeXeXeXeXeXeXeXeXeXeXeXeXeXeXeXeXeXeXeX  g h h > % 9 j h 4   f @X1X$XT   9 X   eXeXeXeXeXeXeXeXeXeXeXeXeXeXeXeXeXeXeXeX",
"eXeXeXeXeXeXeXeXeXeXeXeXeXeXeXeXeXeXeXeXeXeXeXeX  j I h j p . s h 2 @ 6 >.R.'.f.1.  ; eXeXeXeXeXeXeXeXeXeXeXeXeXeXeXeXeXeXeXeXeX",
"eXeXeXeXeXeXeXeXeXeXeXeXeXeXeXeXeXeXeXeXeXeXeXeX  j h j h Y Q U h a 5 i   #.v.^.f.  eXeXeXeXeXeXeXeXeXeXeXeXeXeXeXeXeXeXeXeXeXeX",
"eXeXeXeXeXeXeXeXeXeXeXeXeXeXeXeXeXeXeXeXeXeXeXeXeX    d   T 6X7.          1.~.~.a.  eXeXeXeXeXeXeXeXeXeXeXeXeXeXeXeXeXeXeXeXeXeX",
"eXeXeXeXeXeXeXeXeXeXeXeXeXeXeXeXeXeXeXeXeXeXeXeX  2.1.  b.G.;XH.S.D.D.S.& =.~.~.a.  eXeXeXeXeXeXeXeXeXeXeXeXeXeXeXeXeXeXeXeXeXeX",
"eXeXeXeXeXeXeXeXeXeXeXeXeXeXeXeXeXeXeXeXeXeXeX5 6 z.j.  *X6X;X;X6X6X6X;Xt 1.^./.a.  eXeXeXeXeXeXeXeXeXeXeXeXeXeXeXeXeXeXeXeXeXeX",
"eXeXeXeXeXeXeXeXeXeXeXeXeXeXeXeXeXeXeXeXeXeX  *.l.^.s.  ;XqXqXqX0XqX7X-Xr 0.$X$XT.  eXeXeXeXeXeXeXeXeXeXeXeXeXeXeXeXeXeXeXeXeXeX",
"eXeXeXeXeXeXeXeXeXeXeXeXeXeXeXeXeXeXeXeXeXeX  8.|.t.w.n.7XqXqXqXqXqX7X-Xr 0.1X<X{.&.J eXeXeXeXeXeXeXeXeXeXeXeXeXeXeXeXeXeXeXeXeX",
"eXeXeXeXeXeXeXeXeXeXeXeXeXeXeXeXeXeXeXeXeXeX  V.1X$ ..6X0XqXqXqXqXqX7X-Xr 0.<X$X X^._   eXeXeXeXeXeXeXeXeXeXeXeXeXeXeXeXeXeXeXeX",
"eXeXeXeXeXeXeXeXeXeXeXeXeXeXeXeXeXeXeXeXeXeX  C.3Xk b.qXqXqXqXqXqXqX7X-Xr 0.<X+X$XOX] . eXeXeXeXeXeXeXeXeXeXeXeXeXeXeXeXeXeXeXeX",
"eXeXeXeXeXeXeXeXeXeXeXeXeXeXeXeXeXeXeXeXeXeX  6.{.+ M.qXqXqXqXqXqXqX7X-Xt 0.2X+X+X<X'   eXeXeXeXeXeXeXeXeXeXeXeXeXeXeXeXeXeXeXeX",
"eXeXeXeXeXeXeXeXeXeXeXeXeXeXeXeXeXeXeXeXeXeXeXeX    M.qXqXqXqXqXqXqX7X=X  q.2X$X<X1X[   eXeXeXeXeXeXeXeXeXeXeXeXeXeXeXeXeXeXeXeX",
"eXeXeXeXeXeXeXeXeXeXeXeXeXeXeXeXeXeXeXeXeXeXeXeXeX  N.qXqXqXqXqXqXqXqX0X*XS.$.;.;.:.eXeXeXeXeXeXeXeXeXeXeXeXeXeXeXeXeXeXeXeXeXeX",
"eXeXeXeXeXeXeXeXeXeXeXeXeXeXeXeXeXeXeXeXeXeXeXeXeX  m.wX8X8X6X0XqX6X8X9X;XS..       eXeXeXeXeXeXeXeXeXeXeXeXeXeXeXeXeXeXeXeXeXeX",
"eXeXeXeXeXeXeXeXeXeXeXeXeXeXeXeXeXeXeXeXeXeXeXeXeX  L e.p.3.  eXeX  X.e.e.%.  eXeXeXeXeXeXeXeXeXeXeXeXeXeXeXeXeXeXeXeXeXeXeXeXeX",
"eXeXeXeXeXeXeXeXeXeXeXeXeXeXeXeXeXeXeXeXeXeXeXeXeX  ] P.i.8.  eXeX  5.P.i.$.  eXeXeXeXeXeXeXeXeXeXeXeXeXeXeXeXeXeXeXeXeXeXeXeXeX",
"eXeXeXeXeXeXeXeXeXeXeXeXeXeXeXeXeXeXeXeXeXeXeXeXeX  ' Y.A.7.  eXeX  5.Y.A.>.  eXeXeXeXeXeXeXeXeXeXeXeXeXeXeXeXeXeXeXeXeXeXeXeXeX",
"eXeXeXeXeXeXeXeXeXeXeXeXeXeXeXeXeXeXeXeXeXeXeXeXeX. -.{.A.5.  eXeX  ' C.Y.q.  eXeXeXeXeXeXeXeXeXeXeXeXeXeXeXeXeXeXeXeXeXeXeXeXeX",
"eXeXeXeXeXeXeXeXeXeXeXeXeXeXeXeXeXeXeXeXeXeXeXeXeXeX^ 6.0.B.} T .   ;.I.I.5.  eXeXeXeXeXeXeXeXeXeXeXeXeXeXeXeXeXeXeXeXeXeXeXeXeX",
"eXeXeXeXeXeXeXeXeXeXeXeXeXeXeXeXeXeXeXeXeXeXeXeXeXeXeX  | M.N.W     6.Y.C.$.  eXeXeXeXeXeXeXeXeXeXeXeXeXeXeXeXeXeXeXeXeXeXeXeXeX",
"eXeXeXeXeXeXeXeXeXeXeXeXeXeXeXeXeXeXeXeXeXeXeXeXeXeXeX  A.T.C./   eXc Z b.b.n.j   eXeXeXeXeXeXeXeXeXeXeXeXeXeXeXeXeXeXeXeXeXeXeX",
"eXeXeXeXeXeXeXeXeXeXeXeXeXeXeXeXeXeXeXeXeXeXeXeXeXeXeX  7.0.;.Z   eX  O Z.Z.m.v   eXeXeXeXeXeXeXeXeXeXeXeXeXeXeXeXeXeXeXeXeXeXeX",
"eXeXeXeXeXeXeXeXeXeXeXeXeXeXeXeXeXeXeXeXeXeXeXeXeXeXeX          O eX  i T.U.q.C   eXeXeXeXeXeXeXeXeXeXeXeXeXeXeXeXeXeXeXeXeXeXeX",
"eXeXeXeXeXeXeXeXeXeXeXeXeXeXeXeXeXeXeXeXeXeXeXeXeX  p T i @ =     eX  o S Q C =   eXeXeXeXeXeXeXeXeXeXeXeXeXeXeXeXeXeXeXeXeXeXeX",
"eXeXeXeXeXeXeXeXeXeXeXeXeXeXeXeXeXeXeXeXeXeXeXeXeX= g R u         eX  .       .   eXeXeXeXeXeXeXeXeXeXeXeXeXeXeXeXeXeXeXeXeXeXeX",
"eXeXeXeXeXeXeXeXeXeXeXeXeXeXeXeXeXeXeXeX          T Y                 O W Y             eXeXeXeXeXeXeXeXeXeXeXeXeXeXeXeXeXeXeXeX",
"eXeXeXeXeXeXeXeXeXeXeXeXeXeXeXeXeXeXeX            u u                   u *               eXeXeXeXeXeXeXeXeXeXeXeXeXeXeXeXeXeXeX",
"eXeXeXeXeXeXeXeXeXeXeXeXeXeXeXeXeXeXeX                                                    eXeXeXeXeXeXeXeXeXeXeXeXeXeXeXeXeXeXeX",
"eXeXeXeXeXeXeXeXeXeXeXeXeXeXeXeXeXeXeXeX          O                     O               eXeXeXeXeXeXeXeXeXeXeXeXeXeXeXeXeXeXeXeX",
"eXeXeXeXeXeXeXeXeXeXeXeXeXeXeXeXeXeXeXeXeXeXeXeXeX                              eXeXeXeXeXeXeXeXeXeXeXeXeXeXeXeXeXeXeXeXeXeXeXeX",
"eXeXeXeXeXeXeXeXeXeXeXeXeXeXeXeXeXeXeXeXeXeXeXeXeX                            eXeXeXeXeXeXeXeXeXeXeXeXeXeXeXeXeXeXeXeXeXeXeXeXeX"
};
