/* XPM */
static char *result[] = {
/* columns rows colors chars-per-pixel */
"64 64 245 2 ",
"   c #000000",
".  c #080606",
"X  c #140A04",
"o  c #041308",
"O  c #1C1609",
"+  c #1A160A",
"@  c #000518",
"#  c #121212",
"$  c #181A1D",
"%  c #251D0D",
"&  c #261B06",
"*  c #2A130B",
"=  c #042407",
"-  c #01371B",
";  c #05310C",
":  c #28210E",
">  c #2A2515",
",  c #352B16",
"<  c #382D18",
"1  c #3C331D",
"2  c #30270F",
"3  c #000025",
"4  c #122F25",
"5  c #292A2A",
"6  c #322B23",
"7  c #3B3427",
"8  c #3A3B3B",
"9  c #323632",
"0  c #292D30",
"q  c #44371E",
"w  c #4B3301",
"e  c #493D26",
"r  c #443E36",
"t  c #522E00",
"y  c #034500",
"u  c #094613",
"i  c #007310",
"p  c #024924",
"a  c #025B26",
"s  c #2B4A28",
"d  c #365D37",
"f  c #067937",
"g  c #03692B",
"h  c #246E21",
"j  c #5A4507",
"k  c #7B520E",
"l  c #58492A",
"z  c #53483C",
"x  c #465535",
"c  c #524B30",
"v  c #61522F",
"b  c #645532",
"n  c #685838",
"m  c #775A38",
"M  c #6B532E",
"N  c #7A623B",
"B  c #001D42",
"V  c #284952",
"C  c #2A5366",
"Z  c #0E4F67",
"A  c #464545",
"S  c #555555",
"D  c #5D5C5C",
"F  c #5B5856",
"G  c #4E5050",
"H  c #685C46",
"J  c #756345",
"K  c #766956",
"L  c #6D624D",
"P  c #656667",
"I  c #7E7E7F",
"U  c #767778",
"Y  c #7D766A",
"T  c #576F57",
"R  c #906A3F",
"E  c #FF7400",
"W  c #856642",
"Q  c #9A7549",
"!  c #816C5B",
"~  c #8C6F4D",
"^  c #A37B4D",
"/  c #A47E50",
"(  c #877765",
")  c #835F42",
"_  c #2C8F05",
"`  c #02833A",
"'  c #0FAD3D",
"]  c #31B03A",
"[  c #379126",
"{  c #479419",
"}  c #64BE0D",
"|  c #52B726",
" . c #3DC400",
".. c #65CA00",
"X. c #69D40B",
"o. c #4EC535",
"O. c #62D529",
"+. c #69E300",
"@. c #029A43",
"#. c #00A74A",
"$. c #00AE54",
"%. c #0DB252",
"&. c #27AF53",
"*. c #0CAC72",
"=. c #759456",
"-. c #52CA6D",
";. c #FF9400",
":. c #FFB600",
">. c #FFAE0C",
",. c #80DE00",
"<. c #FCCF00",
"1. c #FCD538",
"2. c #B48857",
"3. c #AB855B",
"4. c #96826A",
"5. c #9B8873",
"6. c #948675",
"7. c #A6917A",
"8. c #B69778",
"9. c #B0916E",
"0. c #9A995F",
"q. c #D39C5C",
"w. c #C7955B",
"e. c #CC9C66",
"r. c #D9A468",
"t. c #C3A17E",
"y. c #E6AF72",
"u. c #ECB374",
"i. c #FCBE7A",
"p. c #F6BB76",
"a. c #EEAD6C",
"s. c #F4B857",
"d. c #FFC37D",
"f. c #FFC275",
"g. c #FBD569",
"h. c #FBE47B",
"j. c #017D9A",
"k. c #016D8C",
"l. c #2A738A",
"z. c #0079A4",
"x. c #7E7F80",
"c. c #0B91B6",
"v. c #1D99A8",
"b. c #53BDA1",
"n. c #71D98E",
"m. c #008DCA",
"M. c #0094D2",
"N. c #009DD3",
"B. c #0099DA",
"V. c #0092CB",
"C. c #00A4DA",
"Z. c #1BA5D5",
"A. c #31A9DA",
"S. c #3BB2E4",
"D. c #00ACEA",
"F. c #58B0DB",
"G. c #4EACD5",
"H. c #6DB2D1",
"J. c #49B7E3",
"K. c #5EBEED",
"L. c #6BBCE2",
"P. c #58C3F0",
"I. c #74C5E9",
"U. c #75CDF2",
"Y. c #5DC3C3",
"T. c #828282",
"R. c #8A8B8D",
"E. c #8A8E91",
"W. c #939393",
"Q. c #8C9093",
"!. c #AA9885",
"~. c #B29C83",
"^. c #BCA48B",
"/. c #B5A18B",
"(. c #AAAAAA",
"). c #BBB7BD",
"_. c #B0AEAB",
"`. c #C4A98B",
"'. c #C2AD95",
"]. c #CAB398",
"[. c #D4BA9C",
"{. c #D7B694",
"}. c #D4B28C",
"|. c #ECB390",
" X c #D8BDA3",
".X c #F4AAB4",
"XX c #B3E0A0",
"oX c #FFC582",
"OX c #FFCA85",
"+X c #FFCB8C",
"@X c #FECC93",
"#X c #FFCE98",
"$X c #F3CC9C",
"%X c #E6CBA6",
"&X c #FBD5A8",
"*X c #FADCB9",
"=X c #F6CFB1",
"-X c #FEE2BC",
";X c #FFE7B5",
":X c #FEE8A2",
">X c #DEC3A5",
",X c #92BCD3",
"<X c #ACBEC8",
"1X c #D3A5C7",
"2X c #B6C8D4",
"3X c #97C7E6",
"4X c #88DAF9",
"5X c #89C9E5",
"6X c #A5CEEA",
"7X c #A6D3EC",
"8X c #B8D6E8",
"9X c #B6DDF4",
"0X c #93EDFF",
"qX c #99E8FD",
"wX c #A7EDFF",
"eX c #B8E8F9",
"rX c #B7F1FF",
"tX c #B3E9F5",
"yX c #ABE3C6",
"uX c #CBCAC8",
"iX c #D3D3D3",
"pX c #DADADA",
"aX c #DCD6DA",
"sX c #D1D1D3",
"dX c #F3D6C1",
"fX c #D9E2DB",
"gX c #FEE7C3",
"hX c #F5EDD0",
"jX c #C4DDEC",
"kX c #C8E7F5",
"lX c #D6E8F5",
"zX c #CCF3FE",
"xX c #C8F3FE",
"cX c #D3F6FF",
"vX c #DAF7FF",
"bX c #CFE0EF",
"nX c #E6E5E4",
"mX c #F3EDE8",
"MX c #F7F4EA",
"NX c #ECFBFF",
"BX c #E6F7FB",
"VX c #FEFEFE",
"CX c #F4F7F8",
"ZX c #E4EEF6",
"AX c None",
/* pixels */
"AXAXAXAXAXAXAXAXAXAXAXAXAXAXAXAXAXAXAXAXAXAXAXAXAXAXAX#       . #           AXAXAXAXAXAXAXAXAXAXAXAXAXAXAXAXAXAXAXAXAXAXAXAXAXAX",
"AXAXAXAXAXAXAXAXAXAXAXAXAXAXAXAXAXAXAXAXAXAXAXAXAXAXAX  x.(.A     R.(.  % q AXAXAXAXAXAXAXAXAXAXAXAXAXAXAXAXAXAXAXAXAXAXAXAXAXAX",
"AXAXAXAXAXAXAXAXAXAXAXAXAXAXAXAXAXAXAXAXAXAXAXAX. . 0    XVXP     nXVX@ q N %     AXAXAXAXAXAXAXAXAXAXAXAXAXAXAXAXAXAXAXAXAXAXAX",
"AXAXAXAXAXAXAXAXAXAXAXAXAXAXAXAXAXAXAXAXAXAX        .   S T.0     P U #     z H l ,   AXAXAXAXAXAXAXAXAXAXAXAXAXAXAXAXAXAXAXAXAX",
"AXAXAXAXAXAXAXAXAXAXAXAXAXAXAXAXAXAXAXAXAXAXC C , C C 5     & > 7       S =.P H n c & AXAXAXAXAXAXAXAXAXAXAXAXAXAXAXAXAXAXAXAXAX",
"AXAXAXAXAXAXAXAXAXAXAXAXAXAXAXAXAXAXAXAXAXD.B.c.k c.M.* j H v n K 9 5   ).VXP   K n l o   AXAXAXAXAXAXAXAXAXAXAXAXAXAXAXAXAXAXAX",
"AXAXAXAXAXAXAXAXAXAXAXAXAXAXAXAXAXAXAXM.3XlXtX5Xj.2XjXc.C j n v n l l   U _.8 , K H n .   AXAXAXAXAXAXAXAXAXAXAXAXAXAXAXAXAXAXAX",
"AXAXAXAXAXAXAXAXAXAXAXAXAXAXAXAXAXAXAXC.kXVXNXeXN.ZXVXS.v.t H M v b z >       7 K L H O X AXAXAXAXAXAXAXAXAXAXAXAXAXAXAXAXAXAXAX",
"AXAXAXAXAXAXAXAXAXAXAXAXAXAXAXAXAXC.K.VXNXcXzXcXVXcXzXVX8Xm.Z : n v v v e @ #     w n v q   AXAXAXAXAXAXAXAXAXAXAXAXAXAXAXAXAXAX",
"AXAXAXAXAXAXAXAXAXAXAXAXAXAXAXAXAXAXF.bXkXrXfXdXgXCXBXbX2X<X9.Q c l v b l e   D _.Y j n e   AXAXAXAXAXAXAXAXAXAXAXAXAXAXAXAXAXAX",
"AXAXAXAXAXAXAXAXAXAXAXAXAXAXAXAXAXAXAXV.P.wXs.:.<.hXCXM.2X;X+Xy.  l n v b n   W.VX_.2 N e   AXAXAXAXAXAXAXAXAXAXAXAXAXAXAXAXAXAX",
"AXAXAXAXAXAXAXAXAXAXAXAXAXN.AXAXM.N.S.4XqXwXa.;.<.hXcXkX6XH.*X$Xa.~ . b v b   8 =.L l 1 %   AXAXAXAXAXAXAXAXAXAXAXAXAXAXAXAXAXAX",
"AXAXAXAXAXAXAXAXAXAXAXAXL.4XAXAXU.S.S.rXeXwX|.y.p.fXzXNX7XM.dX-X+X9.m b v v 1 . @ w l < :   AXAXAXAXAXAXAXAXAXAXAXAXAXAXAXAXAXAX",
"AXAXAXAXAXAXAXAXAXAXAXM.8XVXS.J.BXL.Z.VXNXxXwXwX0XrXcXVXjXV.dX-X-X:Xi.o 1 n b l $ # : n l   AXAXAXAXAXAXAXAXAXAXAXAXAXAXAXAXAXAX",
"AXAXAXAXAXAXAXAXAXAXF.bXlXBXbXbXcX9X7X6XbXVX5XI.qXvXNX6X2XuXgX%X7.3.^ r./ : c 1 . q e e 2   AXAXAXAXAXAXAXAXAXAXAXAXAXAXAXAXAXAX",
"AXAXAXAXAXAXAXAXAXN.P.VXNXxXVXVXzXcXzXM.6XVXF.J.qXBXCXN.2X-X*X[.  @ A d.e., c , q l b * X   AXAXAXAXAXAXAXAXAXAXAXAXAXAXAXAXAXAX",
"AXAXAXAXAXAXAXAXAXAXAXM.8XVXh.1.>.sX4XC.b.X.qX4XZ.A.H.*X*X-X! 6 @ ].iX  2.oXm Q OXQ   < O   AXAXAXAXAXAXAXAXAXAXAXAXAXAXAXAXAXAX",
"AXAXAXAXAXAXAXAXAXAXAXI.eXVXg.<.;.jX0XI.Y.-.9X7XN.N.G.-XdXuXG     <XaX  2.+XN Q OXQ   < O   AXAXAXAXAXAXAXAXAXAXAXAXAXAXAXAXAXAX",
"AXAXAXAXAXAXAXAXAXC.P.cXcXzXp.:.E uX0XwXU.M.aXsXN.C.G.;X2XB.V *   <XiX  2.d.M Q OXQ   < O   AXAXAXAXAXAXAXAXAXAXAXAXAXAXAXAXAXAX",
"AXAXAXAXAXAXAXAXAXN.P.VXBXxXjX8X8XxXxXVX8XM.G.5XBXkX8XH.2XCXG.z.  iXVX%X&X*X%X%Xd.3.  < O   AXAXAXAXAXAXAXAXAXAXAXAXAXAXAXAXAXAX",
"AXAXAXAXAXAXAXAXAXN.F.BXBXvXwX0X4XxXBXCX6XB.F.7XVXBXzXF.jXVX3XH.B aXMXdXgXgX*X&Xu.R   , O   AXAXAXAXAXAXAXAXAXAXAXAXAXAXAXAXAXAX",
"AXAXAXAXAXAXAXAXAXAXAXB.9XVXrX4Xm.lXVXC.C.C.VXVXzXzXcXVXNXeXVXBXB.1X.X.X=X-X+Xa.x q % 2 O   AXAXAXAXAXAXAXAXAXAXAXAXAXAXAXAXAXAX",
"AXAXAXAXAXAXAXAXAXAXAXAX3X9XI.I.U.yXXXl.k.k.,X9XtXfX&X:XhXNX8X2XuXdXdXdX&X#Xe.Q q 1 % X X AXAXAXAXAXAXAXAXAXAXAXAXAXAXAXAXAXAXAX",
"AXAXAXAXAXAXAXAXAXAXAXAXAXN.M.J.wXn. .y = X m.J.qX>X:.<.;XVXG.H.*X*X*XdX&Xf.J > % : :     AXAXAXAXAXAXAXAXAXAXAXAXAXAXAXAXAXAXAX",
"AXAXAXAXAXAXAXAXAXAXAXAXAXAXAXAXV &.&.; k.N.4XqX0X|.;.:.&XxXzXtXB. Xf.OXd.oXv   , > :     AXAXAXAXAXAXAXAXAXAXAXAXAXAXAXAXAXAXAX",
"AXAXAXAXAXAXAXAXAXAXAXAXAXAXAXy ; ' $.y v.C.tXzXtXuX X%XfXzXNXkXB. Xf.|.d.d.w.~ X 2 % + X AXAXAXAXAXAXAXAXAXAXAXAXAXAXAXAXAXAXAX",
"AXAXAXAXAXAXAXAXAXAXAXAXAXp p a - @.$.; c.N.CXVXzXwXqXqXrXzXVXZXB.[.f.OXoXi.OXy.  , : 2 O   AXAXAXAXAXAXAXAXAXAXAXAXAXAXAXAXAXAX",
"AXAXAXAXAXAXAXAXAXAXAX3 { ....| #.f g ' $.v.H.7XVX6XJ.qXcXVX3XY.-.0.N M e.OXoXr.  % > : O   AXAXAXAXAXAXAXAXAXAXAXAXAXAXAXAXAXAX",
"AXAXAXAXAXAXAXAXAXAXAXh | O.O.o.$.f p #.#.] c.Y.MX,XV.5XjXmXG.c.X._ i   ^ u.oXy.m e X 2 O   AXAXAXAXAXAXAXAXAXAXAXAXAXAXAXAXAXAX",
"AXAXAXAXAXAXAXAXAX- h X.o.#.$.#.f f f - ` $.%.&.+.i         #.&.$.O...d o   u.oXOX^   < O   AXAXAXAXAXAXAXAXAXAXAXAXAXAXAXAXAXAX",
"AXAXAXAXAXAXAXAXAX- g o.] f ` g a a a = g ` o.| _ 8.[.].].[.[ g ` [ { @ ( [.i.i.OXQ   2 X AXAXAXAXAXAXAXAXAXAXAXAXAXAXAXAXAXAXAX",
"AXAXAXAXAXAXAXAXAXp a %.` o d c c x x   ; - ....   XhX;X;XgX! * s 0 s   `.gX+Xi.oXQ   O AXAXAXAXAXAXAXAXAXAXAXAXAXAXAXAXAXAXAXAX",
"AXAXAXAXAXAXAXAXAXp a a p   %X-X-X@Xu.s a f X.}   [.gXdX&Xi.*X X    7 *X&Xi.+Xy.% AXAXAXAXAXAXAXAXAXAXAXAXAXAXAXAXAXAXAXAXAXAXAX",
"AXAXAXAXAXAXAXAXAXAXp p ;   $X&X&X+Xp.s a f X.}   {.&X&X@Xf.&X%X7.7.~.&X@Xf.r.2.  AXAXAXAXAXAXAXAXAXAXAXAXAXAXAXAXAXAXAXAXAXAXAX",
"AXAXAXAXAXAXAXAXAXAXAXAXAX  p.d.d.oXd.s a f X.}   r.OXi.d.OXi.@XgXgX-Xf.i.OXl   AXAXAXAXAXAXAXAXAXAXAXAXAXAXAXAXAXAXAXAXAXAXAXAX",
"AXAXAXAXAXAXAXAXAXAXAXAXAXAXN W J N J 4 f %.i =.p.2.m W m k M 2.@X+X+X+Xq.j AXAXAXAXAXAXAXAXAXAXAXAXAXAXAXAXAXAXAXAXAXAXAXAXAXAX",
"AXAXAXAXAXAXAXAXAXAXAXAXAXAX          - f %.- R p.~     V P 3 J u.y.u.u.8.C AXAXAXAXAXAXAXAXAXAXAXAXAXAXAXAXAXAXAXAXAXAXAXAXAXAX",
"AXAXAXAXAXAXAXAXAXAXAXAXAXAXAXAXAXAXAXp p p =     AXAX  W.nXx           W.nXD . AXAXAXAXAXAXAXAXAXAXAXAXAXAXAXAXAXAXAXAXAXAXAXAX",
"AXAXAXAXAXAXAXAXAXAXAXAXAXAXAXAXAXAXAXAXAXAXAXAXAX  G (.uXCXiXuXsXuXuXuXiXaXD   AXAXAXAXAXAXAXAXAXAXAXAXAXAXAXAXAXAXAXAXAXAXAXAX",
"AXAXAXAXAXAXAXAXAXAXAXAXAXAXAXAXAXAXAXAXAXAXAXAXAX  D pXCXVXVXVXVXVXVXVXMXaXP   AXAXAXAXAXAXAXAXAXAXAXAXAXAXAXAXAXAXAXAXAXAXAXAX",
"AXAXAXAXAXAXAXAXAXAXAXAXAXAXAXAXAXAXAXAXAXAXAXAXAX  D VXVXVXVXVXVXVXCXpXpXpXD   AXAXAXAXAXAXAXAXAXAXAXAXAXAXAXAXAXAXAXAXAXAXAXAX",
"AXAXAXAXAXAXAXAXAXAXAXAXAXAXAXAXAXAXAXAXAXAXAXAXAX  D VXVXVXVXVXVXVXVXpXpXpXD   AXAXAXAXAXAXAXAXAXAXAXAXAXAXAXAXAXAXAXAXAXAXAXAX",
"AXAXAXAXAXAXAXAXAXAXAXAXAXAXAXAXAXAXAXAXAXAXAXAXAX  D VXVXVXVXVXVXVXCXpXaXpXD   AXAXAXAXAXAXAXAXAXAXAXAXAXAXAXAXAXAXAXAXAXAXAXAX",
"AXAXAXAXAXAXAXAXAXAXAXAXAXAXAXAXAXAXAXAXAXAXAXAXAX  D VXVXVXVXVXVXVXVXpXpXfXP   AXAXAXAXAXAXAXAXAXAXAXAXAXAXAXAXAXAXAXAXAXAXAXAX",
"AXAXAXAXAXAXAXAXAXAXAXAXAXAXAXAXAXAXAXAXAXAXAXAXAX  F MXmXmXnXmXMXMXmXiXuXuXD   AXAXAXAXAXAXAXAXAXAXAXAXAXAXAXAXAXAXAXAXAXAXAXAX",
"AXAXAXAXAXAXAXAXAXAXAXAXAXAXAXAXAXAXAXAXAXAXAXAXAX  q q.q.q.* j q.q.q.q.R   AXAXAXAXAXAXAXAXAXAXAXAXAXAXAXAXAXAXAXAXAXAXAXAXAXAX",
"AXAXAXAXAXAXAXAXAXAXAXAXAXAXAXAXAXAXAXAXAXAXAXAXAX  r }.`.t.7 H {.t.8.{.3.  AXAXAXAXAXAXAXAXAXAXAXAXAXAXAXAXAXAXAXAXAXAXAXAXAXAX",
"AXAXAXAXAXAXAXAXAXAXAXAXAXAXAXAXAXAXAXAXAXAXAXAXAX  r ].`.8.7 L [.^.~. X7.  AXAXAXAXAXAXAXAXAXAXAXAXAXAXAXAXAXAXAXAXAXAXAXAXAXAX",
"AXAXAXAXAXAXAXAXAXAXAXAXAXAXAXAXAXAXAXAXAXAXAXAXAX  r ~.`.[.7 z ^.'.].~.K   AXAXAXAXAXAXAXAXAXAXAXAXAXAXAXAXAXAXAXAXAXAXAXAXAXAX",
"AXAXAXAXAXAXAXAXAXAXAXAXAXAXAXAXAXAXAXAXAXAXAXAXAXAX7 ! ~. X( L ! `.[.~.7.( z AXAXAXAXAXAXAXAXAXAXAXAXAXAXAXAXAXAXAXAXAXAXAXAXAX",
"AXAXAXAXAXAXAXAXAXAXAXAXAXAXAXAXAXAXAXAXAXAXAXAXAXAXAX  4. X^.5.  ~.[.7.`.>XF   AXAXAXAXAXAXAXAXAXAXAXAXAXAXAXAXAXAXAXAXAXAXAXAX",
"AXAXAXAXAXAXAXAXAXAXAXAXAXAXAXAXAXAXAXAXAXAXAXAXAXAXAX  ! ^.].~.  5.`.].'.~.z   AXAXAXAXAXAXAXAXAXAXAXAXAXAXAXAXAXAXAXAXAXAXAXAX",
"AXAXAXAXAXAXAXAXAXAXAXAXAXAXAXAXAXAXAXAXAXAXAXAXAXAXAX  K !.'.!.  ( !.]./.!.r   AXAXAXAXAXAXAXAXAXAXAXAXAXAXAXAXAXAXAXAXAXAXAXAX",
"AXAXAXAXAXAXAXAXAXAXAXAXAXAXAXAXAXAXAXAXAXAXAXAXAXAXAX  P Q.E.x.  U Q.E.E.E.8   AXAXAXAXAXAXAXAXAXAXAXAXAXAXAXAXAXAXAXAXAXAXAXAX",
"AXAXAXAXAXAXAXAXAXAXAXAXAXAXAXAXAXAXAXAXAXAXAXAXAXAXAX  ( '.!.6.  !._.!.~.'.A   AXAXAXAXAXAXAXAXAXAXAXAXAXAXAXAXAXAXAXAXAXAXAXAX",
"AXAXAXAXAXAXAXAXAXAXAXAXAXAXAXAXAXAXAXAXAXAXAXAXAXAXAX  6.[.~.6.  8.{.7.^. Xb   AXAXAXAXAXAXAXAXAXAXAXAXAXAXAXAXAXAXAXAXAXAXAXAX",
"AXAXAXAXAXAXAXAXAXAXAXAXAXAXAXAXAXAXAXAXAXAXAXAXAXAXAX  X 6 5 >   > 6 $ > 7 #   AXAXAXAXAXAXAXAXAXAXAXAXAXAXAXAXAXAXAXAXAXAXAXAX",
"AXAXAXAXAXAXAXAXAXAXAXAXAXAXAXAXAXAXAXAXAXAXAXAXAXAXAX9 0 5       $ 0 0 $     0 AXAXAXAXAXAXAXAXAXAXAXAXAXAXAXAXAXAXAXAXAXAXAXAX",
"AXAXAXAXAXAXAXAXAXAXAXAXAXAXAXAXAXAXAXAXAXAXAXAXW.G   S S S 5 .   A D S r .   A W.AXAXAXAXAXAXAXAXAXAXAXAXAXAXAXAXAXAXAXAXAXAXAX",
"AXAXAXAXAXAXAXAXAXAXAXAXAXAXAXAXAXAXAXAXAXAXI I T.A   # # # . .     # #     P U I I I AXAXAXAXAXAXAXAXAXAXAXAXAXAXAXAXAXAXAXAXAX",
"AXAXAXAXAXAXAXAXAXAXAXAXAXAXAXAXAXAXAXAXAXAXI I T.F 9 8 8 r 8 8 8 8 8 8 8 8 U T.I I I AXAXAXAXAXAXAXAXAXAXAXAXAXAXAXAXAXAXAXAXAX",
"AXAXAXAXAXAXAXAXAXAXAXAXAXAXAXAXAXAXAXAXAXAXAXAXW.R.R.I T.T.I I T.T.I T.T.T.T.R.W.AXAXAXAXAXAXAXAXAXAXAXAXAXAXAXAXAXAXAXAXAXAXAX",
"AXAXAXAXAXAXAXAXAXAXAXAXAXAXAXAXAXAXAXAXAXAXAXAXAXAXAXI I I I I I I I I b.( AXAXAXAXAXAXAXAXAXAXAXAXAXAXAXAXAXAXAXAXAXAXAXAXAXAX",
"AXAXAXAXAXAXAXAXAXAXAXAXAXAXAXAXAXAXAXAXAXAXAXAXAXAXAXI I I T.I I I I T.( T.AXAXAXAXAXAXAXAXAXAXAXAXAXAXAXAXAXAXAXAXAXAXAXAXAXAX"
};
