/* XPM */
static char *result[] = {
/* columns rows colors chars-per-pixel */
"64 64 219 2 ",
"   c #000000",
".  c #0C0000",
"X  c #0D0902",
"o  c #0C0C0C",
"O  c #050709",
"+  c #120100",
"@  c #130D04",
"#  c #180706",
"$  c #041A05",
"%  c #15120F",
"&  c #1B1408",
"*  c #060D16",
"=  c #161616",
"-  c #1C1C1D",
";  c #1B1714",
":  c #140E18",
">  c #2F1D00",
",  c #241C0C",
"<  c #391E00",
"1  c #221915",
"2  c #002113",
"3  c #0F290C",
"4  c #25220E",
"5  c #2B220E",
"6  c #3B2B02",
"7  c #2C2312",
"8  c #2E291B",
"9  c #28231A",
"0  c #312613",
"q  c #342916",
"w  c #342B1B",
"e  c #392E19",
"r  c #3D331C",
"t  c #36361A",
"y  c #2D3A1C",
"u  c #161C21",
"i  c #1D2D2E",
"p  c #292928",
"a  c #242321",
"s  c #352F25",
"d  c #322D2B",
"f  c #382F24",
"g  c #3A3124",
"h  c #3C342B",
"j  c #343434",
"k  c #3C3C3C",
"l  c #393734",
"z  c #453A1F",
"x  c #423518",
"c  c #452A00",
"v  c #4A3E23",
"b  c #443B27",
"n  c #403F3F",
"m  c #574400",
"M  c #694716",
"N  c #4B4127",
"B  c #524426",
"V  c #54462B",
"C  c #55492A",
"Z  c #5A4D2C",
"A  c #5F512E",
"S  c #4C4539",
"D  c #544936",
"F  c #53483B",
"G  c #5D5233",
"H  c #5B513B",
"J  c #62532E",
"K  c #655532",
"L  c #6E5436",
"P  c #6A5933",
"I  c #6E5439",
"U  c #6C5D39",
"Y  c #655838",
"T  c #795E3A",
"R  c #745935",
"E  c #694E30",
"W  c #7B633D",
"Q  c #3C3E40",
"!  c #394A49",
"~  c #444343",
"^  c #4D4C4D",
"/  c #4A4745",
"(  c #5A5348",
")  c #585858",
"_  c #544C50",
"`  c #665C46",
"'  c #6A5F44",
"]  c #6A5D4C",
"[  c #645646",
"{  c #6E634C",
"}  c #6E6245",
"|  c #736549",
" . c #786C57",
".. c #7F715F",
"X. c #5F6576",
"o. c #696968",
"O. c #737474",
"+. c #7B7978",
"@. c #706861",
"#. c #80663D",
"$. c #EF4D2D",
"%. c #EF5032",
"&. c #816340",
"*. c #866843",
"=. c #95744A",
"-. c #82725F",
";. c #A37E54",
":. c #A3794A",
">. c #847663",
",. c #8A7F6C",
"<. c #827C78",
"1. c #927E68",
"2. c #F1785C",
"3. c #A8845B",
"4. c #B38D5B",
"5. c #B78B56",
"6. c #BD935E",
"7. c #93816A",
"8. c #9C8B76",
"9. c #B08F71",
"0. c #A49179",
"q. c #AD987E",
"w. c #B79B7B",
"e. c #A18D74",
"r. c #C08D50",
"t. c #D39D5B",
"y. c #CA9A64",
"u. c #CA9D68",
"i. c #D29D64",
"p. c #C49A70",
"a. c #DBA464",
"s. c #D3A26A",
"d. c #DAA66C",
"f. c #D9A86C",
"g. c #DDAB74",
"h. c #CFA16A",
"j. c #E1AC71",
"k. c #EDB679",
"l. c #F1B675",
"z. c #F5BC7D",
"x. c #FCBE7B",
"c. c #F7B976",
"v. c #F4B46D",
"b. c #FFC17E",
"n. c #8A8B8B",
"m. c #858586",
"M. c #8F9192",
"N. c #939393",
"B. c #96959A",
"V. c #9B9B9A",
"C. c #918B95",
"Z. c #AC9C83",
"A. c #A2988C",
"S. c #A09F9D",
"D. c #B49D84",
"F. c #BBA58A",
"G. c #BAA688",
"H. c #B0A598",
"J. c #ABA8A7",
"K. c #B0AFAD",
"L. c #B5ADB7",
"P. c #B5B6B6",
"I. c #C39398",
"U. c #C98E9D",
"Y. c #F59F82",
"T. c #C5AA89",
"R. c #C4AD91",
"E. c #CAB296",
"W. c #C6B195",
"Q. c #D2B99B",
"!. c #D0AF89",
"~. c #F8A789",
"^. c #D495A2",
"/. c #FDAAB9",
"(. c #FFC483",
"). c #FFC986",
"_. c #FEC58A",
"`. c #FFCB8C",
"'. c #F5C38F",
"]. c #FFCE9B",
"[. c #F7C793",
"{. c #FFD19B",
"}. c #DCC4A4",
"|. c #DCC7A8",
" X c #E0C6A7",
".X c #E9CEAD",
"XX c #FDD2A3",
"oX c #FFD7AA",
"OX c #FFD8AB",
"+X c #F5D0A7",
"@X c #E8C9B7",
"#X c #FFC6BC",
"$X c #F3D6B4",
"%X c #FDDAB4",
"&X c #F4DAB9",
"*X c #FCDEBB",
"=X c #F6D6B5",
"-X c #FBC9A8",
";X c #FEE1BD",
":X c #FBE2BB",
">X c #FEB4C5",
",X c #CACBCB",
"<X c #DADADB",
"1X c gray82",
"2X c #FFCBC8",
"3X c #FEDFC0",
"4X c #FDD1DA",
"5X c #FEE4C1",
"6X c #FFEBC4",
"7X c #FFECC8",
"8X c #E7E3DF",
"9X c #E5DCE7",
"0X c #E3E4E3",
"qX c #ECECEC",
"wX c #E9E7E5",
"eX c #FEFEFE",
"rX c #F8F6F4",
"tX c #FAF2E5",
"yX c None",
/* pixels */
"yXyXyXyXyXyXyXyXyXyXyXyXyXyXyXyXyXyXyXyXyXyXyXyXyXyXyXyXyXyXyXyXyXyXyXyXyXyXyXyXyXyXyXyXyXyXyXyXyXyXyXyXyXyXyXyXyXyXyXyXyXyXyXyX",
"yXyXyXyXyXyXyXyXyXyXyXyXyXyXyXyXyXyXyXyXyXyXyXyXyXyXyXyXyXyXyXyXyXyXyXyXyXyXyXyXyXyXyXyXyXyXyXyXyXyXyXyXyXyXyXyXyXyXyXyXyXyXyXyX",
"yXyXyXyXyXyXyXyXyXyXyXyXyXyXyXyXyXyXyXyXyXyXyXyXyXyXyXyXyXyXyXyXyXyXyXyXyXyXyXyXyXyXyXyXyXyXyXyXyXyXyXyXyXyXyXyXyXyXyXyXyXyXyXyX",
"yXyXyXyXyXyXyXyXyXyXyXyXyXyXyXyXyXyXyXyXyXyXyXyXyXyXyXo     O O       o   yXyXyXyXyXyXyXyXyXyXyXyXyXyXyXyXyXyXyXyXyXyXyXyXyXyXyX",
"yXyXyXyXyXyXyXyXyXyXyXyXyXyXyXyXyXyXyXyXyXyXyXyXyXyX%   +.+.    p n.)   e 7 yXyXyXyXyXyXyXyXyXyXyXyXyXyXyXyXyXyXyXyXyXyXyXyXyXyX",
"yXyXyXyXyXyXyXyXyXyXyXyXyXyXyXyXyXyXyXyXyXyXyXyXX O 1   qXqX    ) eXP.  | V       yXyXyXyXyXyXyXyXyXyXyXyXyXyXyXyXyXyXyXyXyXyXyX",
"yXyXyXyXyXyXyXyXyXyXyXyXyXyXyXyXyXyXyXyXyXyX            o.o.    - O.^     6 ` C v   yXyXyXyXyXyXyXyXyXyXyXyXyXyXyXyXyXyXyXyXyXyX",
"yXyXyXyXyXyXyXyXyXyXyXyXyXyXyXyXyXyXyXyXyXyX8 8 8 q q 9     7 8 7     - o.o.Y U Z 4 yXyXyXyXyXyXyXyXyXyXyXyXyXyXyXyXyXyXyXyXyXyX",
"yXyXyXyXyXyXyXyXyXyXyXyXyXyXyXyXyXyXyXyX    } { { C t   G U J } ` *   j eX1X  { } J 5   yXyXyXyXyXyXyXyXyXyXyXyXyXyXyXyXyXyXyXyX",
"yXyXyXyXyXyXyXyXyXyXyXyXyXyXyXyXyXyXyX  b H Y Y G y.d.i.T t J P Y N 0 * S.+.  ` { ' 8   yXyXyXyXyXyXyXyXyXyXyXyXyXyXyXyXyXyXyXyX",
"yXyXyXyXyXyXyXyXyXyXyXyXyXyXyXyXyXyXyX  H  .J P W z.`.`.;.V P J A P v       O ` { | g @ yXyXyXyXyXyXyXyXyXyXyXyXyXyXyXyXyXyXyXyX",
"yXyXyXyXyXyXyXyXyXyXyXyXyXyXyXyXyXyXyX  S | 3 4.(.x.[.*X`.a.  B P J J J a * o     K J C   yXyXyXyXyXyXyXyXyXyXyXyXyXyXyXyXyXyXyX",
"yXyXyXyXyXyXyXyXyXyXyXyXyXyXyXyXyXyXyX  N } 4.j.(.{.OX5XOX[.6.| z J J J N t   K.J.m P C   yXyXyXyXyXyXyXyXyXyXyXyXyXyXyXyXyXyXyX",
"yXyXyXyXyXyXyXyXyXyXyXyXyXyXyXyXyXyXyX  z P b.(.b.%X5X*X5X%X`.3.2 P J A P V   qX8Xc Y C   yXyXyXyXyXyXyXyXyXyXyXyXyXyXyXyXyXyXyX",
"yXyXyXyXyXyXyXyXyXyXyXyXyXyXyXyXyXyXyX  z U l.].*X*X*X;X;X*X*X[.a.  N P J v   Q / J x ,   yXyXyXyXyXyXyXyXyXyXyXyXyXyXyXyXyXyXyX",
"yXyXyXyXyXyXyXyXyXyXyXyXyXyXyXyXyXyXyX  z U l.XX5X*X;X;X;X;X:XOX'.3.W B J C q   + C v e   yXyXyXyXyXyXyXyXyXyXyXyXyXyXyXyXyXyXyX",
"yXyXyXyXyXyXyXyXyXyXyXyXyXyXyXyXyXyXyX  z U l.{.;X*X;X;X;X;X*X5X:X).4.  P K K w ; @ Z A   yXyXyXyXyXyXyXyXyXyXyXyXyXyXyXyXyXyXyX",
"yXyXyXyXyXyXyXyXyXyXyXyXyXyXyXyXyXyXyXyX& g 6 G.7X*X;X;X;X*X7XD.V 5 5.k.b 4 v     J z 5   yXyXyXyXyXyXyXyXyXyXyXyXyXyXyXyXyXyXyX",
"yXyXyXyXyXyXyXyXyXyXyXyXyXyXyXyXyXyXyXyX  =   7.|.&X;X*X;X&X|. .  X.9.g.=.T t #.T C e &   yXyXyXyXyXyXyXyXyXyXyXyXyXyXyXyXyXyXyX",
"yXyXyXyXyXyXyXyXyXyXyXyXyXyXyXyXyXyXyXyX          .X5X*X5X}.    ^ 9XB.  (.f.y z.j.  q 4   yXyXyXyXyXyXyXyXyXyXyXyXyXyXyXyXyXyXyX",
"yXyXyXyXyXyXyXyXyXyXyXyXyXyXyXyXyXyXyXyX    L.C.  .X5X:X6X X    / 9XC.  x.i.$ z.d.  q ,   yXyXyXyXyXyXyXyXyXyXyXyXyXyXyXyXyXyXyX",
"yXyXyXyXyXyXyXyXyXyXyXyXyXyXyXyXyXyXyXyX# 1 9XL.  $X;X;X6X X  + _ 9XJ.K [.g. .z.d.  q ,   yXyXyXyXyXyXyXyXyXyXyXyXyXyXyXyXyXyXyX",
"yXyXyXyXyXyXyXyXyXyXyXyXyXyXyXyXyXyXyXyX    eXP.  .X5X:X;X}.    ! eXtX*X;X5X;X{.d.  q ,   yXyXyXyXyXyXyXyXyXyXyXyXyXyXyXyXyXyXyX",
"yXyXyXyXyXyXyXyXyXyXyXyXyXyXyXyXyXyXyXyXU.^.4X@XG.&X5X;X;X$XF.I.U.4X2X#X*X%X{.u.=.X q ,   yXyXyXyXyXyXyXyXyXyXyXyXyXyXyXyXyXyXyX",
"yXyXyXyXyXyXyXyXyXyXyXyXyXyXyXyXyXyXyXyX>X>X/.2X5X%X%X%X*X*X6X2X>X/././.*XXXl.W 4 0 4 ,   yXyXyXyXyXyXyXyXyXyXyXyXyXyXyXyXyXyXyX",
"yXyXyXyXyXyXyXyXyXyXyXyXyXyXyXyXyXyXyXyX: d =X5X*X2.%.%.-X5X*X*X*X5X3X*X`.s.G v 7 5 @   yXyXyXyXyXyXyXyXyXyXyXyXyXyXyXyXyXyXyXyX",
"yXyXyXyXyXyXyXyXyXyXyXyXyXyXyXyXyXyXyXyXyX3 Z. X6X~.Y.Y.oX5X;X;X*XXXXXXX(.y.$ r , 7 X   yXyXyXyXyXyXyXyXyXyXyXyXyXyXyXyXyXyXyXyX",
"yXyXyXyXyXyXyXyXyXyXyXyXyXyXyXyXyXyXyXyXyXyX  8.6X5X5X5X;X;X*X*X%Xx.x.x.).y.  q , 7 @   yXyXyXyXyXyXyXyXyXyXyXyXyXyXyXyXyXyXyXyX",
"yXyXyXyXyXyXyXyXyXyXyXyXyXyXyXyXyXyXyXyXyXyXyX/ ( i 3.`._._._._.`.).).).(.z.k.L   0 4 ,   yXyXyXyXyXyXyXyXyXyXyXyXyXyXyXyXyXyXyX",
"yXyXyXyXyXyXyXyXyXyXyXyXyXyXyXyXyXyXyXyXyXyXyXyX    R h.l.b.(.f.u.h.h.h.x.(.(.L   0 7 ,   yXyXyXyXyXyXyXyXyXyXyXyXyXyXyXyXyXyXyX",
"yXyXyXyXyXyXyXyXyXyXyXyXyXyXyXyXyXyXyXyXyXyXyXyXyX&     g.).).=.        b.~.x.E   0 5 ,   yXyXyXyXyXyXyXyXyXyXyXyXyXyXyXyXyXyXyX",
"yXyXyXyXyXyXyXyXyXyXyXyXyXyXyXyXyXyXyXyXyXyXyXyX  j d . I &.&.B 7 S 8 r +X%XOX`   q 5 ,   yXyXyXyXyXyXyXyXyXyXyXyXyXyXyXyXyXyXyX",
"yXyXyXyXyXyXyXyXyXyXyXyXyXyXyXyXyXyXyXyXyXyXyXyX  k j =       * d k u s $X5X;X]   w 5 ,   yXyXyXyXyXyXyXyXyXyXyXyXyXyXyXyXyXyXyX",
"yXyXyXyXyXyXyXyXyXyXyXyXyXyXyXyXyXyXyXyXyXyXyXyX  j k k 1 & r j k ~ u s $X;X;X]   q 5 ,   yXyXyXyXyXyXyXyXyXyXyXyXyXyXyXyXyXyXyX",
"yXyXyXyXyXyXyXyXyXyXyXyXyXyXyXyXyXyXyXyXyXyXyXyX  j k k j p . d k d O g $X5X:X]   1 & @ yXyXyXyXyXyXyXyXyXyXyXyXyXyXyXyXyXyXyXyX",
"yXyXyXyXyXyXyXyXyXyXyXyXyXyXyXyXyXyXyXyXyXyXyXyX  j k l n ~ ( / k f X g $X5X%X]   %     yXyXyXyXyXyXyXyXyXyXyXyXyXyXyXyXyXyXyXyX",
"yXyXyXyXyXyXyXyXyXyXyXyXyXyXyXyXyXyXyXyXyXyXyXyXyX  & s   ^ 0X<.      z &XoXx.I   yXyXyXyXyXyXyXyXyXyXyXyXyXyXyXyXyXyXyXyXyXyXyX",
"yXyXyXyXyXyXyXyXyXyXyXyXyXyXyXyXyXyXyXyXyXyXyXyXyXyX;   n.K.<XP.S.K.O.# &XoXx.L   yXyXyXyXyXyXyXyXyXyXyXyXyXyXyXyXyXyXyXyXyXyXyX",
"yXyXyXyXyXyXyXyXyXyXyXyXyXyXyXyXyXyXyXyXyXyXyXyXyXyXyX  ,X0X<X<X<X0XB.. &XoXx.L   yXyXyXyXyXyXyXyXyXyXyXyXyXyXyXyXyXyXyXyXyXyXyX",
"yXyXyXyXyXyXyXyXyXyXyXyXyXyXyXyXyXyXyXyXyXyXyXyXyXyXyX  <XeXeXqX,X      &XoXx.I   yXyXyXyXyXyXyXyXyXyXyXyXyXyXyXyXyXyXyXyXyXyXyX",
"yXyXyXyXyXyXyXyXyXyXyXyXyXyXyXyXyXyXyXyXyXyXyXyXyXyXo.n.wXeXeX,XV.0.0.q.+X].x.L   yXyXyXyXyXyXyXyXyXyXyXyXyXyXyXyXyXyXyXyXyXyXyX",
"yXyXyXyXyXyXyXyXyXyXyXyXyXyXyXyXyXyXyXyXyXyXyXyXyX  n.wXrXeXeXn.. 5X6X;X(.b.b.L   yXyXyXyXyXyXyXyXyXyXyXyXyXyXyXyXyXyXyXyXyXyXyX",
"yXyXyXyXyXyXyXyXyXyXyXyXyXyXyXyXyXyXyXyXyXyXyXyXyX  N.eXeXeXeXB.x &X;X*X_.i.V yXyXyXyXyXyXyXyXyXyXyXyXyXyXyXyXyXyXyXyXyXyXyXyXyX",
"yXyXyXyXyXyXyXyXyXyXyXyXyXyXyXyXyXyXyXyXyXyXyXyXyX  V.eXeXeXeXB.x *X*X*X{.p.  yXyXyXyXyXyXyXyXyXyXyXyXyXyXyXyXyXyXyXyXyXyXyXyXyX",
"yXyXyXyXyXyXyXyXyXyXyXyXyXyXyXyXyXyXyXyXyXyXyXyXyX  M.eXeXeXeXm.  ;X5X;X7XE.  yXyXyXyXyXyXyXyXyXyXyXyXyXyXyXyXyXyXyXyXyXyXyXyXyX",
"yXyXyXyXyXyXyXyXyXyXyXyXyXyXyXyXyXyXyXyXyXyXyXyXo ,XqXeXeXeXeXrX,X-.>.-.>.]   yXyXyXyXyXyXyXyXyXyXyXyXyXyXyXyXyXyXyXyXyXyXyXyXyX",
"yXyXyXyXyXyXyXyXyXyXyXyXyXyXyXyXyXyXyXyXyXyXyXyX  8XrXqXwXwXeXeXqX    < < > o yXyXyXyXyXyXyXyXyXyXyXyXyXyXyXyXyXyXyXyXyXyXyXyXyX",
"yXyXyXyXyXyXyXyXyXyXyXyXyXyXyXyXyXyXyXyXyXyXyXyX  r.t.a.M   yXyXyX  3.j.f.:.  yXyXyXyXyXyXyXyXyXyXyXyXyXyXyXyXyXyXyXyXyXyXyXyXyX",
"yXyXyXyXyXyXyXyXyXyXyXyXyXyXyXyXyXyXyXyXyXyXyXyX  T.!.w.I   yXyXyXyXE *.!.w.-.b yXyXyXyXyXyXyXyXyXyXyXyXyXyXyXyXyXyXyXyXyXyXyXyX",
"yXyXyXyXyXyXyXyXyXyXyXyXyXyXyXyXyXyXyXyXyXyXyXyX  R.R.q.(   yXyXyXyX  O E.E.D.n   yXyXyXyXyXyXyXyXyXyXyXyXyXyXyXyXyXyXyXyXyXyXyX",
"yXyXyXyXyXyXyXyXyXyXyXyXyXyXyXyXyXyXyXyXyXyXyXyX  E.Q.q.D   yXyXyXyX  f e.T.Q.(   yXyXyXyXyXyXyXyXyXyXyXyXyXyXyXyXyXyXyXyXyXyXyX",
"yXyXyXyXyXyXyXyXyXyXyXyXyXyXyXyXyXyXyXyXyXyXyXyX  1.e.A.+.)   yXyXyX. a D.R.T.F   yXyXyXyXyXyXyXyXyXyXyXyXyXyXyXyXyXyXyXyXyXyXyX",
"yXyXyXyXyXyXyXyXyXyXyXyXyXyXyXyXyXyXyXyXyXyXyXyXyX  ! C.N.<.  yXyXyX  9 E.R.0.S   yXyXyXyXyXyXyXyXyXyXyXyXyXyXyXyXyXyXyXyXyXyXyX",
"yXyXyXyXyXyXyXyXyXyXyXyXyXyXyXyXyXyXyXyXyXyXyXyXyX  ..}.F.8.  yXyXyXyXyXx o.N.n.O.  yXyXyXyXyXyXyXyXyXyXyXyXyXyXyXyXyXyXyXyXyXyX",
"yXyXyXyXyXyXyXyXyXyXyXyXyXyXyXyXyXyXyXyXyXyXyXyXyX  [ Z.7. .  yXyXyXyXyX  @.H.A.<.  yXyXyXyXyXyXyXyXyXyXyXyXyXyXyXyXyXyXyXyXyXyX",
"yXyXyXyXyXyXyXyXyXyXyXyXyXyXyXyXyXyXyXyXyXyXyXyXyX            yXyXyXyXyX  1.}.G.1.  yXyXyXyXyXyXyXyXyXyXyXyXyXyXyXyXyXyXyXyXyXyX",
"yXyXyXyXyXyXyXyXyXyXyXyXyXyXyXyXyXyXyXyXyXyXyXyX  ~ n @ & o   yXyXyXyXyX  b [ F h   yXyXyXyXyXyXyXyXyXyXyXyXyXyXyXyXyXyXyXyXyXyX",
"yXyXyXyXyXyXyXyXyXyXyXyXyXyXyXyXyXyXyXyXyXyXyX- a ~ k           yXyXyXyX    O     X yXyXyXyXyXyXyXyXyXyXyXyXyXyXyXyXyXyXyXyXyXyX",
"yXyXyXyXyXyXyXyXyXyXyXyXyXyXyXyXyXyXyXyX  O   j ) =                   O   l ) u         yXyXyXyXyXyXyXyXyXyXyXyXyXyXyXyXyXyXyXyX",
"yXyXyXyXyXyXyXyXyXyXyXyXyXyXyXyXyXyXyX        = p O                       = p o           yXyXyXyXyXyXyXyXyXyXyXyXyXyXyXyXyXyXyX",
"yXyXyXyXyXyXyXyXyXyXyXyXyXyXyXyXyXyXyX                                                    yXyXyXyXyXyXyXyXyXyXyXyXyXyXyXyXyXyXyX",
"yXyXyXyXyXyXyXyXyXyXyXyXyXyXyXyXyXyXyXyX                                    O           yXyXyXyXyXyXyXyXyXyXyXyXyXyXyXyXyXyXyXyX",
"yXyXyXyXyXyXyXyXyXyXyXyXyXyXyXyXyXyXyXyXyXyXyXyXyX                              yXyXyXyXyXyXyXyXyXyXyXyXyXyXyXyXyXyXyXyXyXyXyXyX",
"yXyXyXyXyXyXyXyXyXyXyXyXyXyXyXyXyXyXyXyXyXyXyXyXyX                            yXyXyXyXyXyXyXyXyXyXyXyXyXyXyXyXyXyXyXyXyXyXyXyXyX"
};
