/* XPM */
static char *result[] = {
/* columns rows colors chars-per-pixel */
"64 64 220 2 ",
"   c #000000",
".  c #0C0100",
"X  c #0B0906",
"o  c #050809",
"O  c #120E04",
"+  c #140D07",
"@  c #051206",
"#  c #1C1609",
"$  c #1E180A",
"%  c #151308",
"&  c #000716",
"*  c #131212",
"=  c #19191A",
"-  c #251D0C",
";  c #251A07",
":  c #381100",
">  c #231D16",
",  c #29210E",
"<  c #27200E",
"1  c #32270B",
"2  c #2D2411",
"3  c #272618",
"4  c #352B16",
"5  c #392C17",
"6  c #322C1D",
"7  c #352B18",
"8  c #3C331D",
"9  c #3F3D1D",
"0  c #27361E",
"q  c #171D22",
"w  c #1C2127",
"e  c #2C2D2D",
"r  c #282726",
"t  c #322C22",
"y  c #362F28",
"u  c #3C342A",
"i  c #393226",
"p  c #333232",
"a  c #3B3B3B",
"s  c #3C3833",
"d  c #453603",
"f  c #42351E",
"g  c #44391E",
"h  c #4C361B",
"j  c #422400",
"k  c #623F00",
"l  c #453C23",
"z  c #493D23",
"x  c #4A3E2A",
"c  c #423929",
"v  c #563F24",
"b  c #433E38",
"n  c #5A480E",
"m  c #484128",
"M  c #544729",
"N  c #5B4D2C",
"B  c #594728",
"V  c #5F512E",
"C  c #4C4336",
"Z  c #554A39",
"A  c #5A523A",
"S  c #654D2F",
"D  c #61522F",
"F  c #645532",
"G  c #6B5934",
"H  c #65593B",
"J  c #6B5D3D",
"K  c #695534",
"L  c #745836",
"P  c #6B542F",
"I  c #79623C",
"U  c #2B3D4F",
"Y  c #713A44",
"T  c #434343",
"R  c #4C4847",
"E  c #5F5243",
"W  c #555555",
"Q  c #5B5B5B",
"!  c #5B5856",
"~  c #675B48",
"^  c #6F575B",
"/  c #6E6247",
"(  c #74684F",
")  c #716447",
"_  c #6D6152",
"`  c #736554",
"'  c #746951",
"]  c #7E6E5B",
"[  c #796858",
"{  c #5F6264",
"}  c #676767",
"|  c #7E7467",
" . c #747676",
".. c #7E7E7F",
"X. c #78797A",
"o. c #86653F",
"O. c #996F3C",
"+. c #EF4829",
"@. c #916E45",
"#. c #947249",
"$. c #9C764B",
"%. c #9D794D",
"&. c #927142",
"*. c #84725D",
"=. c #806C4F",
"-. c #A47C4D",
";. c #A47D51",
":. c #867664",
">. c #A78459",
",. c #B68957",
"<. c #AB804F",
"1. c #97826B",
"2. c #998671",
"3. c #9D8A74",
"4. c #978A7B",
"5. c #A79279",
"6. c #B89A7A",
"7. c #AE8D6B",
"8. c #CB975B",
"9. c #D39C5B",
"0. c #D8A05E",
"q. c #CC9B65",
"w. c #C69967",
"e. c #D29F67",
"r. c #F59A7D",
"t. c #D7A369",
"y. c #C6A27D",
"u. c #E5AC6C",
"i. c #FAB96F",
"p. c #E5AE72",
"a. c #ECB273",
"s. c #FDBD75",
"d. c #FCBE7A",
"f. c #F6BB78",
"g. c #ECB06D",
"h. c #FFC37D",
"j. c #FFC87F",
"k. c #7E7F80",
"l. c #847F85",
"z. c #B67B87",
"x. c #828282",
"c. c #8B8B8D",
"v. c #878B8E",
"b. c #8A8E91",
"n. c #939393",
"m. c #919598",
"M. c #939091",
"N. c #AC9983",
"B. c #A79887",
"V. c #B29C83",
"C. c #BCA48B",
"Z. c #B5A18B",
"A. c #9F9CA2",
"S. c #A8A8A9",
"D. c #BCB8BC",
"F. c #B0AEAB",
"G. c #C5A789",
"H. c #C2AD95",
"J. c #CCB396",
"K. c #C6B19B",
"L. c #D4BA9C",
"P. c #D9BA97",
"I. c #D3B18C",
"U. c #E9B986",
"Y. c #F8B192",
"T. c #D6BDA1",
"R. c #DABFA1",
"E. c #FEA3BD",
"W. c #FFA8BE",
"Q. c #FFB8BC",
"!. c #FFC582",
"~. c #FFCA85",
"^. c #FFCD8C",
"/. c #FEC78D",
"(. c #FFD08E",
"). c #FFCB93",
"_. c #FECE9A",
"`. c #FFD29E",
"'. c #FFD194",
"]. c #EFC190",
"[. c #DEC3A5",
"{. c #E5C8A4",
"}. c #F9CBA5",
"|. c #EBD0AE",
" X c #FED3A5",
".X c #FED5A8",
"XX c #FFD8AE",
"oX c #F2D2AC",
"OX c #FFCEBD",
"+X c #FBC5BB",
"@X c #EDD1B1",
"#X c #FFDBB3",
"$X c #FEDEBB",
"%X c #FFD6BF",
"&X c #FFE1BD",
"*X c #FFE1B7",
"=X c #FFA9C2",
"-X c #CBCBCB",
";X c #C8C6C9",
":X c #D5CED5",
">X c #D4D3D4",
",X c #DBDBDC",
"<X c #DBD2DD",
"1X c #D5D1CF",
"2X c #E6D8D9",
"3X c #FFCFC7",
"4X c #FFE5C1",
"5X c #FFEAC5",
"6X c #FFEEC8",
"7X c #FFF5CD",
"8X c #E5E4E4",
"9X c #EBEAE9",
"0X c #F6EFE9",
"qX c #F9EBED",
"wX c #F8F1EC",
"eX c #F3F3F4",
"rX c #FEFEFE",
"tX c #FFF7F6",
"yX c #EDF0F1",
"uX c None",
/* pixels */
"uXuXuXuXuXuXuXuXuXuXuXuXuXuXuXuXuXuXuXuXuXuXuXuXuXuXuX*       o *           uXuXuXuXuXuXuXuXuXuXuXuXuXuXuXuXuXuXuXuXuXuXuXuXuXuX",
"uXuXuXuXuXuXuXuXuXuXuXuXuXuXuXuXuXuXuXuXuXuXuXuXuXuXuX  X.F.T     c.S.  ; l uXuXuXuXuXuXuXuXuXuXuXuXuXuXuXuXuXuXuXuXuXuXuXuXuXuX",
"uXuXuXuXuXuXuXuXuXuXuXuXuXuXuXuXuXuXuXuXuXuXuXuXo   e   D.rX}     8XrX& g J -     uXuXuXuXuXuXuXuXuXuXuXuXuXuXuXuXuXuXuXuXuXuXuX",
"uXuXuXuXuXuXuXuXuXuXuXuXuXuXuXuXuXuXuXuXuXuX            W k.e     }  .*     A ~ M 4   uXuXuXuXuXuXuXuXuXuXuXuXuXuXuXuXuXuXuXuXuX",
"uXuXuXuXuXuXuXuXuXuXuXuXuXuXuXuXuXuXuXuXuXuX6 t 6 5 4 4 .   ; 4 i       W k.! A H m ; uXuXuXuXuXuXuXuXuXuXuXuXuXuXuXuXuXuXuXuXuX",
"uXuXuXuXuXuXuXuXuXuXuXuXuXuXuXuXuXuXuXuXuX  / ( ' A 9   m J F H ( b w   [.rX}   ' H V X   uXuXuXuXuXuXuXuXuXuXuXuXuXuXuXuXuXuXuX",
"uXuXuXuXuXuXuXuXuXuXuXuXuXuXuXuXuXuXuX  c A H H Z ,.t.e.-.3 V F H N m   X.F.T 2 ( / ~     uXuXuXuXuXuXuXuXuXuXuXuXuXuXuXuXuXuXuX",
"uXuXuXuXuXuXuXuXuXuXuXuXuXuXuXuXuXuXuX  Z ' F G V u.^.(.q.6 G F V F V 3       u ' ) ~ $ O uXuXuXuXuXuXuXuXuXuXuXuXuXuXuXuXuXuXuX",
"uXuXuXuXuXuXuXuXuXuXuXuXuXuXuXuXuXuXuX  C ' 0 #.!.f.h.$X_.i.D @ G F V D m & *     d H F z   uXuXuXuXuXuXuXuXuXuXuXuXuXuXuXuXuXuX",
"uXuXuXuXuXuXuXuXuXuXuXuXuXuXuXuXuXuXuX  x ) <.t.h./. X&XXX_.w.#.M V F F M i   Q F.| n H z   uXuXuXuXuXuXuXuXuXuXuXuXuXuXuXuXuXuX",
"uXuXuXuXuXuXuXuXuXuXuXuXuXuXuXuXuXuXuX  g D f.~.s.XX4X$X&X4X(.u.  N F D F J   n.rXF.j J z   uXuXuXuXuXuXuXuXuXuXuXuXuXuXuXuXuXuX",
"uXuXuXuXuXuXuXuXuXuXuXuXuXuXuXuXuXuXuX  g F a.).#X#X&X&X$X$X#X}.g.@.@ K V F . a .._ V 8 -   uXuXuXuXuXuXuXuXuXuXuXuXuXuXuXuXuXuX",
"uXuXuXuXuXuXuXuXuXuXuXuXuXuXuXuXuXuXuX  l F a.).4X$X$X4X&X$X4X#X^.7.L F F N 8 .   d N 5 <   uXuXuXuXuXuXuXuXuXuXuXuXuXuXuXuXuXuX",
"uXuXuXuXuXuXuXuXuXuXuXuXuXuXuXuXuXuXuX  l G f.'.$X$X$X$X&X$X$X&X5X`.d.@ 8 G D N = # - G m   uXuXuXuXuXuXuXuXuXuXuXuXuXuXuXuXuXuX",
"uXuXuXuXuXuXuXuXuXuXuXuXuXuXuXuXuXuXuXuX4 l O.y.5X$X$X&X&X$X4XoX5.>.-.t.;.3 M 9   f M z 4   uXuXuXuXuXuXuXuXuXuXuXuXuXuXuXuXuXuX",
"uXuXuXuXuXuXuXuXuXuXuXuXuXuXuXuXuXuXuXuXuXX   | $X$X&X$X&X$X$XL.  & R !.q.4 m 8 l B N - +   uXuXuXuXuXuXuXuXuXuXuXuXuXuXuXuXuXuX",
"uXuXuXuXuXuXuXuXuXuXuXuXuXuXuXuXuXuXuXuXuXX   . * L.5X$X&X&X] r   D.:X  ,.~.I #.!.$.  5 $   uXuXuXuXuXuXuXuXuXuXuXuXuXuXuXuXuXuX",
"uXuXuXuXuXuXuXuXuXuXuXuXuXuXuXuXuXuXuXuXuX  c.l.  L.4X$X$X&X~     D.<X  ,.~.I $.~.%.  5 #   uXuXuXuXuXuXuXuXuXuXuXuXuXuXuXuXuXuX",
"uXuXuXuXuXuXuXuXuXuXuXuXuXuXuXuXuXuXuXuXuX  <X;X  L.4X$X&X&X`     D.:X  <.~.L O.~.$.  5 #   uXuXuXuXuXuXuXuXuXuXuXuXuXuXuXuXuXuX",
"uXuXuXuXuXuXuXuXuXuXuXuXuXuXuXuXuXuXuXuXuX  eX,X  L.4X$X&X&XE     :XrX{.oXXX|.{.~.-.  5 #   uXuXuXuXuXuXuXuXuXuXuXuXuXuXuXuXuXuX",
"uXuXuXuXuXuXuXuXuXuXuXuXuXuXuXuXuXuXuXuXuX^ qX2XN {.4X$X$X$X2.[ Y :XtX$X4X$X$X Xa.#.  4 #   uXuXuXuXuXuXuXuXuXuXuXuXuXuXuXuXuXuX",
"uXuXuXuXuXuXuXuXuXuXuXuXuXuXuXuXuXuXuXuXuX3X=X=X4X5X4X5X4X$X4X%X=X=XE.E.OX&X^.u.m g - 2 $   uXuXuXuXuXuXuXuXuXuXuXuXuXuXuXuXuXuX",
"uXuXuXuXuXuXuXuXuXuXuXuXuXuXuXuXuXuXuXuXuXz.+X3X&XY.r.r.Y.5X$X$X+X%XOX3X X).w.%.f 8 - # O uXuXuXuXuXuXuXuXuXuXuXuXuXuXuXuXuXuXuX",
"uXuXuXuXuXuXuXuXuXuXuXuXuXuXuXuXuXuXuXuXuX  |.&X&Xr.+.+.Y.5X$X$X&X*X*X&X'.h.=.3 ; < <     uXuXuXuXuXuXuXuXuXuXuXuXuXuXuXuXuXuXuX",
"uXuXuXuXuXuXuXuXuXuXuXuXuXuXuXuXuXuXuXuXuXuX  5.6X4X&X$X$X4X&X4X4X_.U.!.!.!.S   4 , ,     uXuXuXuXuXuXuXuXuXuXuXuXuXuXuXuXuXuXuX",
"uXuXuXuXuXuXuXuXuXuXuXuXuXuXuXuXuXuXuXuXuXuXuX] J.J.L..X.X.X.X X.X^.d.d.h.h.8.@.% 2 , # + uXuXuXuXuXuXuXuXuXuXuXuXuXuXuXuXuXuXuX",
"uXuXuXuXuXuXuXuXuXuXuXuXuXuXuXuXuXuXuXuXuXuXuXuX    : h.d.d.d.d.h.h.!.!.!.d./.p.  4 , 2 $   uXuXuXuXuXuXuXuXuXuXuXuXuXuXuXuXuXuX",
"uXuXuXuXuXuXuXuXuXuXuXuXuXuXuXuXuXuXuXuXuXuXuXuXuX= f P q.~.~.a.L o.@.S q.~.h.t.  $ 2 , $   uXuXuXuXuXuXuXuXuXuXuXuXuXuXuXuXuXuX",
"uXuXuXuXuXuXuXuXuXuXuXuXuXuXuXuXuXuXuXuXuXuXuXuXuX= >   -.a.a.w.    &   $.a.^.U.L v X 2 $   uXuXuXuXuXuXuXuXuXuXuXuXuXuXuXuXuXuX",
"uXuXuXuXuXuXuXuXuXuXuXuXuXuXuXuXuXuXuXuXuXuXuXuX  p b O         1 s b -     |.#X~.%.  5 $   uXuXuXuXuXuXuXuXuXuXuXuXuXuXuXuXuXuX",
"uXuXuXuXuXuXuXuXuXuXuXuXuXuXuXuXuXuXuXuXuXuXuXuX  p a p r . ; 3 p a a   .   @X#Xh.%.  2 O uXuXuXuXuXuXuXuXuXuXuXuXuXuXuXuXuXuXuX",
"uXuXuXuXuXuXuXuXuXuXuXuXuXuXuXuXuXuXuXuXuXuXuXuX> p a a e   6 y a a a X     @X#Xh.$.  ; uXuXuXuXuXuXuXuXuXuXuXuXuXuXuXuXuXuXuXuX",
"uXuXuXuXuXuXuXuXuXuXuXuXuXuXuXuXuXuXuXuXuXuXuXuX  q T a a a     T t ; X     @X#X!.%.  uXuXuXuXuXuXuXuXuXuXuXuXuXuXuXuXuXuXuXuXuX",
"uXuXuXuXuXuXuXuXuXuXuXuXuXuXuXuXuXuXuXuXuXuXuX` V._ q u p e c.4.r t ; o X   |.#Xh.%.  uXuXuXuXuXuXuXuXuXuXuXuXuXuXuXuXuXuXuXuXuX",
"uXuXuXuXuXuXuXuXuXuXuXuXuXuXuXuXuXuXuXuXuXuX  2.7X2.  i     >X;X  2 6 >     @XXXh.%.  uXuXuXuXuXuXuXuXuXuXuXuXuXuXuXuXuXuXuXuXuX",
"uXuXuXuXuXuXuXuXuXuXuXuXuXuXuXuXuXuXuX        :.5X].t.  c.-X>X>X>X .    3.|.&X#X~.;.  uXuXuXuXuXuXuXuXuXuXuXuXuXuXuXuXuXuXuXuXuX",
"uXuXuXuXuXuXuXuXuXuXuXuXuXuXuXuXuXuXuX*.*.*.` 5.$X).d.  A.8X,X>X-XB.] ~ J.5X#X}.a.$.  uXuXuXuXuXuXuXuXuXuXuXuXuXuXuXuXuXuXuXuXuX",
"uXuXuXuXuXuXuXuXuXuXuXuXuXuXuXuXuX  ~ &X4X4X5X#Xh.~.h.  b.,X<XD.  L.5X&X&X&X'.u.  uXuXuXuXuXuXuXuXuXuXuXuXuXuXuXuXuXuXuXuXuXuXuX",
"uXuXuXuXuXuXuXuXuXuXuXuXuXuXuXuXuX  E $XXX). XU.-.<.7.A.1XeXeX>X  T.&X_.'.).7.$.uXuXuXuXuXuXuXuXuXuXuXuXuXuXuXuXuXuXuXuXuXuXuXuX",
"uXuXuXuXuXuXuXuXuXuXuXuXuXuXuXuXuX  Z $X`.i.h.t.    U ,XeXrXrX8X  T.&Xd.s.h.B   uXuXuXuXuXuXuXuXuXuXuXuXuXuXuXuXuXuXuXuXuXuXuXuX",
"uXuXuXuXuXuXuXuXuXuXuXuXuXuXuXuXuX  S ~.~.~.~.a.  . Q rXrXrXrX,X  t.(.~.~.~.L   uXuXuXuXuXuXuXuXuXuXuXuXuXuXuXuXuXuXuXuXuXuXuXuX",
"uXuXuXuXuXuXuXuXuXuXuXuXuXuXuXuXuXuXv q.q.q.e.,.    Q rXrXrXrX9XS.V.9.q.q.q.B   uXuXuXuXuXuXuXuXuXuXuXuXuXuXuXuXuXuXuXuXuXuXuXuX",
"uXuXuXuXuXuXuXuXuXuXuXuXuXuXuXuXuXuXuX          uX  Q rXrXrXrXrXrXm.          + uXuXuXuXuXuXuXuXuXuXuXuXuXuXuXuXuXuXuXuXuXuXuXuX",
"uXuXuXuXuXuXuXuXuXuXuXuXuXuXuXuXuXuXuXuXuXuXuXuXuX  } rXrXrXrXrXrXeX8X;X-X-XQ   uXuXuXuXuXuXuXuXuXuXuXuXuXuXuXuXuXuXuXuXuXuXuXuX",
"uXuXuXuXuXuXuXuXuXuXuXuXuXuXuXuXuXuXuXuXuXuXuXuXuX  ! 0X0XqX8X9X0XwX0X1X1X-XQ   uXuXuXuXuXuXuXuXuXuXuXuXuXuXuXuXuXuXuXuXuXuXuXuX",
"uXuXuXuXuXuXuXuXuXuXuXuXuXuXuXuXuXuXuXuXuXuXuXuXuX  h 9.9.9.: k 9.9.9.9.O.  uXuXuXuXuXuXuXuXuXuXuXuXuXuXuXuXuXuXuXuXuXuXuXuXuXuX",
"uXuXuXuXuXuXuXuXuXuXuXuXuXuXuXuXuXuXuXuXuXuXuXuXuX  x I.G.6.u / P.y.6.P.>.  uXuXuXuXuXuXuXuXuXuXuXuXuXuXuXuXuXuXuXuXuXuXuXuXuXuX",
"uXuXuXuXuXuXuXuXuXuXuXuXuXuXuXuXuXuXuXuXuXuXuXuXuX  b L.G.N.i ` L.C.N.T.3.  uXuXuXuXuXuXuXuXuXuXuXuXuXuXuXuXuXuXuXuXuXuXuXuXuXuX",
"uXuXuXuXuXuXuXuXuXuXuXuXuXuXuXuXuXuXuXuXuXuXuXuXuX  x V.H.L.i C V.J.J.C.]   uXuXuXuXuXuXuXuXuXuXuXuXuXuXuXuXuXuXuXuXuXuXuXuXuXuX",
"uXuXuXuXuXuXuXuXuXuXuXuXuXuXuXuXuXuXuXuXuXuXuXuXuXuXs ] V.L.*.` *.H.J.N.3.:.Z uXuXuXuXuXuXuXuXuXuXuXuXuXuXuXuXuXuXuXuXuXuXuXuXuX",
"uXuXuXuXuXuXuXuXuXuXuXuXuXuXuXuXuXuXuXuXuXuXuXuXuXuXuX  1.T.Z.2.  V.T.5.H.[.~   uXuXuXuXuXuXuXuXuXuXuXuXuXuXuXuXuXuXuXuXuXuXuXuX",
"uXuXuXuXuXuXuXuXuXuXuXuXuXuXuXuXuXuXuXuXuXuXuXuXuXuXuX  :.C.J.V.  2.C.J.G.V.C   uXuXuXuXuXuXuXuXuXuXuXuXuXuXuXuXuXuXuXuXuXuXuXuX",
"uXuXuXuXuXuXuXuXuXuXuXuXuXuXuXuXuXuXuXuXuXuXuXuXuXuXuX  [ B.K.N.  :.V.K.C.B.b   uXuXuXuXuXuXuXuXuXuXuXuXuXuXuXuXuXuXuXuXuXuXuXuX",
"uXuXuXuXuXuXuXuXuXuXuXuXuXuXuXuXuXuXuXuXuXuXuXuXuXuXuX  } b.b.X.   .b.b.v.b.a   uXuXuXuXuXuXuXuXuXuXuXuXuXuXuXuXuXuXuXuXuXuXuXuX",
"uXuXuXuXuXuXuXuXuXuXuXuXuXuXuXuXuXuXuXuXuXuXuXuXuXuXuX  :.F.V.2.  B.K.M.Z.H.R   uXuXuXuXuXuXuXuXuXuXuXuXuXuXuXuXuXuXuXuXuXuXuXuX",
"uXuXuXuXuXuXuXuXuXuXuXuXuXuXuXuXuXuXuXuXuXuXuXuXuXuXuX  1.T.V.1.  6.P.5.C.P.A   uXuXuXuXuXuXuXuXuXuXuXuXuXuXuXuXuXuXuXuXuXuXuXuX",
"uXuXuXuXuXuXuXuXuXuXuXuXuXuXuXuXuXuXuXuXuXuXuXuXuXuXuX  % t r 3   > t > r y +   uXuXuXuXuXuXuXuXuXuXuXuXuXuXuXuXuXuXuXuXuXuXuXuX",
"uXuXuXuXuXuXuXuXuXuXuXuXuXuXuXuXuXuXuXuXuXuXuXuXuXuXuXp e r       w e e =     e uXuXuXuXuXuXuXuXuXuXuXuXuXuXuXuXuXuXuXuXuXuXuXuX",
"uXuXuXuXuXuXuXuXuXuXuXuXuXuXuXuXuXuXuXuXuXuXuXuXn.R   W W W r .   R W W T     T n.uXuXuXuXuXuXuXuXuXuXuXuXuXuXuXuXuXuXuXuXuXuXuX",
"uXuXuXuXuXuXuXuXuXuXuXuXuXuXuXuXuXuXuXuXuXuX....x.R   = * *         * *     } X.k.....uXuXuXuXuXuXuXuXuXuXuXuXuXuXuXuXuXuXuXuXuX",
"uXuXuXuXuXuXuXuXuXuXuXuXuXuXuXuXuXuXuXuXuXuX....x.Q p a a a a U a a a a a a  .k.k.k...uXuXuXuXuXuXuXuXuXuXuXuXuXuXuXuXuXuXuXuXuX",
"uXuXuXuXuXuXuXuXuXuXuXuXuXuXuXuXuXuXuXuXuXuXuXuXn.v.c.k.x.x.k.k.x.....x.x.4.v.v.n.uXuXuXuXuXuXuXuXuXuXuXuXuXuXuXuXuXuXuXuXuXuXuX",
"uXuXuXuXuXuXuXuXuXuXuXuXuXuXuXuXuXuXuXuXuXuXuXuXuXuXuX..x.k.k.l.............uXuXuXuXuXuXuXuXuXuXuXuXuXuXuXuXuXuXuXuXuXuXuXuXuXuX",
"uXuXuXuXuXuXuXuXuXuXuXuXuXuXuXuXuXuXuXuXuXuXuXuXuXuXuX..k.k.k.:.......x...x.uXuXuXuXuXuXuXuXuXuXuXuXuXuXuXuXuXuXuXuXuXuXuXuXuXuX"
};
