/* XPM */
static char *result[] = {
/* columns rows colors chars-per-pixel */
"64 64 251 2 ",
"   c #000000",
".  c #080608",
"X  c #140804",
"o  c #001801",
"O  c #1C1508",
"+  c #1B1508",
"@  c #000316",
"#  c #131212",
"$  c #171818",
"%  c #2A0200",
"&  c #251B0B",
"*  c #231D16",
"=  c #022904",
"-  c #003304",
";  c #032412",
":  c #003B1A",
">  c #162B14",
",  c #28210E",
"<  c #2B2516",
"1  c #342915",
"2  c #372B16",
"3  c #3C331C",
"4  c #0A0927",
"5  c #003C25",
"6  c #09292A",
"7  c #272828",
"8  c #332D24",
"9  c #3A3A3B",
"0  c #323232",
"q  c #3C3427",
"w  c #4A3605",
"e  c #463B1D",
"r  c #4F2A00",
"t  c #473C23",
"y  c #453F3A",
"u  c #552011",
"i  c #03431E",
"p  c #084F0C",
"a  c #014822",
"s  c #015728",
"d  c #1B4A25",
"f  c #186429",
"g  c #067835",
"h  c #006C2F",
"j  c #38713C",
"k  c #4E4227",
"l  c #57482A",
"z  c #584C38",
"x  c #5C5139",
"c  c #594D33",
"v  c #64532E",
"b  c #635431",
"n  c #695838",
"m  c #785C39",
"M  c #654F2F",
"N  c #1E3947",
"B  c #233743",
"V  c #3C7051",
"C  c #474747",
"Z  c #5C5C5C",
"A  c #565656",
"S  c #54544B",
"D  c #675C47",
"F  c #625C56",
"G  c #4C6B50",
"H  c #75664A",
"J  c #6A6458",
"K  c #756957",
"L  c #6E6146",
"P  c #636263",
"I  c #7F7F7F",
"U  c #747376",
"Y  c #75716B",
"T  c #5A5E62",
"R  c #946A36",
"E  c #FF7200",
"W  c #896740",
"Q  c #9A764B",
"!  c #8E7352",
"~  c #A47B4D",
"^  c #A97E52",
"/  c #857965",
"(  c #3E8D12",
")  c #02873A",
"_  c #019437",
"`  c #2EB234",
"'  c #54B010",
"]  c #62BD0A",
"[  c #45AD2B",
"{  c #56A427",
"}  c #6CD805",
"|  c #65CA12",
" . c #6BD009",
".. c #54CB30",
"X. c #43C800",
"o. c #069946",
"O. c #008B41",
"+. c #01B453",
"@. c #10B150",
"#. c #2EB353",
"$. c #11A467",
"%. c #609A5A",
"&. c #FFA500",
"*. c #FEB609",
"=. c #FE941C",
"-. c #FEC400",
";. c #FCD800",
":. c #B58A58",
">. c #AD824F",
",. c #95826C",
"<. c #988A73",
"1. c #A8947C",
"2. c #AC9172",
"3. c #C6955A",
"4. c #D19B5B",
"5. c #C08E54",
"6. c #C99963",
"7. c #CB9F6E",
"8. c #F09F76",
"9. c #DAA568",
"0. c #DAAC78",
"q. c #E2AB6D",
"w. c #F6BA6A",
"e. c #E4AD72",
"r. c #EBB476",
"t. c #F4B977",
"y. c #F1AC69",
"u. c #FDBF5A",
"i. c #FEC27C",
"p. c #FDC674",
"a. c #FBDB6E",
"s. c #A0E467",
"d. c #066F91",
"f. c #005F82",
"g. c #547692",
"h. c #038DB4",
"j. c #119CA9",
"k. c #4F8793",
"l. c #6D9AA8",
"z. c #4FBFB1",
"x. c #65CD9A",
"c. c #008CCA",
"v. c #0092D3",
"b. c #009CD4",
"n. c #009ADA",
"m. c #0092CC",
"M. c #00A0D5",
"N. c #00A9DD",
"B. c #1FA6D7",
"V. c #2FA9D8",
"C. c #00ACE6",
"Z. c #0DB0E5",
"A. c #31B3E4",
"S. c #119DD6",
"D. c #4AA9D4",
"F. c #51B0DB",
"G. c #75B0D0",
"H. c #57BBE7",
"J. c #45B6E5",
"K. c #67BBE2",
"L. c #4E9CC4",
"P. c #48C3F7",
"I. c #76CDEE",
"U. c #6DCCF4",
"Y. c #828282",
"T. c #8B8B8C",
"R. c #8A8E91",
"E. c #979492",
"W. c #8F9194",
"Q. c #AA9885",
"!. c #B29C84",
"~. c #A09B92",
"^. c #BCA58B",
"/. c #B9A086",
"(. c #B8A697",
"). c #A7ABA7",
"_. c #B7B7B9",
"`. c #859FA6",
"'. c #CAAA89",
"]. c #C3AD95",
"[. c #CAB398",
"{. c #D5BB9D",
"}. c #D8B793",
"|. c #E8B987",
" X c #E7B397",
".X c #D5BCA8",
"XX c #FFAABC",
"oX c #FDBFBD",
"OX c #D08591",
"+X c #FFC583",
"@X c #FFCA84",
"#X c #FEC98A",
"$X c #FFD18B",
"%X c #FECC95",
"&X c #F2CC94",
"*X c #E5C9A9",
"=X c #FFD4A5",
"-X c #FED8AC",
";X c #FFDDB4",
":X c #F8DBBB",
">X c #F5CBB1",
",X c #FEE2BC",
"<X c #FFEAB8",
"1X c #FFECAF",
"2X c #FBE89A",
"3X c #94B6D3",
"4X c #A8BCC9",
"5X c #B5BFC5",
"6X c #C2BBC4",
"7X c #F7BAC8",
"8X c #95C6DA",
"9X c #AFC7D4",
"0X c #88D8F4",
"qX c #94CFEA",
"wX c #AAD6ED",
"eX c #B7D6EB",
"rX c #A9D6EC",
"tX c #98EAFE",
"yX c #95EDFF",
"uX c #A6EBFD",
"iX c #B9F3FF",
"pX c #B0ECF9",
"aX c #BCE4D6",
"sX c #C9C8C8",
"dX c #D7D8D8",
"fX c #D1D2CE",
"gX c #E8D9C4",
"hX c #FAD9CE",
"jX c #D7E5D5",
"kX c #FEE6C4",
"lX c #FAF0D1",
"zX c #C3DAEB",
"xX c #C0DCF1",
"cX c #E4DBE3",
"vX c #C4E7F6",
"bX c #D4E8F5",
"nX c #C3F1FE",
"mX c #CCF4FF",
"MX c #D2F4FF",
"NX c #D9F7FE",
"BX c #D0E5E5",
"VX c #E7E8E7",
"CX c #F6EFEA",
"ZX c #F3ECE6",
"AX c #E3FAFF",
"SX c #E9F7FC",
"DX c #F6F6F6",
"FX c #FEFEFE",
"GX c #F3FBFD",
"HX c #EEF1EF",
"JX c None",
/* pixels */
"JXJXJXJXJXJXJXJXJXJXJXJXJXJXJXJXJXJXJXJXJXJXJXJXJXJXJXJXJXJXJXJXJXJXJXJXJXJXJXJXJXJXJXJXJXJXJXJXJXJXJXJXJXJXJXJXJXJXJXJXJXJXJXJX",
"JXJXJXJXJXJXJXJXJXJXJXJXJXJXJXJXJXJXJXJXJXJXJXJXJXJXJXJXJXJXJXJXJXJXJXJXJXJXJXJXJXJXJXJXJXJXJXJXJXJXJXJXJXJXJXJXJXJXJXJXJXJXJXJX",
"JXJXJXJXJXJXJXJXJXJXJXJXJXJXJXJXJXJXJXJXJXJXJXJXJXJXJX#         .           JXJXJXJXJXJXJXJXJXJXJXJXJXJXJXJXJXJXJXJXJXJXJXJXJXJX",
"JXJXJXJXJXJXJXJXJXJXJXJXJXJXJXJXJXJXJXJXJXJXJXJX    7   ).DXP     sXVX@ 2 v +     JXJXJXJXJXJXJXJXJXJXJXJXJXJXJXJXJXJXJXJXJXJXJX",
"JXJXJXJXJXJXJXJXJXJXJXJXJXJXJXJXJXJXJXJXJXJXJXJX.   7   ).DXP     sXVX@ e n q < 1 JXJXJXJXJXJXJXJXJXJXJXJXJXJXJXJXJXJXJXJXJXJXJX",
"JXJXJXJXJXJXJXJXJXJXJXJXJXJXJXJXJXJXJXJXJXJX          .               #     D H v 1   JXJXJXJXJXJXJXJXJXJXJXJXJXJXJXJXJXJXJXJXJX",
"JXJXJXJXJXJXJXJXJXJXJXJXJXJXJXJXJXJXJXJXJX  l c z k w + 3 l k k x 8 $   W.dXJ t L c k X JXJXJXJXJXJXJXJXJXJXJXJXJXJXJXJXJXJXJXJX",
"JXJXJXJXJXJXJXJXJXJXJXJXJXJXJXJXJXJXJXJXB B P K K L J c x n v n K t 7   _.FXP   K n c X   JXJXJXJXJXJXJXJXJXJXJXJXJXJXJXJXJXJXJX",
"JXJXJXJXJXJXJXJXJXJXJXJXJXJXJXJXJXJXJXX f.b.v.h.M d.B.p.5.  v v x v c   7 y . q H L D   JXJXJXJXJXJXJXJXJXJXJXJXJXJXJXJXJXJXJXJX",
"JXJXJXJXJXJXJXJXJXJXJXJXJXJXJXJXJXJXJXf.G.eXqX3XT 3X9X.X'.^ n l v v v e &     7 x D n t 2 JXJXJXJXJXJXJXJXJXJXJXJXJXJXJXJXJXJXJX",
"JXJXJXJXJXJXJXJXJXJXJXJXJXJXJXJXJXJXJXn.eXFXAXpXn.bXFXn._.p.D $ n b v b t   # .   w b n k   JXJXJXJXJXJXJXJXJXJXJXJXJXJXJXJXJXJX",
"JXJXJXJXJXJXJXJXJXJXJXJXJXJXJXJXJXb.F.SXSXNXmXMXSXNXMXDXeXL.|.4.  l b x M z   T.DX~.w n t   JXJXJXJXJXJXJXJXJXJXJXJXJXJXJXJXJXJX",
"JXJXJXJXJXJXJXJXJXJXJXJXJXJXJXJXJXM.F.DXNXiXBXVXCXSXNXGXeXD.%Xr.W m v v x n . %.GX~.w b e   JXJXJXJXJXJXJXJXJXJXJXJXJXJXJXJXJXJX",
"JXJXJXJXJXJXJXJXJXJXJXJXJXJXJXJXJXJXJXm.K.uXu.*.;.lXFXv.5X<XkX-Xp.Q   n v v O     e b + X   JXJXJXJXJXJXJXJXJXJXJXJXJXJXJXJXJXJX",
"JXJXJXJXJXJXJXJXJXJXJXJXJXM.JXJXM.M.A.I.0XuXy.&.-.lXNXrXrX4XkX;X-X|.:.k l b l e . 3 t l 3   JXJXJXJXJXJXJXJXJXJXJXJXJXJXJXJXJXJX",
"JXJXJXJXJXJXJXJXJXJXJXJXF.P.JXJXP.A.J.uXuXuX8.y.*.jXmXAXqXv.:X,X:X%Xi.c l b b l O & 1 b t   JXJXJXJXJXJXJXJXJXJXJXJXJXJXJXJXJXJX",
"JXJXJXJXJXJXJXJXJXJXJXc.eXFXV.J.NXK.B.FXSXnXiXpXuXnXMXFXxXv.kX*X$ X r +X6.  e ,   t v < &   JXJXJXJXJXJXJXJXJXJXJXJXJXJXJXJXJXJX",
"JXJXJXJXJXJXJXJXJXJXJXqXbXGXeXwXNXrXqXzXbXSX0XI.tXMXSXzXeX4X.X1.  U E.6.:.>.v n :.m e 1 +   JXJXJXJXJXJXJXJXJXJXJXJXJXJXJXJXJXJX",
"JXJXJXJXJXJXJXJXJXM.U.FXGXnXFXFXmXMXmXv.eXFXF.F.tXGXFXv.5X<Xz     6XcX  :.$XW Q $XQ   2 +   JXJXJXJXJXJXJXJXJXJXJXJXJXJXJXJXJXJX",
"JXJXJXJXJXJXJXJXJXJXJXF.xXFX2Xa.p.BXtXb.x.s.0X0XJ.K.3XgX:X,XJ     _.dX  >.@Xn W @XQ   2 O   JXJXJXJXJXJXJXJXJXJXJXJXJXJXJXJXJXJX",
"JXJXJXJXJXJXJXJXJXJXJXV.eXFXa.-.&.aXtXH.z...pXrXb.M.D.;X:XgXF @   6XcXJ 7.%X<.:.@XQ   2 O   JXJXJXJXJXJXJXJXJXJXJXJXJXJXJXJXJXJX",
"JXJXJXJXJXJXJXJXJXM.P.MXMXmXu.&.E sXyXuXU.n.GXSXv.b.D.<X9Xv.B     dXFX,XkX:XkX;X@X~   2 O   JXJXJXJXJXJXJXJXJXJXJXJXJXJXJXJXJXJX",
"JXJXJXJXJXJXJXJXJXM.H.GXAXmXdXfX6XvXiXSXwXb.qXeXbXeXrX4XsXbXL.g.OX7XhX7X:X:X=X&X:.m   1 O   JXJXJXJXJXJXJXJXJXJXJXJXJXJXJXJXJXJX",
"JXJXJXJXJXJXJXJXJXM.F.FXSXmXuXtXyXnXNXFXzXn.n.3XFXAXnXn.eXFXK.3X7XXXXX7X>X,Xi.9.> 3 & < O   JXJXJXJXJXJXJXJXJXJXJXJXJXJXJXJXJXJX",
"JXJXJXJXJXJXJXJXJXJXJXC.xXFXiX0Xc.bXFXJ.A.C.GXFXmXmXMXFXAXnXFXVXc.fXkXkX=Xi.~ x 3 1 & .   JXJXJXJXJXJXJXJXJXJXJXJXJXJXJXJXJXJXJX",
"JXJXJXJXJXJXJXJXJXJXJXv.rXbX0XI.H.aXjXh.h.N.zXmXiXjXgXlXCXNXbXzX3X>X=X-X%Xt.W < , , ,     JXJXJXJXJXJXJXJXJXJXJXJXJXJXJXJXJXJXJX",
"JXJXJXJXJXJXJXJXJXJXJXJXJXC.b.P.iXx.X.p JXJXc.A.yX|.*.;.1XFXB.G.<X%Xw.t.i.+Xv   1 , ,     JXJXJXJXJXJXJXJXJXJXJXJXJXJXJXJXJXJXJX",
"JXJXJXJXJXJXJXJXJXJXJXJXJXJXJXJXk.%.` p d.N.0XtXyX X&.*.-XNXvXwXG..Xi.+Xi.i.r.6.  1 , & O   JXJXJXJXJXJXJXJXJXJXJXJXJXJXJXJXJXJX",
"JXJXJXJXJXJXJXJXJXJXJXJXJXJXJXJX= _ +.- h.N.pXiXuX.Xy.p.fXnXNXvXn.[.y.e.t.i.+Xe.  2 , , &   JXJXJXJXJXJXJXJXJXJXJXJXJXJXJXJXJXJX",
"JXJXJXJXJXJXJXJXJXJXJXJXJX5 6 a 6 o.@.= d.N.DXFXmXiXuXuXiXNXFXSXn.f.X   :.$X+X9.  . 1 , +   JXJXJXJXJXJXJXJXJXJXJXJXJXJXJXJXJXJX",
"JXJXJXJXJXJXJXJXJXJXJX4 ( ' ' ' _ ) ) _ $.j.8XvXFX9Xk.l.l.`.wXqXx.V +   m >.t.t.6.W   1 +   JXJXJXJXJXJXJXJXJXJXJXJXJXJXJXJXJXJX",
"JXJXJXJXJXJXJXJXJXJXJXa { } } ..+.g a #.@.` h.K.FXE.  % % % h.j.} ( a < $ @ r.+X$XQ   3 +   JXJXJXJXJXJXJXJXJXJXJXJXJXJXJXJXJXJX",
"JXJXJXJXJXJXJXJXJX: f  ...+.#.@.g ) g o ) @.$.#.4 {.:X:X:X,XS s @... .X Q.kX|.i.$X~   &   JXJXJXJXJXJXJXJXJXJXJXJXJXJXJXJXJXJXJX",
"JXJXJXJXJXJXJXJXJX: f ..[ O._ O.f h j 1.<._ #.[   {.kX,X;X=X1.<._ [ { 1.}.-X+Xt.9.W   & JXJXJXJXJXJXJXJXJXJXJXJXJXJXJXJXJXJXJXJX",
"JXJXJXJXJXJXJXJXJXi s +.O.; - - : = j kX[.o | |   {.,XkX=Xw.kX*X  . q kX-Xw.@Xq.  JXJXJXJXJXJXJXJXJXJXJXJXJXJXJXJXJXJXJXJXJXJXJX",
"JXJXJXJXJXJXJXJXJXa s g s o 0.t.r.r.q.,.G h | ]   0.%X%X#X+X#X%X*X*X>X|.+X+X^ n JXJXJXJXJXJXJXJXJXJXJXJXJXJXJXJXJXJXJXJXJXJXJXJX",
"JXJXJXJXJXJXJXJXJXa a d ;   e.t.r.t.q.- s g | ]   :.t.q.q.e.q.|.;X<X-Xi.t.r.t . JXJXJXJXJXJXJXJXJXJXJXJXJXJXJXJXJXJXJXJXJXJXJXJX",
"JXJXJXJXJXJXJXJXJXJXJXJXJXJX          d f g  .| 5 ;           W @Xi.i.$X5.  JXJXJXJXJXJXJXJXJXJXJXJXJXJXJXJXJXJXJXJXJXJXJXJXJXJX",
"JXJXJXJXJXJXJXJXJXJXJXJXJXJXJXJXJXJXJX: g o.( ( ; > JX- = = ) %.>.~ ^ R (.fXP JXJXJXJXJXJXJXJXJXJXJXJXJXJXJXJXJXJXJXJXJXJXJXJXJX",
"JXJXJXJXJXJXJXJXJXJXJXJXJXJXJXJXJXJXJX: O.+.s @   JXJXG G G #.o.  6 N   5XFXU   JXJXJXJXJXJXJXJXJXJXJXJXJXJXJXJXJXJXJXJXJXJXJXJX",
"JXJXJXJXJXJXJXJXJXJXJXJXJXJXJXJXJXJXJXa s s JXJXJX  S sXVXGXG .   fXFXFXHXdXP   JXJXJXJXJXJXJXJXJXJXJXJXJXJXJXJXJXJXJXJXJXJXJXJX",
"JXJXJXJXJXJXJXJXJXJXJXJXJXJXJXJXJXJXJXa i i JXJXJX  A VXDXFX_.).).VXFXHXVXdXP   JXJXJXJXJXJXJXJXJXJXJXJXJXJXJXJXJXJXJXJXJXJXJXJX",
"JXJXJXJXJXJXJXJXJXJXJXJXJXJXJXJXJXJXJXJXJXJXJXJXJX  P FXFXFXFXFXFXFXGXdXdXdXZ   JXJXJXJXJXJXJXJXJXJXJXJXJXJXJXJXJXJXJXJXJXJXJXJX",
"JXJXJXJXJXJXJXJXJXJXJXJXJXJXJXJXJXJXJXJXJXJXJXJXJX  P FXFXFXFXFXFXFXFXdXdXVXP   JXJXJXJXJXJXJXJXJXJXJXJXJXJXJXJXJXJXJXJXJXJXJXJX",
"JXJXJXJXJXJXJXJXJXJXJXJXJXJXJXJXJXJXJXJXJXJXJXJXJX  Z CXCXCXCXCXCXCXZXfXsXsXF   JXJXJXJXJXJXJXJXJXJXJXJXJXJXJXJXJXJXJXJXJXJXJXJX",
"JXJXJXJXJXJXJXJXJXJXJXJXJXJXJXJXJXJXJXJXJXJXJXJXJX  % 4.4.9.4.4.4.4.4.9.~   JXJXJXJXJXJXJXJXJXJXJXJXJXJXJXJXJXJXJXJXJXJXJXJXJXJX",
"JXJXJXJXJXJXJXJXJXJXJXJXJXJXJXJXJXJXJXJXJXJXJXJX  ,.!./.^ W '.'.2.'.'.Q m JXJXJXJXJXJXJXJXJXJXJXJXJXJXJXJXJXJXJXJXJXJXJXJXJXJXJX",
"JXJXJXJXJXJXJXJXJXJXJXJXJXJXJXJXJXJXJXJXJXJXJXJX  !. X!.Y . ].{.Q.[.}.    JXJXJXJXJXJXJXJXJXJXJXJXJXJXJXJXJXJXJXJXJXJXJXJXJXJXJX",
"JXJXJXJXJXJXJXJXJXJXJXJXJXJXJXJXJXJXJXJXJXJXJXJX. / ^..X/ X 1.'.[.'.2..   JXJXJXJXJXJXJXJXJXJXJXJXJXJXJXJXJXJXJXJXJXJXJXJXJXJXJX",
"JXJXJXJXJXJXJXJXJXJXJXJXJXJXJXJXJXJXJXJXJXJXJXJX. K ,.{.!.F / / {.^.1./ K JXJXJXJXJXJXJXJXJXJXJXJXJXJXJXJXJXJXJXJXJXJXJXJXJXJXJX",
"JXJXJXJXJXJXJXJXJXJXJXJXJXJXJXJXJXJXJXJXJXJXJXJXJX  q {.'.!.O D .X/.1.*XQ.  JXJXJXJXJXJXJXJXJXJXJXJXJXJXJXJXJXJXJXJXJXJXJXJXJXJX",
"JXJXJXJXJXJXJXJXJXJXJXJXJXJXJXJXJXJXJXJXJXJXJXJXJX  y !.].[.t S '.].[././   JXJXJXJXJXJXJXJXJXJXJXJXJXJXJXJXJXJXJXJXJXJXJXJXJXJX",
"JXJXJXJXJXJXJXJXJXJXJXJXJXJXJXJXJXJXJXJXJXJXJXJXJX  t / !..XF F ,.^.].Q./ B JXJXJXJXJXJXJXJXJXJXJXJXJXJXJXJXJXJXJXJXJXJXJXJXJXJX",
"JXJXJXJXJXJXJXJXJXJXJXJXJXJXJXJXJXJXJXJXJXJXJXJXJXJXJX  T R.W.Y.  U R.R.R.R.y . JXJXJXJXJXJXJXJXJXJXJXJXJXJXJXJXJXJXJXJXJXJXJXJX",
"JXJXJXJXJXJXJXJXJXJXJXJXJXJXJXJXJXJXJXJXJXJXJXJXJXJXJX  / {.Q.<.  1.].~./.].z   JXJXJXJXJXJXJXJXJXJXJXJXJXJXJXJXJXJXJXJXJXJXJXJX",
"JXJXJXJXJXJXJXJXJXJXJXJXJXJXJXJXJXJXJXJXJXJXJXJXJXJXJX  / .X!./   1.[.1./.}.S . JXJXJXJXJXJXJXJXJXJXJXJXJXJXJXJXJXJXJXJXJXJXJXJX",
"JXJXJXJXJXJXJXJXJXJXJXJXJXJXJXJXJXJXJXJXJXJXJXJXJXJXJX  O 8 7 *   < 7 * 8 8 #   JXJXJXJXJXJXJXJXJXJXJXJXJXJXJXJXJXJXJXJXJXJXJXJX",
"JXJXJXJXJXJXJXJXJXJXJXJXJXJXJXJXJXJXJXJXJXJXJXJXJXJXJX0 0 7     . $ 7 0 $     0 JXJXJXJXJXJXJXJXJXJXJXJXJXJXJXJXJXJXJXJXJXJXJXJX",
"JXJXJXJXJXJXJXJXJXJXJXJXJXJXJXJXJXJXJXJXJXJXJXJXE.S   A A A 7     C A A C     C Q.JXJXJXJXJXJXJXJXJXJXJXJXJXJXJXJXJXJXJXJXJXJXJX",
"JXJXJXJXJXJXJXJXJXJXJXJXJXJXJXJXJXJXJXJXJXJX/ Y.l.C   # # #         # #     P U g.Y.Y.JXJXJXJXJXJXJXJXJXJXJXJXJXJXJXJXJXJXJXJXJX",
"JXJXJXJXJXJXJXJXJXJXJXJXJXJXJXJXJXJXJXJXJXJXl./ / A 0 y B y y y y y 9 9 9 y / Y./ l./ JXJXJXJXJXJXJXJXJXJXJXJXJXJXJXJXJXJXJXJXJX",
"JXJXJXJXJXJXJXJXJXJXJXJXJXJXJXJXJXJXJXJXJXJXJXJXT.T.T.I Y.Y.I Y.I <.g.Y.<.g.T.T.W.JXJXJXJXJXJXJXJXJXJXJXJXJXJXJXJXJXJXJXJXJXJXJX",
"JXJXJXJXJXJXJXJXJXJXJXJXJXJXJXJXJXJXJXJXJXJXJXJXJXJXJXI I I I I I I Y.Y.<.g.JXJXJXJXJXJXJXJXJXJXJXJXJXJXJXJXJXJXJXJXJXJXJXJXJXJX",
"JXJXJXJXJXJXJXJXJXJXJXJXJXJXJXJXJXJXJXJXJXJXJXJXJXJXJXI I I I I I I Y.Y./ Y.JXJXJXJXJXJXJXJXJXJXJXJXJXJXJXJXJXJXJXJXJXJXJXJXJXJX"
};
