/* XPM */
static char *result[] = {
/* columns rows colors chars-per-pixel */
"64 64 215 2 ",
"   c #000000",
".  c #090301",
"X  c #0E0A04",
"o  c #0A0A0B",
"O  c #120C04",
"+  c #120806",
"@  c #151206",
"#  c #15110D",
"$  c #1E1709",
"%  c #131313",
"&  c #1C1C1B",
"*  c #1A1714",
"=  c #0A0C10",
"-  c #241D0C",
";  c #271C06",
":  c #261C14",
">  c #002C11",
",  c #2B220E",
"<  c #21210E",
"1  c #302200",
"2  c #2B2311",
"3  c #26271C",
"4  c #322712",
"5  c #342A15",
"6  c #352C1A",
"7  c #392E18",
"8  c #363419",
"9  c #2E3B1E",
"0  c #191D21",
"q  c #232322",
"w  c #2A2825",
"e  c #292929",
"r  c #2A2722",
"t  c #352E23",
"y  c #382F24",
"u  c #3C3224",
"i  c #3C352A",
"p  c #353126",
"a  c #353434",
"s  c #393734",
"d  c #3B3B3B",
"f  c #452A00",
"g  c #593900",
"h  c #41361E",
"j  c #443A1E",
"k  c #4A3E22",
"l  c #433B2F",
"z  c #50401B",
"x  c #54450A",
"c  c #4D4126",
"v  c #4A4228",
"b  c #524425",
"n  c #50442C",
"m  c #55482A",
"M  c #5A4C2B",
"N  c #574B27",
"B  c #53493C",
"V  c #544A33",
"C  c #5C523C",
"Z  c #5C5034",
"A  c #574C2F",
"S  c #634C2F",
"D  c #62532E",
"F  c #654F33",
"G  c #655531",
"H  c #6A5534",
"J  c #6B5A35",
"K  c #6A5C3B",
"L  c #66573A",
"P  c #765A3A",
"I  c #71613A",
"U  c #444243",
"Y  c #4B4B4B",
"T  c #47494B",
"R  c #58544A",
"E  c #545456",
"W  c #5A5C5E",
"Q  c #4F5458",
"!  c #694A4C",
"~  c #625644",
"^  c #6B5D43",
"/  c #655C4C",
"(  c #6A5E4C",
")  c #625A43",
"_  c #6F4951",
"`  c #6D6249",
"'  c #74674A",
"]  c #736549",
"[  c #6C6353",
"{  c #736554",
"}  c #786B51",
"|  c #7F715F",
" . c #67696C",
".. c #787778",
"X. c #767069",
"o. c #866138",
"O. c #EF502F",
"+. c #EE4F30",
"@. c #937348",
"#. c #9A774B",
"$. c #82725E",
"%. c #896D46",
"&. c #A17E50",
"*. c #8A7B66",
"=. c #877571",
"-. c #A6737F",
";. c #F0765B",
":. c #A98455",
">. c #B58B57",
",. c #93816B",
"<. c #98866F",
"1. c #9A8A77",
"2. c #8E806B",
"3. c #BB9262",
"4. c #A28D76",
"5. c #A9957C",
"6. c #CE9B5F",
"7. c #C6965F",
"8. c #C39662",
"9. c #C79A65",
"0. c #D09C60",
"q. c #D0A26B",
"w. c #DAA66D",
"e. c #D3A063",
"r. c #DEAA70",
"t. c #D9AE7E",
"y. c #E7B177",
"u. c #EDB67A",
"i. c #F2B674",
"p. c #F1B879",
"a. c #FBBD7B",
"s. c #FABA74",
"d. c #E9B073",
"f. c #FEC17D",
"g. c #7C7D80",
"h. c #B67E88",
"j. c #8B8B8D",
"k. c #848585",
"l. c #918E88",
"z. c #8C8F91",
"x. c #958C94",
"c. c #8E9091",
"v. c #959493",
"b. c #AA9986",
"n. c #B29C83",
"m. c #A59A91",
"M. c #B9A48B",
"N. c #B7A489",
"B. c #A8A398",
"V. c #BAAB9A",
"C. c #AFA088",
"Z. c #9A96A0",
"A. c #A8A6A8",
"S. c #AFAFB0",
"D. c #B5B4B4",
"F. c #BDBCBD",
"G. c #B6B6B8",
"H. c #F59F82",
"J. c #C5AE91",
"K. c #C9B094",
"L. c #D5BB9B",
"P. c #D5BB96",
"I. c #C3AC8E",
"U. c #E2BE96",
"Y. c #EEB28A",
"T. c #D9BEA0",
"R. c #FEA4BD",
"E. c #FDA9BC",
"W. c #FEC483",
"Q. c #FFC987",
"!. c #FFCB89",
"~. c #FBC48A",
"^. c #FDCB94",
"/. c #FBCB98",
"(. c #FFD29D",
"). c #DCC3A5",
"_. c #D7C1A3",
"`. c #CBC1BF",
"'. c #E2C2A4",
"]. c #E9CEAE",
"[. c #E4CAAB",
"{. c #E8D1AE",
"}. c #FFD3A3",
"|. c #FDD7AC",
" X c #F7D4AB",
".X c #FCC4BC",
"XX c #FECDBE",
"oX c #EED1B1",
"OX c #F3D6B4",
"+X c #FEDCB5",
"@X c #FDDEBB",
"#X c #F7D7B8",
"$X c #FBC9A7",
"%X c #FEE1BD",
"&X c #FFBACC",
"*X c #C3C3C4",
"=X c #CCC9CD",
"-X c #D5D4D4",
";X c #DCDCDC",
":X c #DDD2DF",
">X c #FEDDC1",
",X c #E0DEDF",
"<X c #F3CFD1",
"1X c #FFE4C1",
"2X c #FFEAC4",
"3X c #FFF0CA",
"4X c #FFEBDD",
"5X c #DFD4E1",
"6X c #E7DEEA",
"7X c #E5E4E3",
"8X c #EBEBEC",
"9X c #F3F3F3",
"0X c #FFFFFF",
"qX c #F8F3F5",
"wX c None",
/* pixels */
"wXwXwXwXwXwXwXwXwXwXwXwXwXwXwXwXwXwXwXwXwXwXwXwXwXwXwXwXwXwXwXwXwXwXwXwXwXwXwXwXwXwXwXwXwXwXwXwXwXwXwXwXwXwXwXwXwXwXwXwXwXwXwXwX",
"wXwXwXwXwXwXwXwXwXwXwXwXwXwXwXwXwXwXwXwXwXwXwXwXwXwXwXwXwXwXwXwXwXwXwXwXwXwXwXwXwXwXwXwXwXwXwXwXwXwXwXwXwXwXwXwXwXwXwXwXwXwXwXwX",
"wXwXwXwXwXwXwXwXwXwXwXwXwXwXwXwXwXwXwXwXwXwXwXwXwXwXwXo     o         o     wXwXwXwXwXwXwXwXwXwXwXwXwXwXwXwXwXwXwXwXwXwXwXwXwXwX",
"wXwXwXwXwXwXwXwXwXwXwXwXwXwXwXwXwXwXwXwXwXwXwXwX    &   -X;X    E 9XA.  L k       wXwXwXwXwXwXwXwXwXwXwXwXwXwXwXwXwXwXwXwXwXwXwX",
"wXwXwXwXwXwXwXwXwXwXwXwXwXwXwXwXwXwXwXwXwXwXwX. . . *   *X*X    U ;Xv.  C n t 6 2 wXwXwXwXwXwXwXwXwXwXwXwXwXwXwXwXwXwXwXwXwXwXwX",
"wXwXwXwXwXwXwXwXwXwXwXwXwXwXwXwXwXwXwXwXwXwX      . O *               #   1 } L b   wXwXwXwXwXwXwXwXwXwXwXwXwXwXwXwXwXwXwXwXwXwX",
"wXwXwXwXwXwXwXwXwXwXwXwXwXwXwXwXwXwXwXwXwX  C C R v 5   n Z b C C 0   e ;XG.  ` L b 2   wXwXwXwXwXwXwXwXwXwXwXwXwXwXwXwXwXwXwXwX",
"wXwXwXwXwXwXwXwXwXwXwXwXwXwXwXwXwXwXwXwX3 t ` ] ] @.@.o.K D G I ^ 3 . e 7XG.  ` ` L 5   wXwXwXwXwXwXwXwXwXwXwXwXwXwXwXwXwXwXwXwX",
"wXwXwXwXwXwXwXwXwXwXwXwXwXwXwXwXwXwXwX  V ' G N 8 u.W.f.o.  J D D G h       o ` ' ` 3   wXwXwXwXwXwXwXwXwXwXwXwXwXwXwXwXwXwXwXwX",
"wXwXwXwXwXwXwXwXwXwXwXwXwXwXwXwXwXwXwX  V ' v #.r.s.~.|.t.>.8 M D D N c & =   ; j K m k   wXwXwXwXwXwXwXwXwXwXwXwXwXwXwXwXwXwXwX",
"wXwXwXwXwXwXwXwXwXwXwXwXwXwXwXwXwXwXwX  V ] G 9.!.W.(.1X(.u.S H G G D D 2 X   T R D G M   wXwXwXwXwXwXwXwXwXwXwXwXwXwXwXwXwXwXwX",
"wXwXwXwXwXwXwXwXwXwXwXwXwXwXwXwXwXwXwX  k L p.f.a.+X%X@X%X|.f.@.  G G D G n   9X7Xf K M   wXwXwXwXwXwXwXwXwXwXwXwXwXwXwXwXwXwXwX",
"wXwXwXwXwXwXwXwXwXwXwXwXwXwXwXwXwXwXwX  j K i.^.}.@X%X@X%X+X}.t.:.b M D G v   A.B.x m h   wXwXwXwXwXwXwXwXwXwXwXwXwXwXwXwXwXwXwX",
"wXwXwXwXwXwXwXwXwXwXwXwXwXwXwXwXwXwXwX  j K i.}.2X@X@X%X%X%X2X}.i.3 N L D v       G 7 O   wXwXwXwXwXwXwXwXwXwXwXwXwXwXwXwXwXwXwX",
"wXwXwXwXwXwXwXwXwXwXwXwXwXwXwXwXwXwXwX  j I a.(.>X@X%X%X%X%X%X%X%Xf.:.  G D D t 3 - M M   wXwXwXwXwXwXwXwXwXwXwXwXwXwXwXwXwXwXwX",
"wXwXwXwXwXwXwXwXwXwXwXwXwXwXwXwXwXwXwX  7 D >.U.1X@X1X@X%X%X%X).I.q.>.#.D N N - $ h b k   wXwXwXwXwXwXwXwXwXwXwXwXwXwXwXwXwXwXwX",
"wXwXwXwXwXwXwXwXwXwXwXwXwXwXwXwXwXwXwXwXwX%   4.1X@X%X%X%X@X2X2.    >.Q.c < u   < J 7 O   wXwXwXwXwXwXwXwXwXwXwXwXwXwXwXwXwXwXwX",
"wXwXwXwXwXwXwXwXwXwXwXwXwXwXwXwXwXwXwXwX. X   t [ ].%X@X2X).R u U =Xv.g y.3.8 w.8.  5 -   wXwXwXwXwXwXwXwXwXwXwXwXwXwXwXwXwXwXwX",
"wXwXwXwXwXwXwXwXwXwXwXwXwXwXwXwXwXwXwXwX    ..E   ].%X@X1X).    Y 6XZ.  Q.w.9 f.r.  5 -   wXwXwXwXwXwXwXwXwXwXwXwXwXwXwXwXwXwXwX",
"wXwXwXwXwXwXwXwXwXwXwXwXwXwXwXwXwXwXwXwX. # 5XA.  ].1X@X1X[.    T 5Xx.  f.6.  u.w.  5 ,   wXwXwXwXwXwXwXwXwXwXwXwXwXwXwXwXwXwXwX",
"wXwXwXwXwXwXwXwXwXwXwXwXwXwXwXwXwXwXwXwX    9XG.  ].1X@X2X).    T qX<XL.|.oX_.Q.w.  5 -   wXwXwXwXwXwXwXwXwXwXwXwXwXwXwXwXwXwXwX",
"wXwXwXwXwXwXwXwXwXwXwXwXwXwXwXwXwXwXwXwX! _ qX`.k oX%X@X1X[.` ! =.qX4X@X%X%X%XW.7.  5 -   wXwXwXwXwXwXwXwXwXwXwXwXwXwXwXwXwXwXwX",
"wXwXwXwXwXwXwXwXwXwXwXwXwXwXwXwXwXwXwXwX&X<XR.E.1X1X1X1X%X@X%X.X&XE.E.E.1X Xf.%.j 2 2 -   wXwXwXwXwXwXwXwXwXwXwXwXwXwXwXwXwXwXwX",
"wXwXwXwXwXwXwXwXwXwXwXwXwXwXwXwXwXwXwXwX-.h.XX1X>XY.H.H.|.1X%XXXE..X>XXX(.Y.>.H 7 - - @ wXwXwXwXwXwXwXwXwXwXwXwXwXwXwXwXwXwXwXwX",
"wXwXwXwXwXwXwXwXwXwXwXwXwXwXwXwXwXwXwXwXwX  {.%X@X;.+.+.$X1X@X@X%X%X@XOXQ.6.> 7 $ 2 .   wXwXwXwXwXwXwXwXwXwXwXwXwXwXwXwXwXwXwXwX",
"wXwXwXwXwXwXwXwXwXwXwXwXwXwXwXwXwXwXwXwXwXwX  N.3X%X%X@X%X1X1X1X%Xf.W.W.Q.8.  4 2 , X   wXwXwXwXwXwXwXwXwXwXwXwXwXwXwXwXwXwXwXwX",
"wXwXwXwXwXwXwXwXwXwXwXwXwXwXwXwXwXwXwXwXwXwXwX*.K.N.P.|.}.}.}.|.(.f.f.W.W.r.#.m @ 2 $ @ wXwXwXwXwXwXwXwXwXwXwXwXwXwXwXwXwXwXwXwX",
"wXwXwXwXwXwXwXwXwXwXwXwXwXwXwXwXwXwXwXwXwXwXwXwX    o.f.a.a.a.a.f.f.f.p.W.W.W.P   5 2 -   wXwXwXwXwXwXwXwXwXwXwXwXwXwXwXwXwXwXwX",
"wXwXwXwXwXwXwXwXwXwXwXwXwXwXwXwXwXwXwXwXwXwXwXwXwX* 7 p y.!.!.:.3 S k S i.a.a.F   4 , -   wXwXwXwXwXwXwXwXwXwXwXwXwXwXwXwXwXwXwX",
"wXwXwXwXwXwXwXwXwXwXwXwXwXwXwXwXwXwXwXwXwXwXwXwXwXq &   >.q.q.P   t   : ~.(./.K   5 , -   wXwXwXwXwXwXwXwXwXwXwXwXwXwXwXwXwXwXwX",
"wXwXwXwXwXwXwXwXwXwXwXwXwXwXwXwXwXwXwXwXwXwXwXwX  d a .         6 U 0 i #X1X>X(   6 , ,   wXwXwXwXwXwXwXwXwXwXwXwXwXwXwXwXwXwXwX",
"wXwXwXwXwXwXwXwXwXwXwXwXwXwXwXwXwXwXwXwXwXwXwXwX  s d a : - 4 p a U 0 y OX1X@X(   * O X wXwXwXwXwXwXwXwXwXwXwXwXwXwXwXwXwXwXwXwX",
"wXwXwXwXwXwXwXwXwXwXwXwXwXwXwXwXwXwXwXwXwXwXwXwX  a d d q & t s d d % u OX1X@X(   *     wXwXwXwXwXwXwXwXwXwXwXwXwXwXwXwXwXwXwXwX",
"wXwXwXwXwXwXwXwXwXwXwXwXwXwXwXwXwXwXwXwXwXwXwXwX  d U d U s   w l ,   l OX1X>X[   wXwXwXwXwXwXwXwXwXwXwXwXwXwXwXwXwXwXwXwXwXwXwX",
"wXwXwXwXwXwXwXwXwXwXwXwXwXwXwXwXwXwXwXwXwXwXwXwXwX& r p   Y F. .  t   : #X|.^.^   wXwXwXwXwXwXwXwXwXwXwXwXwXwXwXwXwXwXwXwXwXwXwX",
"wXwXwXwXwXwXwXwXwXwXwXwXwXwXwXwXwXwXwXwXwXwXwXwXwX  . 2 w ..7Xv.3 l i ~ OX}.s.H   wXwXwXwXwXwXwXwXwXwXwXwXwXwXwXwXwXwXwXwXwXwXwX",
"wXwXwXwXwXwXwXwXwXwXwXwXwXwXwXwXwXwXwXwXwXwXwXwXwXwXwX  F.;X;X,X-X  n.1XY.f.Q.P   wXwXwXwXwXwXwXwXwXwXwXwXwXwXwXwXwXwXwXwXwXwXwX",
"wXwXwXwXwXwXwXwXwXwXwXwXwXwXwXwXwXwXwXwXwXwXwXwXwXwXwX  *X-Xk.j.j.C.U.(.Q.d.#.S wXwXwXwXwXwXwXwXwXwXwXwXwXwXwXwXwXwXwXwXwXwXwXwX",
"wXwXwXwXwXwXwXwXwXwXwXwXwXwXwXwXwXwXwXwXwXwXwXwXwXwXwX  *XF.    M 1X(.s.W.3.  wXwXwXwXwXwXwXwXwXwXwXwXwXwXwXwXwXwXwXwXwXwXwXwXwX",
"wXwXwXwXwXwXwXwXwXwXwXwXwXwXwXwXwXwXwXwXwXwXwXwXwX  ..-X .[ #XOXoXW.Q.Q.f   wXwXwXwXwXwXwXwXwXwXwXwXwXwXwXwXwXwXwXwXwXwXwXwXwXwX",
"wXwXwXwXwXwXwXwXwXwXwXwXwXwXwXwXwXwXwXwXwXwXwXwXwX  c.qX .) 2X1X+XW.r.3.v...wXwXwXwXwXwXwXwXwXwXwXwXwXwXwXwXwXwXwXwXwXwXwXwXwXwX",
"wXwXwXwXwXwXwXwXwXwXwXwXwXwXwXwXwXwXwXwXwXwXwXwXwX  v.0X..) >X@X+XW.:.  ,XD.  wXwXwXwXwXwXwXwXwXwXwXwXwXwXwXwXwXwXwXwXwXwXwXwXwX",
"wXwXwXwXwXwXwXwXwXwXwXwXwXwXwXwXwXwXwXwXwXwXwXwX  -X9X0X .x 3X2X%X%X5.  -XA.  wXwXwXwXwXwXwXwXwXwXwXwXwXwXwXwXwXwXwXwXwXwXwXwXwX",
"wXwXwXwXwXwXwXwXwXwXwXwXwXwXwXwXwXwXwXwXwXwXwXwX  8X0X0XG.l.T.T._.).m.j.7XD.  wXwXwXwXwXwXwXwXwXwXwXwXwXwXwXwXwXwXwXwXwXwXwXwXwX",
"wXwXwXwXwXwXwXwXwXwXwXwXwXwXwXwXwXwXwXwXwXwXwXwX  8X0X0X0X8X        F.0X0X=X  wXwXwXwXwXwXwXwXwXwXwXwXwXwXwXwXwXwXwXwXwXwXwXwXwX",
"wXwXwXwXwXwXwXwXwXwXwXwXwXwXwXwXwXwXwXwXwXwXwXwX  K.'.'.m...wXwXwX  4.'.'.5.  wXwXwXwXwXwXwXwXwXwXwXwXwXwXwXwXwXwXwXwXwXwXwXwXwX",
"wXwXwXwXwXwXwXwXwXwXwXwXwXwXwXwXwXwXwXwXwXwXwXwX  >.0.0.g   wXwXwX  #.e.0.#.  wXwXwXwXwXwXwXwXwXwXwXwXwXwXwXwXwXwXwXwXwXwXwXwXwX",
"wXwXwXwXwXwXwXwXwXwXwXwXwXwXwXwXwXwXwXwXwXwXwXwX# 1.M._.{   wXwXwX  4.).n.$.  wXwXwXwXwXwXwXwXwXwXwXwXwXwXwXwXwXwXwXwXwXwXwXwXwX",
"wXwXwXwXwXwXwXwXwXwXwXwXwXwXwXwXwXwXwXwXwXwXwXwX  N.J.I./   wXwXwXwX/ *.J.n.$.l wXwXwXwXwXwXwXwXwXwXwXwXwXwXwXwXwXwXwXwXwXwXwXwX",
"wXwXwXwXwXwXwXwXwXwXwXwXwXwXwXwXwXwXwXwXwXwXwXu i J.J.4.B   wXwXwXwX    J.J.n.B   wXwXwXwXwXwXwXwXwXwXwXwXwXwXwXwXwXwXwXwXwXwXwX",
"wXwXwXwXwXwXwXwXwXwXwXwXwXwXwXwXwXwXwXwXwXwX  *.L.N.*.  wXwXwXwXwXwX  y b.I.P.n   wXwXwXwXwXwXwXwXwXwXwXwXwXwXwXwXwXwXwXwXwXwXwX",
"wXwXwXwXwXwXwXwXwXwXwXwXwXwXwXwXwXwXwXwXwXwX  X.V.b.=.  wXwXwXwXwXwXwXr { 1.V...E wXwXwXwXwXwXwXwXwXwXwXwXwXwXwXwXwXwXwXwXwXwXwX",
"wXwXwXwXwXwXwXwXwXwXwXwXwXwXwXwXwXwXwXwXwXwX  W c.c...  wXwXwXwXwXwXwXwX  Q c.v...  wXwXwXwXwXwXwXwXwXwXwXwXwXwXwXwXwXwXwXwXwXwX",
"wXwXwXwXwXwXwXwXwXwXwXwXwXwXwXwXwXwXwXwXwXwX  *._.M.,.  wXwXwXwXwXwXwXwXwXs a 4.M.L./   wXwXwXwXwXwXwXwXwXwXwXwXwXwXwXwXwXwXwXwX",
"wXwXwXwXwXwXwXwXwXwXwXwXwXwXwXwXwXwXwXwXwXwX  { n.,.{   wXwXwXwXwXwXwXwXwXwX  $.<.n.B   wXwXwXwXwXwXwXwXwXwXwXwXwXwXwXwXwXwXwXwX",
"wXwXwXwXwXwXwXwXwXwXwXwXwXwXwXwXwXwXwXwX              . wXwXwXwXwXwXwXwXwXwXwX        X wXwXwXwXwXwXwXwXwXwXwXwXwXwXwXwXwXwXwXwX",
"wXwXwXwXwXwXwXwXwXwXwXwXwXwXwXwXwXwXwX  d Y Y a O * X   wXwXwXwXwXwXwXwXwXwXwX# # O       wXwXwXwXwXwXwXwXwXwXwXwXwXwXwXwXwXwXwX",
"wXwXwXwXwXwXwXwXwXwXwXwXwXwXwXwXwXwXwX  a T T a         wXwXwXwXwXwXwXwXwXwXwX  o & q &   wXwXwXwXwXwXwXwXwXwXwXwXwXwXwXwXwXwXwX",
"wXwXwXwXwXwXwXwXwXwXwXwXwXwXwXwXwXwXwX                                      .   e E E T   wXwXwXwXwXwXwXwXwXwXwXwXwXwXwXwXwXwXwX",
"wXwXwXwXwXwXwXwXwXwXwXwXwXwXwXwXwXwX        .                                   % e e q       wXwXwXwXwXwXwXwXwXwXwXwXwXwXwXwXwX",
"wXwXwXwXwXwXwXwXwXwXwXwXwXwXwXwXwX                                                            wXwXwXwXwXwXwXwXwXwXwXwXwXwXwXwXwX",
"wXwXwXwXwXwXwXwXwXwXwXwXwXwXwXwXwXwXwX                                            .   .   wXwXwXwXwXwXwXwXwXwXwXwXwXwXwXwXwXwXwX",
"wXwXwXwXwXwXwXwXwXwXwXwXwXwXwXwXwXwXwXwXwXwXwX                                    wXwXwXwXwXwXwXwXwXwXwXwXwXwXwXwXwXwXwXwXwXwXwX",
"wXwXwXwXwXwXwXwXwXwXwXwXwXwXwXwXwXwXwXwXwXwXwXwX                                  wXwXwXwXwXwXwXwXwXwXwXwXwXwXwXwXwXwXwXwXwXwXwX"
};
