/* XPM */
static char *result[] = {
/* columns rows colors chars-per-pixel */
"64 64 77 1 ",
"  c #B93F26",
". c #DA0F10",
"X c #B2513A",
"o c #E14937",
"O c #897F53",
"+ c #BC7D48",
"@ c #D05A53",
"# c #EA685D",
"$ c #F56F6E",
"% c #3F9F6A",
"& c #67B257",
"* c #45986A",
"= c #4C9D69",
"- c #57A369",
"; c #5CA36B",
": c #4FB477",
"> c #6AB06C",
", c #66AE76",
"< c #6AAD76",
"1 c #66AE7A",
"2 c #6AAE7B",
"3 c #66B374",
"4 c #6BB275",
"5 c #66B17A",
"6 c #6CB27A",
"7 c #74B675",
"8 c #78B777",
"9 c #75B975",
"0 c #7BBC75",
"q c #73B57A",
"w c #7AB77A",
"e c #76BA79",
"r c #7CBD79",
"t c #7CC66F",
"y c #77CE6A",
"u c #7BCC6C",
"i c #75D265",
"p c #78D366",
"a c #76D169",
"s c #79D06B",
"d c #6FC376",
"f c #71C272",
"g c #7EC474",
"h c #76CE70",
"j c #7DCA71",
"k c #7EC27A",
"l c #928355",
"z c #B3945D",
"x c #9CAE6C",
"c c #90B16F",
"v c #81BD76",
"b c #8EB678",
"n c #82BE79",
"m c #9CB270",
"M c #92B977",
"N c #81C76F",
"B c #80CB6E",
"V c #82C376",
"C c #89C276",
"Z c #81C873",
"A c #83C379",
"S c #88C379",
"D c #86C87C",
"F c #0074BD",
"G c #3B7CD2",
"H c #3688A1",
"J c #3B8DA0",
"K c #7BBE84",
"L c #7EBB92",
"P c #619BBC",
"I c #4289C7",
"U c #81BD83",
"Y c #F78D89",
"T c #80A3D9",
"R c #A1BFEB",
"E c #ACC2EA",
"W c #D5E6F1",
/* pixels */
"VVVVVVVVVVVVVVVVVVVVVgVVVVVVVAgVVVVVVVVVVVVVVVVVVVVVVVVVVVVVVVVV",
"VVVVVVVVVVVVVVVVVVVVVAVVVVVVVVVVVVVVVVVVVVVVVVVVVVVVAgVVVVVVVVVV",
"VVVVVVVVVVVVVAVVVVVVVVVVVVVVVVVVVVVVVVVVVVVVVVVVVVVVVVVVVVVVVVVV",
"VVVVAgVVVVVVVgVVVVVVVVVVVVVVVVVVVVVVVVVVVVVVVVVVVVVVVVVVVVVVVVVV",
"VVVVVVVVVVVVVVVVVVVVAgVVVVVVVVVVVVVVVAgVVVVVVVVVVgVVVVAVVVVVgVVV",
"VVVVVVVVVVVVVVVVVVVVVVVVVVVVVVVVVVVVVVVVVVVVVVVVVAVVVVZVVVVVAVVV",
"VVVVVVVVVVVVVVVVVVVVVVVVVVVVZVVVVVVVVVVA>9AVVVVVVVVVVVVVVVVVVVVV",
"VVVVVVVVVVVVVVVVVVVVVVVVVVgAAVVVVVVVVVVA->DVVVVVVVVVVVVVVVVVVVVV",
"VVVVVVVVVVVVVVVVVVVVVVVVVVVVVVVVVVVVVVnVVvVVVVVVVVVVVVVVVVVVVVVV",
"VVVVVVVVgVVVVVVVVVVVVVVVVVVVVVVVVVVVVVVCCVgVVVVVVVVVVVVVVVVVVVVV",
"VVVVVVgAAVVVVVVVVVgVVVVVVVVVVVVVVVVVVCn;0ZVVVVVVVVZAVVgVVgAVVVVV",
"VVVVVVVVVVVVVVVVVVAVVVVVVVVVVVVVVVVVVVg-0VVVVVVVVVAVVVVVVVVVVVVV",
"VVVVVVVVVVVVVVVVVVVVVVVVVVVVVVVVVVVVVMmVVVVVVVVVVVVVVVVVAVVVVVVV",
"VVVVVVVVVVVVVVZVVVVVVVVVVgVVVVVVVVVVkz.bVVVSVVVVVVVVVVVVVVVVVVVV",
"VVVVVVVVVVVVVVAVVVVVVVVVVVVVVVVVVVVC+#YoxgSVVVVVVVVgVVVVVVVVVVVV",
"VVAgVVVVVVVVVAgVVVVVVVVVVVVVVVVVVZVSl@$XcSSVVVVVVVVAVVVVVVVVVVVV",
"VVVVVZAVgVVVVVAAVVVVVVVVVVVVVVVV0eVS:O %0CVVVVVVVVVVVVVVVVVVVVVV",
"VVVVVVVVVVVVVVZVVVVVgVVVVVVVVVVD<=SVA4*SCVvVVVVVVVVVVVVVVVVVVVVV",
"VVVVVVVVVVVVVVVVVVVVVVAVVVVVVVVVvrVVVVgAVAVVVVVVVVVVVVVVVVgVVVVV",
"VVVVVVVVVVVVVVVVVVVVVVVVVVVVVVVVVVVSVVVVVVVVVgVVVVVVVVVVZAAVVVVV",
"VVVVVVVVVVVVVVVVVgVVVVVVVVVVVVVVVVS40VVSCCgVVVVVVVVVVgVVVVVVVVVV",
"VVVVgAVVVAVVVVVVVVVVVVVVVVVVVVVVVVA=7SVCLUNVVVVVVVVVVAVVVVVVVVVV",
"VVVVVVVVVVVVVVgVVVVVVVVVgVVVVVVVVVVgVVASGPZVVVVVVVVVVVVVVVVVVVVV",
"VVVVVVVVVVVVVVVVVVVVVVVVVVVVVVVVVVVVAZLGWEIAVVVVVVVVVVVVVVAgVVVV",
"VVVVVVVVZVVVVVVVAVVVVVVVVVVVVVVVVVVVSZKFRTJVVVVVVVVVVVVVVVVVVVVV",
"VVVVVVVVAVVVVVVVVVVVVVVVVVVAVVVVVVVVVnC&FH&AVVVVVAgVVVVVVVVVVVVV",
"VVVgVVVgVVVAVVVVVVVVVVVVvVVVVVVAAAVACVCC-3ACVVVVVVVVVVVVVVVVVVgA",
"VVVAVVVAVVVVVVVAVVVVVVVVVVVZVAVDe7SVVCCCggAVVVVVVVVVVVVVVVVVVVVV",
"VVVVVVVVgVVVVVVVVVVVVVVVVV8q0AAe62qAVn8qVVVVVVVVVVVVVVVVVVVVVVVV",
"VVVVVVVVVVVVVVVVVVVVVVVVVVw26rA6<61K0q16VVnSVVVVVVVVVVVVVVVVVVVV",
"VVVVVVVVVVVVVVVVVAVVVAVVVgVw65Ae626Aq17AZvAVVVVVVVVVVVVVVVAVVVVV",
"VVVVVVVVVVVVVVVVVVVVVgAVVVVAe4kDw6AAqeAkVVVVAgVVVVVVVVVAgVZVVVVV",
"VVVVVVVVVVVVVVVCVV97VVSVVAq6en<gggVqer640ZCVVVVVVVVVVVVVVVVVVnVV",
"VVVVVVVVVVVVVVVvVAq69VSnVA090AwvVAV00nwwkVVVvVVVVVVVVnVVVVVVVVVV",
"VVVVVVVVVVVVVCVVCVr6,rVCSkACVgBNgAVVgugVVVVVVVVVVVVVVVVVVVVVSV0S",
"VVVVVVVVVVVVVnVVgggk648VSAvVVVsaugggyiaVVVvVVVVVVVVVVVVVVVVVA0,r",
"VVVVVVVVVVVVV77V<6wAgV68AVVVVgVupuVyiyVVVnCVBZCVVVVVVguBVVVV025r",
"VVVVVVVVVVVVVV866266qg0VAVVVVVVVgtygtgvVVVVCNuyungVguhtZVZV061rV",
"VVAVVVVVVVVVVSkq26629ASVVVVVVSVVAVuVVVVVVVVVnyaijAVyyaBCVVw9eeV0",
"VVVVVVVVVVVVVVVV636qVSVVVVVAkrASVVVVVVVVVVVVCZyyuZjayhgnnV6rArA6",
"VVVVVVVVVVVVVVVVVC77kSSVVVASe4SVVVAVVVVVVVVVZVVngyuVVAAVVVSg0551",
"VVVVVVVVVVVVVAAVVVVr62rVVVq6qAVVVAAuuVVVVVCnVuZVVVVAVSAVVSvVgk21",
"VVVgVVVVVVVVV98VCVVr116rAq21qVVVVVVZuujgVCNtsdeAVVVVnSA07VVVVZrr",
"VVVVAVVVVVVVVe909VZg761ev12q9VVVAVCAuaajgvyiidqr0nnAAv0e7VVVVCVV",
"VVVVVVVVVVVVVAr11kVVV66w062rAggAAVAVuaaagjiipZr51rVArq,qAAVVVVVS",
"VVVVVVVVVVVVVSw165wAVkAe6VVVVAVA966AVgs31fpygVw621rn12,7VVVVVVVv",
"VVVgVVVVVVVVAAn0rrwwCVAr0VZVVVVAge16kk31duggVgg0007qnAvkVVVVVVVV",
"VVVVVVVVVVVVVVCnVZ00VVVVgVVVVVVVVA9qeqeeugVSVVVVVZ0fZVVAVBuZVVVw",
"VVVVVVVVVVVVVVVAVAVZSSVVVVVVVVVVVVVAe9SAVVVVZAAgVVZpyuSVjaygZVv7",
"VVVAVVVVVgVVVVVVgAVVgVVVVVVVVVVVVVVgVVAVVAVVAVAVVVAgayggapVVVV<v",
"VVVVVVVVVVVVVVVVVVVVAVVVVVVVgVVVVVVVVVVVVVVVVAVVVVgAZZuBVZVVAAnS",
"VVVVVVVVVVVVVVVVVVVVVVVVVVVVVVVVVVVVVVVVVVVVVVVVVVAVCnCVvVVAAAAA",
"VVVVVVAVVVZVVVVVVVVVVVAgVVVVVVVVVVVVVVVVVVVVZAVVVVrw0VVVV89vAAVA",
"VVVVVVVVVAAVVVVVVVVVVVVVVVVVVVVVVVVVVVVVVVVVVVVVVSe26nVnw,4rAvVV",
"VVVVVVVVVVVVVVVVVVVVVVVVVVVVVVVVVVVVVVVVVVVVVVVVVVAr25nw340kgVVV",
"VVVgVVVVVVVVVVVgVVVVVVVVVVVVVVVVVVVVVVVVVVgVVVVVVVkArrqek0VkAVVV",
"VVVVVVVVVVVVVVVVVVVVVVVVVVVVVVVVVVVVVVVVVVVVVVVVVVVVAV08SkAAVVVV",
"VVVVVAZVVVVVgVVAVVVVVVVVVVVVVVVVVVVVVVVVVVVVVVVVVVVVVVNgAVVnVgVv",
"VVVVVVVVVVVVVVVVVVVVVVVVVVVVVVVVVVVVVVVVVVVVVVVVVVVVVVVVVVVVVVVV",
"VVAgVVVVVVVVVVVVVVVVVVVVVVVVVVVVVVVVVVVVVVVVVVVVVVVVVVVVVVVVVVVV",
"VVVVVVVVVgVVVVVVVZAVVVVVVVVVVVVAVVVVVVVVVVVVVVVVVVVVVVVVVVVVVVVV",
"VVVVVVVVVVVVVVVVVVgAVVVVVVAgVVVgVVVVVVAVVVVVVVVVVVVVVVVVSVVwrAAV",
"VVVVVVVVVAVVVVVVVVVVVVVVVVVVVVVVVVVVVVVVVVVVVVVVVVVVVVVVVnS8KrgA",
"VVVVVVVVVVVVVVVVVVVVVVVVVVVVVVVVVVVVVVVVVVVVVVVVVVVVVVVVVVn<1KkZ"
};
