/* XPM */
static char *result[] = {
/* columns rows colors chars-per-pixel */
"64 64 256 2 ",
"   c #251E17",
".  c #032A0D",
"X  c #003B06",
"o  c #003A15",
"O  c #003C2B",
"+  c #500F12",
"@  c #6E031B",
"#  c #530E34",
"$  c #70072D",
"%  c #6C0335",
"&  c #790038",
"*  c #503433",
"=  c #732D3B",
"-  c #004501",
";  c #005502",
":  c #014514",
">  c #01441C",
",  c #024B1C",
"<  c #0C5418",
"1  c #006907",
"2  c #2B7512",
"3  c #034A25",
"4  c #045727",
"5  c #165828",
"6  c #0E4F33",
"7  c #025837",
"8  c #2E5030",
"9  c #02642C",
"0  c #06682A",
"q  c #186D28",
"w  c #03772C",
"e  c #056934",
"r  c #156A37",
"t  c #067637",
"y  c #17753A",
"u  c #2A7135",
"i  c #4E523D",
"p  c #6E5938",
"a  c #596E38",
"s  c #303645",
"d  c #540948",
"f  c #790345",
"g  c #6B1247",
"h  c #781A48",
"j  c #54324E",
"k  c #663849",
"l  c #71304B",
"z  c #1B5654",
"x  c #2A5A4B",
"c  c #046B47",
"v  c #16694B",
"b  c #02774A",
"n  c #1B7B46",
"m  c #046858",
"M  c #05765A",
"N  c #157A57",
"B  c #267C47",
"V  c #3A7A4D",
"C  c #28785A",
"Z  c #026D66",
"A  c #1A6A6A",
"S  c #017264",
"D  c #057867",
"F  c #177A65",
"G  c #277768",
"H  c #377262",
"J  c #525151",
"K  c #70504D",
"L  c #4E6D50",
"P  c #5A7A58",
"I  c #726E4E",
"U  c #5E676B",
"Y  c #6E7264",
"T  c #8C0039",
"R  c #A40039",
"E  c #815B32",
"W  c #870048",
"Q  c #96024C",
"!  c #890352",
"~  c #920455",
"^  c #AE0B56",
"/  c #8C3253",
"(  c #B12A5B",
")  c #AC1567",
"_  c #983265",
"`  c #B43368",
"'  c #C70058",
"]  c #D41065",
"[  c #D2326D",
"{  c #EF3879",
"}  c #8C5359",
"|  c #A6485C",
" . c #846D56",
".. c #8C5365",
"X. c #B04B70",
"o. c #917270",
"O. c #A06376",
"+. c #CD4F76",
"@. c #E64676",
"#. c #F24378",
"$. c #358A13",
"%. c #06853C",
"&. c #188731",
"*. c #2C8E29",
"=. c #37AF32",
"-. c #459412",
";. c #50AB1A",
":. c #57B71B",
">. c #509134",
",. c #4DB526",
"<. c #64AA34",
"1. c #3DC633",
"2. c #5CC81C",
"3. c #6ACB13",
"4. c #54CB28",
"5. c #63CC24",
"6. c #038746",
"7. c #1A8746",
"8. c #05964A",
"9. c #06855C",
"0. c #18875D",
"q. c #109850",
"w. c #278649",
"e. c #378E48",
"r. c #278A5A",
"t. c #3A8A57",
"y. c #27995A",
"u. c #359A59",
"i. c #02A74B",
"p. c #14AE4E",
"a. c #04A954",
"s. c #35AD49",
"d. c #28A259",
"f. c #2CA35C",
"g. c #32A356",
"h. c #3BA454",
"j. c #33A35B",
"k. c #3BA45B",
"l. c #38AA5B",
"z. c #058463",
"x. c #1A8765",
"c. c #199465",
"v. c #288665",
"b. c #238D63",
"n. c #388B66",
"m. c #299964",
"M. c #369864",
"N. c #2CA164",
"B. c #35A662",
"V. c #519049",
"C. c #4A8B5A",
"Z. c #53875A",
"A. c #489859",
"S. c #559B5B",
"D. c #6F8F56",
"F. c #47A857",
"G. c #43A55B",
"H. c #4BAA5A",
"J. c #53AC55",
"K. c #53AB5B",
"L. c #59A85A",
"P. c #50B152",
"I. c #5AB257",
"U. c #73B04D",
"Y. c #66AB58",
"T. c #73AB59",
"R. c #64B356",
"E. c #6CB355",
"W. c #65B25B",
"Q. c #6CB45A",
"!. c #74B454",
"~. c #7BB554",
"^. c #73B55B",
"/. c #78B858",
"(. c #498865",
"). c #469768",
"_. c #549966",
"`. c #4C9272",
"'. c #6F9367",
"]. c #49A864",
"[. c #57A966",
"{. c #5AB267",
"}. c #57A776",
"|. c #68AA64",
" X c #75AC65",
".X c #67B668",
"XX c #77B768",
"oX c #68AC77",
"OX c #6BB476",
"+X c #74BC72",
"@X c #7BBD74",
"#X c #74B879",
"$X c #7BBC79",
"%X c #7ACA6C",
"&X c #7DC274",
"*X c #7CC279",
"=X c #86B748",
"-X c #91BD43",
";X c #82B857",
":X c #8A8B68",
">X c #86AA66",
",X c #81B96A",
"<X c #82BD75",
"1X c #84C26A",
"2X c #82C376",
"3X c #83C379",
"4X c #85C77A",
"5X c #F13E82",
"6X c #B45985",
"7X c #9A6D88",
"8X c #B7688C",
"9X c #B27694",
"0X c #F64A84",
"qX c #F14F88",
"wX c #EB5687",
"eX c #F4578A",
"rX c #CB6E95",
"tX c #D16B95",
"yX c #EE6A95",
"uX c #F76996",
"iX c #F7749C",
"pX c #F172A4",
"aX c #F97AA3",
"sX c #AF8895",
"dX c #95AB91",
"fX c #B88BA2",
"gX c #D5829D",
"hX c #D787A6",
"jX c #CF94AD",
"kX c #F687AA",
"lX c #F68CB3",
"zX c #E896B0",
"xX c #F997B8",
"cX c #D2A8B7",
"vX c #EAA2BC",
"bX c #F5A4BD",
"nX c #85C191",
"mX c #9DC5A7",
"MX c #D9B5C8",
"NX c #ECAFC8",
"BX c #F6ACC5",
"VX c #E8B8CB",
"CX c #F8B6CC",
"ZX c #FCBCD3",
"AX c #D9C7D1",
"SX c #E7C6D5",
"DX c #EDCDD8",
"FX c #F9C7D9",
"GX c #F2D0E1",
"HX c #F8D8E4",
"JX c #FDDDEB",
"KX c #FBE3EC",
"LX c #F4ECED",
"PX c #FAE8F3",
"IX c #FDECF4",
"UX c #FCF4F8",
/* pixels */
"2X2X2X2X2X2X2X3X2X2X2X2X2X2X2X2X<X3X4X<X3X3X<X3X3X3X3X3X<X3X4X3X3X3X2X2X2X2X&X2X2X2X3X2X2X2X2X2X2X2X2X2X2X2X2X2X2X2X2X2X2X2X2X2X",
"2X2X2X2X2X2X2X<X2X2X&X2X3X4X<X2X<XXX<X4X2X3X<X,X<XXX,X<X,X,X@X|.+X2X.X+X3X2X3X4X2X&X4X2X2X2X2X2X3X3X2X2X2X2X2X2X2X2X2X2X2X2X2X2X",
"2X2X2X2X2X2X2X3X2X3X3X2X+X&X3X2X@XY.$X*X3X@X+X|.|. X|.|.|.|.L.h.XX@Xu.+X4X+X+X+X4X&XOX*X3X2X2X2X+X&X2X2X&X+X&X2X2X2X2X2X2X2X2X2X",
"2X2X2X2X2X2X2X3X<X<X3X&Xg.{.2X&X.Xu.|.>X<X|.M.A `. XA.u.j.j.H.|. X|.|.@X$Xj.g.j.*X}.Z OX2X2X*X#Xg.{.*X&X{.d.+X$X2X2X2X2X2X2X2X2X",
"2X2X2X2X2X2X2X4X#Xv.M.H.j.B.].x.(.XXS.= = l g % @ './.P.d.f.g.G.G.k.u.].G.h.j.u.H.M.S F (.XXK.h.f.r.n.].l.f.9.`.*X1X2X2X&X2X2X2X",
"&X2X2X2X2X2X<X4XOXS D x.f.B.L d k I K cXjXpXhXcXVXO.I T.R.I.F.g.0.D x.y.f.d.H.W.g.y.m.D v.G.B.j.W.G.9.y.d.j._.oX4X2X2X2X2X2X2X2X",
"2X2X2X2X2X2X&X3X#X`.n.v.S.P 7XfX8X[ [ HXPXHXCXCXCX` l  X~.I.P.d.A.A.0.j.F.J.R.~.I.F.B.z.x.K.K.L.~.E.J.J.F.f.L. X3X2X2X2X2X2X2X2X",
"2X2X2X2X2X2X3X2X*X*X{.u.'.% VXPXFXlXqXJXIXPXxXuX0X( K L.!.h.s.h.~.=Xs.P.I.!.!.R.E.I.f.w.A.~.~.!.E.^.^.~.R.G.f.H.*X2X4X&X2X2X2X2X",
"2X2X2X2X3X*X*X X.Xg.g.g.Z.T MXIXUXBX{ IXHXlXeXuXxX` } >X>XH.Y.-X-XU.h.u.F.!.I.g.g.g.h.R./.~.!.^.l.f.l.R.!.E.G.j.f.OX2X2X2X2X2X2X",
"2X2X2X2X2X&X[.j.G.W.H.d.Z.@ AXUXBXiX5XCXHXIXbXiXeX^ @ / = $ @ D.I.P.U.U.Q./.U.Q.G.K.^./././.;X^.j.j.j.l.F.F.j.f.j.l.H.+X2X2X2X2X",
"2X2X2X2X4X&Xk.J.Y.~.J.d.Z.T cXKXJXBXaXiXhXfXiXeX^ jXMXtXhXjXMXsXJ C.;X=X!.C.A.{.t.p p  .K E K S.P.H.l.l.d.j.j.F.W.k.d.@X4X&X2X2X",
"2X2X2X2X2X&Xk.W.;X~.R.F.A.L 8XhXAXjXtX[ ' ^ | | ^ VXUXJXZXBXFXrX% H {.R.[.x.x.(.Y sX8XrXrX9X9XY D.Z.L L l.j.u.H.~.I.F.+X4X2X2X2X",
"2X2X2X2X2X<XG.Q.~.Q.!.!.F.G.L $ @ % l K X.+.c Y { ZXUXUXCXaX#.] l H m.j.h.B.m.d X.GXFXZXZXJXPXX.Q _ | ..C.u.G.J.U.~.E.@X2X2X2X2X",
"2X2X&X2X2X2X|./.|.m S.~.U.!. X|._._.>X>XV : t I [ HXPXlXuX0XxXtXh S.m F.R.k.B.K ) { iXbXUXUXHXyXuXNXJXSXW P ^././.^.E.+X3X2X2X2X",
"2X2X2X2X3X@Xr.G n.|.!./.F.Y.I @ k k = @ + o q.e.  cXJXIXZXaXuX[ W T.Q.;X~.0.m.K _ lXuXqXxXHXUXeXlXUXUXVXf D./.L.F B.H.&X2X2X2X2X",
"2X2X2X2X3X@XoXM.y.H.J.J.S.K fXMXgXhXjXMXdX%.&.c N P sXBXtX6X^ / L H.Z.E p k J & Q uXiXlXJXJXGXeXiXFXUXAX& D./.T.S.n.r.@X2X2X2X2X",
"2X2X2X2X2X2X4X{.g.H.J.I.:X@ MXUXJXFXCXFXmXi.q 3 w.0 X ^ l p I L B.L U fX8X8X+.9X9X] yXlXAXVXkXiXzXVXKXSX& D.L.W.W.M.r.&X2X2X2X2X",
"2X2X2X2X2X2X&X].k./.!.Q.:X& MXIXUXCXiX#.O.%.2 5 : r y : c ^. XH.'.% rXJXCXFXFXKXDXW [ [ T ' @.pXNXLXCXhXh :XJ.g.k.j.[.2X2X2X2X2X",
"2X2X2X&X3X3X4X].h.~.K.f.V.& AXUXzXuX#.xX9XX 5.;.o 0 y o e.L.A.S G k ` 0XkXCXUXUXDX#. .c @.+.W W ! f ! j A.^.!.!.^.G.F.<X3X2X2X2X",
"2X2X2X2X2X3XXXH.h./.K.c.H T jXHXUXFXiXyX..X 3.4.8.r 7 w.L.L.).D A g +.xX#.yXbXLXKX#...7 _ K '.:XG C H N r.H.G.J./.K.u.2X4X2X2X2X",
"2X2X2X2X2X2X XH.h.H.I.W.n.P O.rXbXkXuX0X( - 3.4.a.w 5 M.V u u C `.% ` aXiXbXHXHXSX/ V.6.f % p I j J * L ).9.y.M.(.u.H.&X2X2X2X2X",
"2X2X2X2X2X<X_.M.m.d.F.L.l.N.z l ' [ X.| K 9 ;.=.a.w r n u $.e &.Z.K | [ tXzXHXcXsX4 6.7.i o.fX8XrXX.9XsXY C ].].9.c.M.&X2X2X2X2X",
"2X2X2X2X2X&Xv.G r.B.0.9.y.r.x.`.k x e < e N < t a.%.0 o ;.2.p.t 3 ).Y g g Q ] * ; C 7 8 8.mXHXFXZXFXPXSX$ P W.W.B.b.n.1X2X2X2X2X",
"2X&X2X2X2X2X2XXXR.h.g.B.D c.N.F N u 5 d.7.X 5.4.a.0 , t w w X B b.S Z F N N 3 r y , , 6 a.:X#.kXFXUXUXVXW P 6.0.j.OX4X2X2X&X2X2X",
"2X2X2X2X2X2X1XXX!.^.P.f.M 9.x.A 6 O > 4 y q.2 q 6.e *.5.2 O r.F D F N.N.m.c - e t . -.<.1 o.kXeXyXvXUXDXW H y.g.d.R.,X2X2X2X2X2X",
"2X2X2X2X2X2X2X|.P.K.G.d.y.c.m 5 ;.*.8.0 t q.t 4 0 t &.=.;.;.n m Z F x.M.B.u.B 7 e 6.,.3.; } iXuXbXKXKXVXf J d.F.R.J.I.2X2X2X2X2X",
"2X2X2X2X2X2X@XB.d.H.K.K.F.B e &.4.=.6.t e 9 e e 7 e 4 3 =.:.X v x.v.A N w.r.c.7 4 a.4.3.; / #.uXbXHXzX8XK H y.k.L.u.B.2X2X2X2X2X",
"2X2X2X2X3X3X<X[.G.^.!.^.V.X 7.p.i.r 3 3 3 6 < e 0.r 6 5 9 9 > w.B.B.r.; < 5 N 7 4 a.4.:.0 } @.@.[ ] Q J r.G.G.M.Z M.{.2X2X2X2X2X",
"2X2X2X2X2X2X X^.W.h.g.l.w., > < - V.t.b N N N b r.f.y.B.u : o y u.4 w i.5.;., e %.a.t 3 f.w.o t r > D.].K.E./.[.M OX<X<X2X2X2X2X",
"&X2X2X2X2X2X X~.^.Q.H.d.j.e.y.N m w.m.M.N.9.9.d.l.j.B.N.u.F.F.d.b.M c 9 *.*.9 4 0 i.1.:.5 y q.0 u L.g.x.m.H.H.F.c.|.;X&X2X2X2X2X",
"4X2X2X&X2X&XL.T.;X~.J.N.y.r.c.D D S x.L a J i K L C x.m.l.l.H.l.x.F r.e.4 q ,.*.e 8.*.-.%.%.y > 8 u 0.y.m.N.f.h.I.Q. X2X2X2X2X2X",
"2X2X2X2X2X&XJ.L.W.R.H.y.0.0.x.n.n.A x 9X9X6X6X8X9XU z J L V f.l.c.v.j.V.*.$.:.*.t e 3 4 p.6.> t *.2 v r.y.y.u.J./.T.^.&X2X2X2X2X",
"2X2X2X2X2X2XT.F.y.h.j.f.j.l.l.R.[.j _ GXFXZXZXHXPX8X! _ _ K C.u.j.B.B . :.:.0 w t 4 0 y t t t i.=.5.$.4 M N y.F.E.!.Q.+X3X2X2X2X",
"2X2X2X2X2X&XF S r.XXI.f.j.g.j.u.H.I ~ @.aXxXIXUXKXiXqXBXFXSXW P l.m.v 3 0 r 3 : 3 u.B O 6 3 5 : t p.a.8.> w.l.f.h.j.G.&X3X2X2X2X",
"2X2X2X2X2X&XOXoX.XF.l.l.f.K.E.Y.XXI ~ aXiXqXxXFXUXkXpXPXIXGX~ J z.v.m X 4 c t.Y.D.# % # # @ + V.e.4 w 9 X w.l.F.R.XX+X&X2X3X3X3X",
"2X2X2X2X2X2X,X4X&XOXH.f.u.p  .I I / W uXaXaXFXHXJXiXeXFXPXHX~ J z.Z Z m s # I I o.jXjXrXrXjXjXo.P >.B w.B u.N.].XX4X4X1X3X<X+X@X",
"2X2X2X2X2X&X X.X+X.X{.e.U 9X6X6XX.8X8X[ yXkXAXSXxXyXaXVXKXHX! L c.x.G J O.8XX.) 6XKXKXHXCXCXCX_ K [.m.m.f.B.G.I.1X+XXX2X<X$XoX#X",
"2X&X2X2X2X2X4X[.y.d.).* 6XJXZXCXFXJXGX_ ( @.T ^ { pXNXLXFXzX/ U B.B.P & SXJXFXuXuXKXIXLXxXuX{ ( J S x.M y.j.E.!.Q.k.F.2X<XoXOX*X",
"2X2X2X2X2X2X3X{.d.j.v.k ` 0XaXBXUXUXHXwX| b tX[ W ~ ~ ! ~ l (.D m.B.D.f SXIXUXlXyXUXFXkX0XuXlX_ k n.M.M.M.k.T.E.h.f.].$XoXoX$X3X",
"2X2X2X2X2X$Xn.[.I.u.M.K ` kXuXyXBXJXPXeX| e / | (.C.(.S.D.).n.S x.x.U & GXPXNXyXeXFXKXJXlXiXeXQ % k K j # e.l.K.E.E.Q.#X*X$X4X$X",
"2X2X2X2X2X&XC.L.I.f.B.k ( aXuXkXFXHXHX| P 8.l l L L L I I Z.m.m.b.0.x W SXKXFXxXiXaXcXcXiX@.] jXjXtXrXrXcX7XP Y.I._.S.<X4X$X$XOX",
"2X2X2X2X2X2X@XL.h.F.[.I _ [ wXzXHXMXsXt t q.J ..8XO.` X.X.7XP ).f.f.L l rXNXAXNXyX[ ^ R +.| ~ HXPXHXFXZXGX8X$ |.d.9.v.*X&XOXoXoX",
"2X&X2X2X2X2XOXXX/././.XXZ.h / W [ = - A.u < %.nXJXZXCXZXJXGX! U f.N.B.v.j f % & ! l [ +.e ..0XGXIXUXBXaX{ ( k A.l.j.].*X2X*X#XoX",
"2X2X2X2X2X&XOXoXOX&X{.f.M Z. XH 8 u y 4 3 o i.Y.wXkXCXUXUXDX! J D x.B.B.n.H G A ].n.x 8 w ..0XPXJXzXeXeXlXX.l >X^.v.9.&X3X1XnX*X",
"2X2X2X2X2X2X*XXXY.[.M.9.Z x.n.M o e b . 2 :.w  .kXeXyXBXPXLX~ J c.m.f.y.J # j j J *   3 a.V l VXJXKXbXiXpX` h Y.;X|.).+X2X4X2X2X",
"2X2X2X2X2X&X3X.XH.j.0.M c.x.Z N v y 0 t ,.3.1 K aXuXlXDXJXGX! J z.m.n.J sXfXrXrXrXjX'.w 7.b B :XjXFXgX6X] / L G.L.=XU.@X2X2X3X3X",
"2X2X2X2X2X2X*X].p.u.b.x.M.v.m N u.n , a.4.3.1 / #.iXvXHXNXrXl L v.0.J W DXIXGXZXZXFXnX8.5 3 S.1 + ( / * K L d.j.d.U.=X3X2X2X2X2X",
"2X2X&X2X2X2X&X{.m.6.m.m.v 3 : u A.4 4 i.=.3.1 K @.@.{ { ) j H S.H.).L W AXUXUXCXaX{ :Xa.5 > : y y 3 t.].L.^.F.f.u.R./.2X2X2X2X2X",
"2X2X2X2X2X2X2X&X&X+X[.e 9 i.,.:.4 e w p.%.: N v * u L 8 x _.S.L.r.z.J f GXKXxXuX#.xXo.; 5.-.. t t < S.C r.B.Q.[.S M.F.&X&X2X4X@X",
"2X2X4X&X2X2X4X2X3X4X}.c C.0 *.=.4 4 0 a.=.;.q e %.w 9 V.u.v.n.v.F z.U f VXJXKXbXiXiX} - 3.,.6.0 7 c e.y.d.d.^.W.y.x.u.*X2X2X$X$X",
"&X2X2X2X2X&X&X4X2X+X).x.A.7 7 4 =.$.4 8.=.;.y t 7.< < L A.v.Z Z v.M.'.K 8XjXZXxXiX0X} ; 3.4.a.4 u r.c 7.B A./.R.f.z.G *X3X4XOX$X",
"2X2X2X2X4X4X&X&X@XD.L.k.b b q $.:.=.t e 7 3 i.q.: 0 0 2 V C v.v.n.S.).n.s Q ] [ +.+.K 0 :.=.i.9 u V.q 2 4 >.Y.J.j.r.).4X<X3X<X<X",
"2X2X2X2X2X2X*XXX X|.^.Q.B . ,.2.w t t 4 0 t t y t 8.s.5.$.< S.K.r.S D F F L h x 9 X w.7.X %.a.%.0 > :.4.p.w 4 u.g.Y.;X<X3X3X3X3X",
"2X2X2X&X2X&XXXXX|.S Y.;XV., y y 3 , , b B X , o , , w p.p.p.< w.0.n U.=XT.D n.v 5 p.t < 2.4.i.0 4 e &.&.: V.!.I.y.E.~.@X3X<X3X3X",
"2X2X2X4X4X@Xn.n.n._.F.J.L.X , 4 w.n >.Y.u.7.w.<.V.v V.e t e . V L.Y.-XY.(.v.7 3 , t 7.7.$.*.6.e *.:.0 5 V.T.;X!.R.!.!.@X3X2X3X2X",
"2X2X2X2X2X&X_.`._. XY.L.T.u y B F.K.^.Y.x.].K.E.u.b.C.8 a >.u <.Y.Y.=XA.m *.-.&.t 4 %.8.4 4 0 t *.:.$.>.V.U.~.~.~.,XXX@X2X2X2X2X",
"&X2X2X2X2X2X1X1X1X~.!.Q.Q.K.l.B.H.Q.F.d.z.K.I.m c.k.S ].~.Y.I.{.0.9.H.V.0 $.4.=.8.t e r t r 0 e e 9 ,.,.. V./.~.~.1X1X&X3X2X2X2X",
"2X2X2X2X2X4X/.~.~.!.H.d.g.u.j.d.f.f.P.P.j.j.u.F b.g.j.j.l.x.D S y.k.w.X q.p.i.w X > 3 4 > y j.4 3 < 0 0 o w.E.~.@X%X%X2X2X2X2X2X",
"2X2X2X2X2X2X X XT.G.k.j.l.m.N m.j.B.v.r.M _.|.M b.g.B.m.F D S S L.!.V.. 3 4 4 &.Y.T.Y.N M y.W. Xu.u.r : . e.^.Q.G.|.XX<X2X2X2X2X",
"2X2X2X2X2X2X%X).n.d.y.v.x.D S G.s.d.D F S.Q.XXc.N.l.b.F Z ).].9.Y.-XU.V.V.>.V.u.^.;X~.Y.Y.I.@X@Xg.f.w.7.c M ].].9.v.(.2X2X2X2X2X",
"2X2X2X2X2X2X%X[.).{.n.S `.`.M.OXQ.{.)._./.;XQ.B.y.b.S G ).+X+X[./.~.R.^.;X1XW.d.J.!.~.~.;X,X<X&X[.{.{.{.].).c.b.`.n._.<X2X2X2X2X",
"2X2X2X2X2X2X2X4X%XnX_.r.*X*X4X4X4X<X4X4X4X,XQ.N.b.v.G }.4X3X<X3X4X&Xg.Y.,X4X.XF.k.J.E.!.XX3X3X<X4X2X4X3X4X4Xn.).nX3X3X2X2X&X2X2X",
"2X2X2X2X2X2X2X2X2X4X&X&X*X&X2X2X2X4X2X<X4X2X$Xm }.&X&X&X2X<X3X4X3X2X2X2X2X4X&X&X&X{.b OX1X4X3X<X3X2X*X3X2X3X3X2X2X2X<X3X*X*X3X2X",
"&X2X2X2X2X2X2X2X2X2X&X2X4X2X2X2X2X2X2X2X2X3X3XOX*X2X2X4X2X2X2X2X2X2X2X2X2X2X2X2X2X@X+X3X3X3X2X2X2X2X2X3X2X2X2X4X%X2X3X$X#X4X*X4X"
};
